<svg xmlns="http://www.w3.org/2000/svg" width="408" height="66" fill="none"><path fill="#010304" d="M63.27 27.02c1.4-1.91 2.3-3.95 2.69-6.05l.82-4.51c.87-4.8-.26-8.67-3.38-11.52C60.33 2.14 55.8.72 49.95.72H17.81l-4.76 26.14-2.16 11.82-3.18 17.43c-.5 2.73 0 4.98 1.45 6.69 1.46 1.7 3.6 2.56 6.38 2.56h25.69c6.22 0 11.53-1.53 15.78-4.55 4.31-3.06 6.96-7.21 7.9-12.36l.86-4.69c.54-2.99.09-5.72-1.34-8.14-1.22-2.04-2.96-3.62-5.21-4.7 1.58-1.08 2.94-2.39 4.05-3.91zM51.78 43.77l-.72 3.97c-.31 1.68-1.14 2.93-2.54 3.84-1.47.95-3.47 1.43-5.93 1.43H22.27l2.61-14.31h21.67c1.9 0 3.34.48 4.28 1.44.92.94 1.23 2.13.96 3.65zm.76-25.96-.56 3.06c-.34 1.85-1.11 3.28-2.38 4.37-1.26 1.09-2.71 1.62-4.43 1.62H27.02l2.51-13.77h17.7c1.92 0 3.37.44 4.33 1.32.92.84 1.24 1.96.98 3.4"/><path fill="#010304" d="M44.91 26.87v11.82H.74l2.18-11.82zM114.17 19.64c-2.73-1.55-6.09-2.34-9.98-2.34h-8.11c-3.89 0-7.53.79-10.83 2.34-3.32 1.56-6.12 3.8-8.33 6.65-2.21 2.84-3.66 6.15-4.33 9.81l-1.92 10.55c-.67 3.67-.43 6.96.72 9.77 1.15 2.82 3.13 5.03 5.88 6.56 2.73 1.52 6.09 2.29 9.98 2.29h8.11c3.95 0 7.62-.77 10.91-2.29 3.31-1.53 6.11-3.74 8.31-6.56 2.2-2.81 3.66-6.1 4.33-9.77l1.92-10.55c.67-3.67.42-6.97-.75-9.81-1.17-2.85-3.16-5.08-5.91-6.65M89.63 53.17c-1.89 0-3.25-.66-4.18-2.03-.95-1.4-1.21-3.19-.79-5.49l1.59-8.74c.41-2.26 1.35-4.11 2.8-5.49 1.42-1.37 3.06-2.03 5.01-2.03h7.75c1.94 0 3.34.66 4.27 2.03.94 1.38 1.21 3.23.79 5.49l-1.59 8.74c-.41 2.26-1.35 4.11-2.79 5.49-1.43 1.37-3.1 2.03-5.1 2.03h-7.76M167.9 19.64c-2.73-1.55-6.09-2.34-9.98-2.34h-8.11c-3.89 0-7.54.79-10.83 2.34-3.32 1.56-6.12 3.8-8.33 6.65-2.21 2.84-3.66 6.15-4.33 9.81l-1.92 10.55c-.67 3.67-.43 6.95.72 9.77s3.13 5.03 5.88 6.56c2.73 1.52 6.09 2.29 9.98 2.29h8.11c3.95 0 7.62-.77 10.91-2.29 3.31-1.53 6.11-3.74 8.31-6.56 2.2-2.81 3.66-6.1 4.33-9.77l1.92-10.55c.67-3.67.42-6.97-.75-9.81-1.17-2.85-3.16-5.08-5.91-6.65m-29.51 26.02 1.59-8.74c.41-2.26 1.35-4.11 2.8-5.49 1.43-1.37 3.06-2.03 5.01-2.03h7.75c1.95 0 3.34.66 4.27 2.03.94 1.38 1.21 3.23.79 5.49l-1.59 8.74c-.41 2.26-1.35 4.11-2.8 5.49-1.43 1.37-3.09 2.03-5.1 2.03h-7.75c-1.88 0-3.25-.66-4.18-2.03-.95-1.4-1.21-3.19-.79-5.49M230.08 18.75h-16.44l-19.73 16.82L200.28.63h-13.81l-11.78 64.64h13.81l2.5-13.7 4.64-3.93 10.54 17.63h15.84L206.31 38.7zM265.04 36.88 251.68.63h-12.31l-11.78 64.64h13.72l6.87-37.7 7.91 21.35c.34.92.73 1.73 1.17 2.39l.04.06c.34.52.7.95 1.08 1.28.92.78 2.08 1.18 3.45 1.18h.27c1.37 0 2.68-.4 3.88-1.18.52-.34 1.04-.77 1.52-1.25.68-.65 1.39-1.48 2.12-2.46l15.68-21.35-6.87 37.69h13.72L303.93.64h-12.32l-26.56 36.25zM347.2 22.38c-3-3.37-7.54-5.08-13.48-5.08h-7.21c-3.89 0-7.53.79-10.83 2.34-3.32 1.56-6.12 3.78-8.32 6.6-2.2 2.81-3.66 6.1-4.33 9.77l-2.12 11.63c-.63 3.44-.33 6.54.88 9.2 1.21 2.67 3.22 4.77 5.99 6.23 2.74 1.46 6.1 2.2 9.99 2.2h6.85c3.87 0 7.48-.66 10.71-1.95 3.28-1.32 6.03-3.23 8.17-5.68 1.86-2.12 3.14-4.53 3.83-7.18h-13.8c-.37.67-.94 1.24-1.71 1.74-1.3.83-2.94 1.25-4.87 1.25h-7.03c-1.98 0-3.39-.52-4.31-1.59-.92-1.06-1.21-2.44-.89-4.21l.25-1.39h33.35l1.88-10.33c1.02-5.61 0-10.16-3.01-13.55zm-10.61 13.49H316.7c.45-2.03 1.35-3.68 2.68-4.94 1.42-1.34 3.06-1.99 5.01-1.99h7.3c1.89 0 3.24.61 4.13 1.86.9 1.27 1.15 2.92.77 5.06z"/><path fill="#6444D8" d="m372.06 63.5 8.12-44.57h13.06l-8.12 44.57z"/><path fill="#6444D8" d="M405.25 47.52h-47l2.44-13.22h46.99z"/></svg>