<?xml version="1.0" encoding="UTF-8"?>
<svg id="Layer_1" data-name="Layer 1" xmlns="http://www.w3.org/2000/svg" viewBox="0 0 24 24">
  <path d="M12,15.94c-.41,0-.71,.3-.71,.71v2.79c0,.41,.3,.71,.71,.71s.71-.3,.71-.71v-2.79c0-.41-.3-.71-.71-.71Z"/>
  <path d="M15.72,16.87c-.41,0-.71,.3-.71,.71v.93c0,.41,.3,.71,.71,.71s.71-.3,.71-.71v-.93c0-.41-.3-.71-.71-.71Z"/>
  <path d="M8.28,16.87c-.41,0-.71,.3-.71,.71v.93c0,.41,.3,.71,.71,.71s.71-.3,.71-.71v-.93c0-.41-.3-.71-.71-.71Z"/>
  <path d="M20.36,3.86H3.64c-.92,0-1.64,.72-1.64,1.64v7.43c0,.92,.72,1.64,1.64,1.64H20.36c.92,0,1.64-.72,1.64-1.64V5.5c0-.92-.72-1.64-1.64-1.64Zm-2.79,5.57H6.42c-.41,0-.71,.3-.71,.71v3.01H3.64c-.14,0-.22-.08-.22-.22V5.5c0-.14,.08-.22,.22-.22H20.36c.14,0,.22,.08,.22,.22v7.43c0,.14-.08,.22-.22,.22h-2.08v-3.01c0-.41-.3-.71-.71-.71Zm-.71,3.72H7.13v-2.3h9.73v2.3Z"/>
  <path d="M17.58,6.65h-1.86c-.41,0-.71,.3-.71,.71s.3,.71,.71,.71h1.86c.41,0,.71-.3,.71-.71s-.3-.71-.71-.71Z"/>
</svg>