<?xml version="1.0" encoding="UTF-8"?>
<svg id="New" xmlns="http://www.w3.org/2000/svg" viewBox="0 0 24 24">
  <path d="M12.78,12.36v-4.08c0-.22-.07-.4-.22-.55-.15-.15-.33-.22-.55-.22-.22,0-.4,.07-.55,.22-.15,.15-.22,.33-.22,.55v4.32c0,.12,.02,.24,.07,.36,.05,.11,.12,.22,.21,.31l3.03,3.03c.14,.14,.32,.22,.54,.22,.22,0,.4-.07,.55-.22,.15-.15,.22-.33,.22-.55s-.07-.4-.22-.55l-2.84-2.84Zm-.78,9.11c-1.22,0-2.36-.23-3.43-.69-1.07-.46-2-1.09-2.79-1.88-.79-.79-1.42-1.72-1.88-2.79-.46-1.07-.69-2.21-.69-3.43s.23-2.36,.69-3.43c.46-1.07,1.09-2,1.88-2.79,.79-.79,1.72-1.42,2.79-1.88,1.07-.46,2.21-.69,3.43-.69s2.36,.23,3.43,.69c1.07,.46,2,1.09,2.79,1.88,.79,.79,1.42,1.72,1.88,2.79,.46,1.07,.69,2.21,.69,3.43s-.23,2.36-.69,3.43c-.46,1.07-1.09,2-1.88,2.79-.79,.79-1.72,1.42-2.79,1.88-1.07,.46-2.21,.69-3.43,.69ZM2.09,6.76c-.15-.15-.22-.33-.22-.55,0-.21,.07-.4,.22-.55l2.91-2.91c.14-.14,.32-.22,.54-.22,.22,0,.4,.07,.55,.22,.15,.15,.22,.33,.22,.55s-.07,.4-.22,.55l-2.91,2.91c-.14,.14-.32,.22-.54,.22-.22,0-.4-.07-.55-.22Zm19.83,0c-.15,.15-.33,.22-.55,.22s-.4-.07-.55-.22l-2.91-2.91c-.14-.14-.22-.32-.22-.54,0-.22,.07-.4,.22-.55,.15-.15,.33-.22,.55-.22s.4,.07,.55,.22l2.91,2.91c.14,.14,.22,.32,.22,.54,0,.22-.07,.4-.22,.55Zm-9.91,13.16c2.01,0,3.72-.7,5.13-2.11,1.41-1.41,2.11-3.12,2.11-5.13s-.7-3.72-2.11-5.13c-1.41-1.41-3.12-2.11-5.13-2.11s-3.72,.7-5.13,2.11c-1.41,1.41-2.11,3.12-2.11,5.13s.7,3.72,2.11,5.13c1.41,1.41,3.12,2.11,5.13,2.11Z"/>
</svg>