<?xml version="1.0" encoding="UTF-8"?>
<svg id="Layer_1" data-name="Layer 1" xmlns="http://www.w3.org/2000/svg" viewBox="0 0 24 24">
  <path d="M22.11,11.22H7.15c0-1,.01-3.86,.09-6.16,.02-.66,.27-1.15,.69-1.37,.44-.24,1.1-.18,1.86,.16-.36,1.21,.42,2.25,.95,2.68,.29,.23,.75,.2,1.01-.08l2.32-2.53c.27-.3,.26-.76-.04-1.04-.8-.76-1.59-.85-2.12-.8-.57,.06-1,.31-1.28,.52-1.27-.64-2.48-.72-3.4-.23-.89,.48-1.42,1.43-1.47,2.62-.08,2.34-.09,5.21-.1,6.21H1.89c-.41,0-.74,.33-.74,.74s.33,.74,.74,.74h.59l.32,2.64c.14,1.09,.86,3.22,2.64,4.31v1.61c0,.41,.33,.74,.74,.74s.74-.33,.74-.74v-1.02c.19,.04,.37,.07,.54,.09,1.4,.14,3.28,.2,5.57,.2,1.87,0,2.39-.01,2.56-.02,0,0,.98-.03,1.04-.05,.51-.09,.32-.05,.74-.2v1c0,.41,.33,.74,.74,.74s.74-.33,.74-.74v-1.76c1.02-.71,2.3-2.05,2.7-4.48,.16-.97,.23-1.74,.2-2.32h.36c.41,0,.74-.33,.74-.74s-.33-.74-.74-.74Zm-2.02,3.56c-.29,1.77-1.13,2.81-1.93,3.41-.72,.55-1.61,.8-2.52,.82-1.65,.04-5.46,.08-8.04-.17-2.81-.27-3.31-3.56-3.33-3.7l-.3-2.45H20.27c.02,.35,0,.98-.18,2.08ZM11.37,3.96c.12-.17,.38-.36,.69-.39,.11,0,.21,0,.32,.03l-1.13,1.23c-.12-.3-.08-.59,.12-.86Z"/>
</svg>