<?xml version="1.0" encoding="UTF-8"?>
<svg id="New" xmlns="http://www.w3.org/2000/svg" viewBox="0 0 24 24">
  <path d="M18.75,21.75H5.25c-.82,0-1.5-.67-1.5-1.5v-7.5c0-2.07,1.68-3.75,3.75-3.75h9c2.07,0,3.75,1.68,3.75,3.75v7.5c0,.83-.67,1.5-1.5,1.5ZM7.5,10.5c-1.24,0-2.25,1.01-2.25,2.25v7.5h13.5v-7.5c0-1.24-1.01-2.25-2.25-2.25H7.5Z"/>
  <path d="M16.5,10.5c-.41,0-.75-.34-.75-.75v-1.52c0-.82-.67-1.48-1.49-1.48h-4.53c-.39,0-.77,.16-1.05,.44s-.43,.66-.43,1.06v1.5c0,.41-.34,.75-.75,.75s-.75-.34-.75-.75v-1.5c0-.8,.3-1.55,.86-2.12s1.31-.88,2.11-.88h4.54c1.64,0,2.98,1.33,2.99,2.98v1.52c0,.41-.34,.75-.75,.75Zm.75-6c-.41,0-.75-.34-.75-.75s-.34-.75-.75-.75h-6c-.41,0-.75-.34-.75-.75s.34-.75,.75-.75h6c1.24,0,2.25,1.01,2.25,2.25,0,.41-.34,.75-.75,.75Z"/>
  <path d="M12,6.75c-.41,0-.75-.34-.75-.75V2.25c0-.41,.34-.75,.75-.75s.75,.34,.75,.75v3.75c0,.41-.34,.75-.75,.75Z"/>
</svg>