<?xml version="1.0" encoding="UTF-8"?>
<svg id="New" xmlns="http://www.w3.org/2000/svg" viewBox="0 0 24 24">
  <path fill="currentcolor" d="M12,3.5c4.69,0,8.5,3.81,8.5,8.5s-3.81,8.5-8.5,8.5S3.5,16.68,3.5,12,7.31,3.5,12,3.5m0-1.5C6.48,2,2,6.48,2,12s4.48,10,10,10,10-4.47,10-10S17.53,2,12,2h0Z"/>
  <path fill="currentcolor" d="M12,8.51c1.93,0,3.49,1.57,3.49,3.49s-1.57,3.49-3.49,3.49-3.49-1.57-3.49-3.49,1.57-3.49,3.49-3.49m0-1.5c-2.76,0-4.99,2.24-4.99,4.99s2.24,4.99,4.99,4.99,4.99-2.23,4.99-4.99-2.23-4.99-4.99-4.99h0Z"/>
  <path fill="currentcolor" d="M11.95,9.8c-.32,0-.59,.05-.81,.15-.22,.11-.39,.24-.49,.41-.11,.18-.17,.36-.17,.57,0,.41,.18,.72,.55,.91-.2,.1-.36,.24-.47,.41-.12,.17-.17,.38-.17,.62,0,.27,.07,.5,.2,.71,.14,.2,.33,.35,.56,.45,.24,.1,.5,.16,.79,.16s.55-.06,.79-.16c.24-.1,.43-.25,.56-.45,.14-.2,.21-.44,.21-.71,0-.24-.05-.45-.17-.62-.11-.18-.27-.31-.48-.41,.17-.08,.3-.21,.4-.36,.1-.16,.15-.34,.15-.55s-.06-.4-.16-.57c-.11-.17-.28-.3-.5-.41-.22-.1-.49-.15-.81-.15h0Zm0,1.77c-.14,0-.26-.04-.35-.13-.09-.08-.14-.2-.14-.35,0-.16,.05-.29,.13-.37,.09-.09,.22-.13,.36-.13,.15,0,.28,.04,.36,.13,.09,.09,.14,.21,.14,.37,0,.15-.05,.27-.14,.36-.09,.08-.21,.13-.36,.13h0Zm0,1.81c-.19,0-.33-.05-.44-.15-.11-.11-.17-.24-.17-.4,0-.18,.06-.31,.17-.4,.11-.1,.26-.15,.44-.15s.33,.05,.44,.15c.11,.1,.16,.24,.16,.4s-.05,.29-.16,.4c-.1,.1-.25,.15-.44,.15h0Z"/>
</svg>