<?xml version="1.0" encoding="UTF-8"?>
<svg xmlns="http://www.w3.org/2000/svg" width="213" height="34" viewBox="44 0 213 34" fill="none">
  <path d="M32.6848 13.9652C33.4158 12.968 33.89 11.9041 34.0901 10.8032L34.5198 8.44836C34.9767 5.94294 34.3815 3.91886 32.7514 2.43041C31.1485 0.969125 28.78 0.228607 25.7174 0.228607H8.91779L6.42822 13.8838L5.30199 20.0622L3.64228 29.1681C3.38048 30.5948 3.63734 31.7697 4.40051 32.6608C5.16121 33.5495 6.2825 33.9987 7.73722 33.9987H21.1656C24.4183 33.9987 27.1944 33.1989 29.4147 31.6241C31.6647 30.0271 33.0552 27.8549 33.5467 25.1668L33.9938 22.7181C34.2778 21.1581 34.0432 19.7289 33.2948 18.4676C32.6576 17.3988 31.7462 16.5743 30.5731 16.0091C31.398 15.4463 32.1093 14.76 32.6897 13.9652H32.6848ZM26.6782 22.7181L26.3003 24.7891C26.1398 25.6654 25.7051 26.3195 24.9715 26.7935C24.201 27.2896 23.1587 27.5389 21.8695 27.5389H11.2493L12.6126 20.0622H23.9392C24.932 20.0622 25.6878 20.3139 26.1768 20.8125C26.6584 21.3013 26.8214 21.9258 26.6757 22.7181H26.6782ZM27.0783 9.15679L26.7869 10.7588C26.6115 11.7264 26.204 12.4718 25.5445 13.042C24.8876 13.6098 24.1293 13.8862 23.2303 13.8862H13.7413L15.0528 6.69086H24.3072C25.3099 6.69086 26.0706 6.92289 26.5695 7.38201C27.0511 7.82386 27.2166 8.40393 27.0808 9.15926L27.0783 9.15679Z" fill="white"/>
  <path d="M23.0902 13.8849V20.0608H0L1.13858 13.8849H23.0902Z" fill="white"/>
  <path d="M59.2952 10.1125C57.8676 9.30038 56.1116 8.89062 54.0789 8.89062H49.8383C47.8056 8.89062 45.8989 9.30285 44.1775 10.1125C42.4436 10.9295 40.979 12.0971 39.8232 13.5855C38.6698 15.0715 37.9091 16.7969 37.5584 18.7124L36.5532 24.2218C36.2024 26.1398 36.3284 27.8578 36.9261 29.324C37.5263 30.7976 38.5586 31.9528 40.001 32.7526C41.4286 33.5474 43.1846 33.9498 45.2197 33.9498H49.4604C51.5276 33.9498 53.4442 33.5474 55.1632 32.7526C56.8945 31.9528 58.3566 30.8001 59.51 29.3265C60.661 27.8553 61.4217 26.1398 61.7699 24.2218L62.7751 18.7124C63.1258 16.7944 62.9925 15.0715 62.3824 13.5855C61.7699 12.0971 60.7326 10.9295 59.2952 10.1125ZM46.467 27.6307C45.4815 27.6307 44.7677 27.2851 44.2812 26.5693C43.7823 25.8386 43.6464 24.9006 43.8663 23.7035L44.6986 19.1369C44.9135 17.9546 45.4049 16.9919 46.1607 16.2687C46.9066 15.5553 47.7611 15.2097 48.7787 15.2097H52.8292C53.8443 15.2097 54.5753 15.5578 55.0619 16.2687C55.5534 16.9894 55.6917 17.9546 55.4768 19.1345L54.6445 23.701C54.4296 24.8809 53.9381 25.846 53.1848 26.5668C52.439 27.2802 51.5671 27.6282 50.5175 27.6282H46.467V27.6307Z" fill="white"/>
  <path d="M87.3811 10.1125C85.9535 9.30038 84.1975 8.89062 82.1649 8.89062H77.9242C75.8891 8.89062 73.9848 9.30285 72.2634 10.1125C70.5296 10.9295 69.065 12.0971 67.9091 13.5855C66.7557 15.0715 65.995 16.7969 65.6443 18.7124L64.6391 24.2218C64.2884 26.1398 64.4143 27.8553 65.012 29.324C65.6122 30.8001 66.647 31.9528 68.0869 32.7526C69.5145 33.5474 71.2681 33.9498 73.3032 33.9498H77.5438C79.6086 33.9498 81.5276 33.5474 83.2442 32.7526C84.9755 31.9528 86.4376 30.8001 87.591 29.3265C88.742 27.8553 89.5027 26.1398 89.8509 24.2218L90.8561 18.7124C91.2068 16.7944 91.0735 15.0715 90.4634 13.5855C89.8509 12.0971 88.8136 10.9295 87.3761 10.1125H87.3811ZM71.9547 23.7035L72.787 19.1369C73.0019 17.9546 73.4934 16.9919 74.2491 16.2711C74.995 15.5578 75.852 15.2122 76.8671 15.2122H80.9176C81.9352 15.2122 82.6638 15.5578 83.1503 16.2711C83.6418 16.9919 83.7801 17.957 83.5652 19.1369L82.7329 23.7035C82.518 24.8834 82.0265 25.8485 81.2708 26.5693C80.5249 27.2826 79.6531 27.6282 78.6059 27.6282H74.5529C73.5674 27.6282 72.8537 27.2826 72.3671 26.5668C71.8682 25.8362 71.7324 24.8982 71.9522 23.701L71.9547 23.7035Z" fill="white"/>
  <path d="M119.882 9.64351H111.282L100.973 18.4359L104.302 0.179688H97.083L90.9258 33.9498H98.1426L99.4491 26.7914L101.877 24.7377L107.387 33.9498H115.666L107.454 20.0675L119.882 9.64351Z" fill="white"/>
  <path d="M138.153 19.1197L131.174 0.179688H124.737L118.58 33.9473H125.75L129.341 14.2545L133.473 25.4067C133.651 25.888 133.856 26.3076 134.083 26.6557L134.103 26.6853C134.278 26.9568 134.468 27.179 134.668 27.3518C135.15 27.7615 135.758 27.9689 136.469 27.9689H136.61C137.326 27.9689 138.008 27.7615 138.637 27.3493C138.909 27.1716 139.181 26.947 139.433 26.6952C139.786 26.357 140.159 25.925 140.542 25.4067L148.739 14.2545L145.148 33.9473H152.323L158.48 0.179688H152.039L138.153 19.1172V19.1197Z" fill="white"/>
  <path d="M181.104 11.5417C179.533 9.78171 177.162 8.89062 174.055 8.89062H170.286C168.254 8.89062 166.347 9.30285 164.625 10.1125C162.892 10.9295 161.427 12.0897 160.279 13.5608C159.128 15.0295 158.367 16.7475 158.016 18.6679L156.91 24.7427C156.581 26.5396 156.737 28.1564 157.367 29.5511C157.999 30.9433 159.051 32.0417 160.496 32.8069C161.928 33.5672 163.684 33.9547 165.715 33.9547H169.296C171.321 33.9547 173.206 33.6116 174.897 32.9328C176.609 32.2441 178.046 31.2469 179.168 29.9658C180.138 28.855 180.81 27.5961 181.168 26.2163H173.956C173.761 26.5643 173.465 26.8655 173.06 27.1247C172.381 27.5591 171.524 27.7788 170.516 27.7788H166.841C165.808 27.7788 165.072 27.5073 164.588 26.9469C164.107 26.3965 163.956 25.6757 164.127 24.7451L164.26 24.0194H181.692L182.677 18.6235C183.211 15.6935 182.682 13.314 181.106 11.5466L181.104 11.5417ZM175.557 18.5914H165.159C165.396 17.5325 165.868 16.6661 166.559 16.0119C167.303 15.3134 168.16 14.9727 169.177 14.9727H172.993C173.979 14.9727 174.685 15.2912 175.154 15.9453C175.623 16.6068 175.757 17.4708 175.557 18.5914Z" fill="white"/>
  <path d="M212.721 17.7719H203.706L205.171 9.74219H198.344L196.88 17.7719H188.156L186.877 24.676H195.62L194.099 33.0241H200.925L202.447 24.676H211.449L212.721 17.7719Z" fill="white"/>
</svg>