<?xml version="1.0" encoding="UTF-8"?>
<svg id="New" xmlns="http://www.w3.org/2000/svg" xmlns:xlink="http://www.w3.org/1999/xlink"
  viewBox="0 0 24 24" fill='currentColor'>
  <defs>
    <clipPath id="clippath">
      <rect width="24" height="24" style="fill: none;"/>
    </clipPath>
  </defs>
  <g style="clip-path: url(#clippath);">
    <g>
      <path
        d="M18.69,4.42c-.18-.45-.62-.75-1.11-.75H2.94c-.49,0-.92,.3-1.1,.75-.19,.46-.08,.98,.28,1.32l7.33,7h.01c.23,.24,.53,.35,.83,.35s.57-.11,.79-.31h0s.02-.02,.03-.03l4.56-4.39,.1-.09,1.14-1.09,.11-.1,1.39-1.34c.35-.34,.46-.86,.28-1.32Zm-8.41,6.85L4.06,5.31h12.41l-.75,.72-.21,.2-.99,.97-.08,.08-4.16,3.99Z" />
      <path
        d="M17.89,.42c-1.96,0-3.62,1.29-4.19,3.07-.13,.42-.2,.85-.2,1.3,0,.14,.01,.29,.02,.43h1.74c-.02-.14-.03-.28-.03-.43,0-.47,.13-.92,.35-1.3,.46-.8,1.31-1.34,2.31-1.34,1.45,0,2.64,1.19,2.64,2.64s-1.19,2.64-2.64,2.64c-.12,0-.22-.01-.33-.01-.28-.03-.54-.12-.78-.23-.37-.17-.7-.43-.96-.75l-1.14,1.12-.09,.09c.25,.3,.55,.57,.89,.78,.21,.14,.42,.25,.65,.36,.54,.24,1.14,.37,1.78,.37,2.41,0,4.37-1.96,4.37-4.37S20.3,.42,17.89,.42Z" />
      <path
        d="M12.44,21.02h-4.36c-.41,0-.75-.34-.75-.75s.34-.75,.75-.75h4.36c.41,0,.75,.34,.75,.75s-.34,.75-.75,.75Z" />
      <path
        d="M10.26,21.02c-.41,0-.75-.31-.75-.7V11.95c0-.39,.34-.7,.75-.7s.75,.31,.75,.7v8.37c0,.39-.34,.7-.75,.7Z" />
    </g>
  </g>
</svg>