<?xml version="1.0" encoding="UTF-8"?>
<svg id="New" xmlns="http://www.w3.org/2000/svg" viewBox="0 0 24 24">
  <path d="M14.79,10.52h-5.57c-.07,.27-.17,.53-.32,.77-.14,.25-.32,.46-.53,.64l.74,8.16c.01,.08,.05,.15,.11,.21,.06,.06,.13,.09,.22,.09h5.12c.09,0,.16-.03,.22-.09,.06-.06,.09-.13,.11-.21l.74-8.16c-.21-.19-.39-.41-.53-.65-.14-.24-.25-.49-.32-.76Zm-5.93-4l-.29,1.17c.15,.18,.29,.38,.4,.58,.11,.2,.2,.42,.26,.65h5.57c.06-.23,.14-.44,.25-.65,.11-.21,.25-.4,.41-.58l-.29-1.17h-6.3Zm.59,15.48c-.49,0-.93-.16-1.3-.49-.37-.33-.58-.74-.63-1.24l-.79-8.66c-.02-.16,0-.3,.08-.43,.07-.13,.17-.24,.3-.33,.18-.14,.32-.3,.43-.48,.11-.19,.17-.39,.17-.62,0-.2-.04-.39-.12-.58-.08-.18-.2-.34-.35-.47-.14-.09-.25-.21-.32-.37-.07-.16-.08-.32-.03-.48l.54-2.2c.05-.22,.16-.4,.34-.53,.18-.13,.38-.2,.61-.2h2.83v-1.31h-.8c-.23,0-.42-.08-.57-.23-.15-.15-.23-.34-.23-.57s.08-.42,.23-.57c.15-.15,.34-.23,.57-.23h3.2c.23,0,.42,.08,.57,.23,.15,.15,.23,.34,.23,.57s-.08,.42-.23,.57c-.15,.15-.34,.23-.57,.23h-.8v1.31h2.83c.23,0,.42,.06,.59,.19,.17,.13,.28,.31,.33,.53l.56,2.18c.05,.16,.04,.32-.03,.48-.07,.16-.17,.28-.32,.37-.16,.12-.28,.27-.36,.44-.08,.18-.13,.36-.13,.57,0,.24,.05,.45,.16,.64,.1,.19,.25,.36,.43,.49,.13,.09,.24,.2,.31,.33s.1,.28,.09,.43l-.77,8.65c-.05,.5-.26,.92-.63,1.26-.37,.34-.8,.51-1.3,.51,0,0-5.12,0-5.12,0Z"/>
  <path d="M12.01,14.18l.63,1.09c.28,.48-.07,1.09-.63,1.09s-.91-.61-.63-1.09l.63-1.09m0-2.18l-.95,1.64-.63,1.09c-.33,.57-.33,1.25,0,1.82,.33,.57,.92,.91,1.57,.91s1.25-.34,1.57-.91c.33-.57,.33-1.25,0-1.82l-.63-1.09-.95-1.64h0Z"/>
</svg>