<?xml version="1.0" encoding="UTF-8"?>
<svg id="New" xmlns="http://www.w3.org/2000/svg" viewBox="0 0 24 24">
  <path fill="currentcolor" d="M22.75,3.37c0-.4-.32-.72-.72-.72H1.97c-.4,0-.72,.32-.72,.72,0,.4,.32,.72,.72,.72h0V20.67c0,.4,.32,.67,.72,.67H7.08c.4,0,.64-.28,.64-.67v-.69s.08-.05,.08-.07h8.47s.08,.05,.08,.07v.69c0,.4,.24,.67,.64,.67h4.4c.4,0,.72-.28,.72-.67V4.08c.37-.03,.65-.34,.65-.71Zm-2.09,.72V13.44h-2.76c-1.78-1.44-2.99-5.36-2.99-8.91v-.43h5.75Zm-11.5,0v.43c0,3.56-1.21,7.48-2.99,8.91H3.41V4.09h5.75ZM3.41,19.91v-5.03h2.3c.4,1.44,.65,3.59,.66,5.03H3.41Zm3.62-5.37c2.37-2.03,3.57-6.61,3.57-10.01v-.43h.72v14.38h-3.57c-.11-1.33-.35-2.65-.72-3.93Zm5.73,3.93V4.09h.72v.43c0,3.41,1.2,7.98,3.57,10.01-.37,1.28-.61,2.6-.72,3.93h-3.57Zm7.91,1.44h-2.96c0-1.44,.26-3.59,.66-5.03h2.3v5.03Z"/>
</svg>