<?xml version="1.0" encoding="UTF-8"?>
<svg id="New" xmlns="http://www.w3.org/2000/svg" viewBox="0 0 24 24">
  <path d="M9.23,12.98v8.02h-2.46V12.98h2.46m0-1.15h-2.46c-.64,0-1.15,.52-1.15,1.15v8.02c0,.64,.52,1.15,1.15,1.15h2.46c.64,0,1.15-.52,1.15-1.15V12.98c0-.64-.52-1.15-1.15-1.15h0Z"/>
  <path d="M8,12.82c-.41,0-.75-.34-.75-.75v-2.94c0-.41,.34-.75,.75-.75s.75,.34,.75,.75v2.94c0,.41-.34,.75-.75,.75Z"/>
  <path d="M16,12.82c-.41,0-.75-.34-.75-.75v-2.94c0-.41,.34-.75,.75-.75s.75,.34,.75,.75v2.94c0,.41-.34,.75-.75,.75Z"/>
  <path d="M16,9.14c-1.65,0-2.99-1.65-2.99-3.69s1.34-3.69,2.99-3.69,2.99,1.65,2.99,3.69-1.34,3.69-2.99,3.69Zm0-5.88c-.81,0-1.49,1-1.49,2.19s.68,2.19,1.49,2.19,1.49-1,1.49-2.19-.68-2.19-1.49-2.19Z"/>
  <path d="M8,9.14c-1.88,0-3.41-1.31-3.41-2.92V2.74c0-.41,.34-.75,.75-.75s.75,.34,.75,.75v3.48c0,.77,.87,1.42,1.91,1.42s1.91-.65,1.91-1.42V2.74c0-.41,.34-.75,.75-.75s.75,.34,.75,.75v3.48c0,1.61-1.53,2.92-3.41,2.92Z"/>
  <path d="M8,8.57c-.41,0-.75-.34-.75-.75V2.74c0-.41,.34-.75,.75-.75s.75,.34,.75,.75V7.82c0,.41-.34,.75-.75,.75Z"/>
  <path d="M17.23,12.98v8.02h-2.46V12.98h2.46m0-1.15h-2.46c-.64,0-1.15,.52-1.15,1.15v8.02c0,.64,.52,1.15,1.15,1.15h2.46c.64,0,1.15-.52,1.15-1.15V12.98c0-.64-.52-1.15-1.15-1.15h0Z"/>
</svg>