<?xml version="1.0" encoding="UTF-8"?>
<svg id="Layer_1" data-name="Layer 1" xmlns="http://www.w3.org/2000/svg" viewBox="0 0 24 24">
  <path fill="currentcolor" d="M21.33,13.13h-2.96V3.25c0-.76-.62-1.38-1.38-1.38H7c-.76,0-1.38,.62-1.38,1.38V13.13H2.67c-.44,0-.79,.35-.79,.79v5.58c0,1.45,1.18,2.62,2.62,2.62h15c1.45,0,2.62-1.18,2.62-2.62v-5.58c0-.44-.35-.79-.79-.79Zm-15.83,7.5h-1.01c-.62,0-1.12-.5-1.12-1.12v-4.88h2.13v6Zm1.5-6h2.23v6h-2.23v-6Zm3.73,0h2.61v6h-2.61v-6Zm4.11,0h2.01v6h-2.01v-6Zm3.51,0h2.27v4.88c0,.62-.5,1.12-1.12,1.12h-1.14v-6ZM7.13,3.38h9.75V13.13H7.13V3.38Z"/>
  <circle fill="currentcolor" cx="15.04" cy="9.38" r="1.25"/>
</svg>