<?xml version="1.0" encoding="UTF-8"?>
<svg id="New" xmlns="http://www.w3.org/2000/svg" viewBox="0 0 24 24">
  <path fill="currentcolor" d="M17.69,3.43h-.46c-.5-.88-1.44-1.43-2.45-1.43h-5.56c-1,0-1.93,.55-2.4,1.43h-.51c-1.59,0-2.88,1.29-2.88,2.88v12.83c.01,1.58,1.3,2.86,2.88,2.86h11.38c1.58,0,2.87-1.28,2.88-2.86V6.31c0-1.59-1.29-2.88-2.88-2.88Zm-8.47,0h5.56c.5,0,.97,.27,1.21,.71l.03,.06-3.98,6.26-3.94-6.36-.04,.03c.22-.43,.67-.7,1.16-.7Zm-4.36,2.88c0-.8,.65-1.45,1.45-1.45h.58l4.3,6.94-1.94,3.06H4.86V6.31Zm5.13,10.03l.03-.05h9.12v1.43H4.86v-1.43h5.05l.08,.05Zm7.7,4.23H6.31c-.79,0-1.44-.64-1.45-1.43h14.29c-.01,.79-.66,1.43-1.45,1.43Zm-6.76-5.71l6.36-10h.4c.8,0,1.45,.65,1.45,1.45V14.86H10.93Z"/>
</svg>