<?xml version="1.0" encoding="UTF-8"?>
<svg id="New" xmlns="http://www.w3.org/2000/svg" viewBox="0 0 24 24">
  <path d="M8.97,13.77h.05c.57-.02,1.02-.49,1-1.06-.01-.55-.47-1-1.05-1h0c-.55,.01-.99,.45-1,1,0,.27,.09,.54,.28,.74,.19,.2,.44,.31,.72,.32Z"/>
  <path d="M15.06,11.71h-.03c-.55,.02-.99,.46-1,1-.01,.57,.43,1.04,1,1.06h.05c.28,0,.53-.12,.72-.32s.29-.46,.28-.74c-.01-.55-.48-1-1.03-1Zm0,.12h0s0,0,0,0Zm.02,1.82h0s0,0,0,0Z"/>
  <path d="M8.27,16.53c1,.98,2.32,1.52,3.73,1.52s2.76-.55,3.77-1.56c.29-.29,.29-.76,0-1.06-.28-.28-.78-.28-1.05,0-.72,.72-1.69,1.12-2.71,1.12s-1.99-.4-2.71-1.12c-.28-.28-.77-.28-1.06,0-.14,.14-.22,.33-.22,.53,0,.18,.07,.35,.18,.49v.07h.07Z"/>
  <path d="M20.42,11.9c-.33-2.12-1.44-4.02-3.14-5.35-.31-.23-.78-.17-1.02,.12-.13,.15-.19,.35-.17,.54,.02,.2,.11,.38,.27,.51,1.48,1.16,2.43,2.89,2.63,4.76,.03,.28,.21,.52,.47,.62,.71,.27,1.18,.95,1.18,1.71,0,1.01-.83,1.83-1.85,1.83-.06,0-.12,0-.19,0-.27-.02-.55,.1-.7,.34-1.3,2.01-3.51,3.21-5.92,3.21h-.21c-2.32-.07-4.45-1.27-5.7-3.21-.14-.21-.37-.34-.63-.34-.02,0-.05,0-.07,0-.06,0-.12,0-.18,0-1.02,0-1.84-.82-1.84-1.83,0-.75,.48-1.44,1.18-1.71,.26-.1,.45-.34,.48-.62,.37-3.57,3.37-6.26,6.99-6.26,.41,0,.75-.33,.75-.75s-.33-.75-.75-.75c-4.18,0-7.79,3.08-8.42,7.18-1.06,.58-1.72,1.69-1.72,2.91,0,1.77,1.43,3.25,3.21,3.32,1.6,2.22,4.18,3.54,6.93,3.54h.23c2.65-.07,5.15-1.39,6.7-3.54,1.78-.07,3.21-1.54,3.21-3.32,0-1.21-.66-2.32-1.72-2.91Z"/>
  <path d="M12.41,3.82h.02c.56-.04,1.12,.18,1.51,.58,.37,.37,.58,.87,.58,1.4s-.21,1.03-.58,1.4c-.37,.38-.87,.58-1.4,.58s-1.03-.21-1.4-.58c-.28-.28-.77-.28-1.06,0-.29,.29-.29,.77,0,1.06,.66,.66,1.53,1.02,2.46,1.02,.07,0,.13,0,.2,0,1.91-.11,3.38-1.75,3.27-3.67-.11-1.84-1.63-3.28-3.46-3.28-.07,0-.13,0-.2,0h-.11v.02c-.33,.08-.57,.38-.56,.74,0,.4,.34,.73,.75,.73Z"/>
</svg>