<?xml version="1.0" encoding="UTF-8"?>
<svg id="New" xmlns="http://www.w3.org/2000/svg" viewBox="0 0 24 24">
  <path d="M12.13,8.3c-.18,.18-.27,.4-.27,.66s.09,.48,.27,.66c.18,.18,.4,.27,.66,.27s.48-.09,.66-.27c.18-.18,.27-.4,.27-.66s-.09-.48-.27-.66c-.18-.18-.4-.27-.66-.27s-.48,.09-.66,.27Z"/>
  <path d="M19.37,20.42h-3.98c.65-.43,1.16-.97,1.55-1.64,.39-.66,.58-1.43,.58-2.29v-2.83c0-.52-.19-.97-.56-1.34-.37-.37-.82-.56-1.34-.56h-5.67c-.52,0-.97,.19-1.34,.56-.37,.37-.56,.82-.56,1.34v2.83c0,.86,.19,1.63,.58,2.29s.91,1.21,1.55,1.64H5.75c-.09,0-.17-.03-.23-.09-.06-.06-.09-.14-.09-.23V3.9c0-.09,.03-.17,.09-.23,.06-.06,.14-.09,.23-.09h3.1s-.03,.08-.03,.13v1.15c0,.42,.34,.76,.76,.76h5.66c.42,0,.76-.34,.76-.76v-1.15s-.02-.09-.03-.13h3.39c.22,0,.41-.08,.56-.23,.15-.15,.23-.34,.23-.56s-.08-.41-.23-.56c-.15-.15-.34-.23-.56-.23H5.75c-.53,0-.98,.18-1.35,.55s-.55,.82-.55,1.35V20.1c0,.53,.18,.98,.55,1.35s.82,.55,1.35,.55h13.62c.22,0,.41-.08,.56-.23,.15-.15,.23-.34,.23-.56s-.08-.41-.23-.56c-.15-.15-.34-.23-.56-.23Zm-6.58-.77c-.88,0-1.62-.31-2.24-.92-.61-.61-.92-1.36-.92-2.24v-2.83c0-.09,.03-.17,.09-.23,.06-.06,.14-.09,.23-.09h5.67c.09,0,.17,.03,.23,.09,.06,.06,.09,.14,.09,.23v2.83c0,.88-.31,1.62-.92,2.24-.61,.61-1.36,.92-2.24,.92Z"/>
</svg>