<?xml version="1.0" encoding="UTF-8"?>
<svg id="New" xmlns="http://www.w3.org/2000/svg" viewBox="0 0 24 24">
  <path d="M12.14,15.77c.5,0,.93-.12,1.28-.35s.53-.6,.53-1.1c0-.44-.19-.8-.56-1.07s-1.03-.58-1.99-.93c-.89-.32-1.55-.7-1.97-1.14-.42-.44-.62-1.02-.62-1.73,0-.62,.22-1.19,.65-1.69,.43-.51,1.02-.84,1.76-.99v-.34c0-.21,.08-.4,.24-.56s.34-.24,.56-.24,.4,.08,.56,.24,.24,.34,.24,.56v.34c.44,.03,.84,.18,1.22,.44s.67,.59,.9,.97c.11,.17,.11,.34,.02,.53s-.24,.32-.45,.4c-.2,.08-.39,.08-.59,.02s-.36-.17-.48-.34c-.15-.18-.34-.33-.57-.44s-.5-.17-.82-.17c-.53,0-.94,.11-1.22,.34s-.42,.54-.42,.93,.17,.7,.52,.93,.98,.49,1.89,.8c1.09,.39,1.82,.86,2.18,1.39s.55,1.11,.55,1.75c0,.44-.08,.83-.23,1.16s-.35,.62-.6,.85-.54,.42-.87,.57-.69,.25-1.07,.33v.34c0,.21-.08,.4-.24,.56s-.34,.24-.56,.24-.4-.08-.56-.24-.24-.34-.24-.56v-.39c-.58-.12-1.07-.35-1.48-.68s-.73-.76-.98-1.27c-.09-.21-.09-.42,.01-.61s.25-.33,.47-.41c.2-.08,.39-.07,.59,.01s.35,.22,.45,.4c.21,.39,.48,.69,.81,.87s.69,.28,1.08,.28Zm-.14,6.23c-1.7,0-3.26-.39-4.68-1.16-1.42-.77-2.59-1.8-3.5-3.09v1.52c0,.26-.09,.47-.26,.65-.17,.17-.39,.26-.65,.26s-.47-.09-.65-.26c-.17-.17-.26-.39-.26-.65v-3.64c0-.26,.09-.47,.26-.65s.39-.26,.65-.26h3.64c.26,0,.47,.09,.65,.26s.26,.39,.26,.65-.09,.47-.26,.65-.39,.26-.65,.26h-1.34c.73,1.09,1.69,1.97,2.87,2.64,1.19,.67,2.5,1,3.92,1,2.14,0,3.97-.71,5.51-2.14,1.54-1.42,2.41-3.17,2.62-5.25,.03-.24,.14-.44,.32-.58s.39-.22,.64-.22c.26,0,.48,.08,.66,.24s.26,.35,.23,.58c-.11,1.29-.44,2.49-1,3.6s-1.29,2.08-2.18,2.91c-.89,.83-1.92,1.48-3.08,1.95s-2.4,.72-3.72,.72Zm0-18.18c-2.14,0-3.97,.71-5.51,2.14-1.54,1.42-2.41,3.17-2.62,5.25-.03,.24-.14,.44-.32,.58s-.39,.22-.64,.22c-.26,0-.48-.08-.66-.24s-.26-.35-.23-.58c.11-1.29,.44-2.49,1-3.6,.56-1.11,1.29-2.08,2.18-2.91,.89-.83,1.92-1.48,3.08-1.95s2.4-.72,3.72-.72c1.7,0,3.26,.39,4.68,1.16,1.42,.77,2.59,1.8,3.5,3.09v-1.52c0-.26,.09-.47,.26-.65s.39-.26,.65-.26,.47,.09,.65,.26,.26,.39,.26,.65v3.64c0,.26-.09,.47-.26,.65s-.39,.26-.65,.26h-3.64c-.26,0-.47-.09-.65-.26s-.26-.39-.26-.65,.09-.47,.26-.65,.39-.26,.65-.26h1.34c-.73-1.09-1.69-1.97-2.87-2.64s-2.5-1-3.92-1Z"/>
</svg>