<?xml version="1.0" encoding="UTF-8"?>
<svg id="New" xmlns="http://www.w3.org/2000/svg" viewBox="0 0 24 24">
  <g>
    <path fill="currentcolor" d="M10.51,3.18s-.78,.9-.78,1.27c0,.25,.78,.46,.78,.84s-.78,1.36-.78,1.36" style="fill: none; stroke: currentcolor; stroke-linecap: round; stroke-linejoin: round;"/>
    <path fill="currentcolor" d="M12.45,2.6s-.78,.9-.78,1.27c0,.25,.78,.46,.78,.84s-.78,1.36-.78,1.36" style="fill: none; stroke: currentcolor; stroke-linecap: round; stroke-linejoin: round;"/>
  </g>
  <path fill="currentcolor" d="M19.84,10.14c-.54,0-1.05,.13-1.5,.38v2.03c.28-.54,.85-.91,1.5-.91,.95,0,1.72,.78,1.72,1.73s-.77,1.72-1.72,1.72c-.65,0-1.22-.36-1.5-.9v2.03c.45,.24,.96,.37,1.5,.37,1.77,0,3.22-1.45,3.22-3.22s-1.45-3.23-3.22-3.23Z"/>
  <path fill="currentcolor" d="M18.27,8.27H4.52c-.69,0-1.26,.55-1.26,1.23v10.93c0,.68,.57,1.23,1.26,1.23h13.76c.7,0,1.26-.55,1.26-1.23V9.51c0-.68-.56-1.23-1.26-1.23Zm-.19,11.6c0,.21-.16,.37-.36,.37H5.08c-.2,0-.36-.17-.36-.37V10.07c0-.21,.16-.37,.36-.37h12.64c.2,0,.36,.17,.36,.37v9.81Z" style="stroke-miterlimit: 10; stroke-width: .47px;"/>
</svg>