<?xml version="1.0" encoding="UTF-8"?>
<svg id="Layer_1" data-name="Layer 1" xmlns="http://www.w3.org/2000/svg" viewBox="0 0 24 24">
  <path d="M3.86,19.34c0-.23,.09-.46,.26-.64L17.99,4.42c.36-.37,.94-.38,1.31-.02,.37,.36,.38,.94,.02,1.31L5.46,19.99c-.36,.37-.94,.38-1.31,.02-.19-.18-.28-.42-.28-.67Z"/>
  <g>
    <path d="M17.01,6.86c.21-.21,.55-.22,.76-.01l2.64,2.56c.21,.21,.22,.55,.01,.76s-.55,.22-.76,.01l-2.64-2.56c-.21-.21-.22-.55-.01-.76Z"/>
    <path d="M15.42,8.51c.21-.21,.55-.22,.76-.01l2.64,2.56c.21,.21,.22,.55,.01,.76s-.55,.22-.76,.01l-2.64-2.56c-.21-.21-.22-.55-.01-.76Z"/>
    <path d="M13.81,10.16c.21-.21,.55-.22,.76-.01l2.64,2.56c.21,.21,.22,.55,.01,.76s-.55,.22-.76,.01l-2.64-2.56c-.21-.21-.22-.55-.01-.76Z"/>
    <path d="M12.47,10.42h1.94v5.71h-.09c-1.02,0-1.84-.83-1.84-1.84v-3.87h0Z" transform="translate(-5.44 13.68) rotate(-45.87)"/>
    <path d="M20.98,3.6h0s.05,.02,.05,.05v5.61s-.02,.05-.05,.05h-1.08c-.45,0-.81-.36-.81-.81v-3.01c0-1.04,.85-1.89,1.89-1.89Z" transform="translate(38.66 -3.46) rotate(134.13)"/>
  </g>
</svg>