<?xml version="1.0" encoding="UTF-8"?>
<svg id="Layer_1" data-name="Layer 1" xmlns="http://www.w3.org/2000/svg" viewBox="0 0 24 24">
  <g>
    <path d="M14.09,22c-.39,0-.72-.32-.72-.72s-.14-.72-.35-1.03c-.27-.4-.6-.9-.6-1.83,0-.94,.33-1.43,.6-1.83,.21-.32,.35-.53,.35-1.04,0-.5-.14-.71-.35-1.03-.16-.24-.35-.52-.47-.91-.14-.45,.22-.91,.69-.91h0c.31,0,.51,.23,.68,.5,.12,.2,.17,.33,.29,.54,.24,.42,.59,.9,.59,1.82s-.32,1.43-.59,1.83c-.22,.32-.36,.53-.36,1.04,0,.5,.14,.72,.36,1.03,.27,.4,.59,.9,.59,1.83,0,.4-.32,.72-.72,.72Z"/>
    <path d="M10.87,22c-.39,0-.72-.32-.72-.72,0-.5-.14-.72-.35-1.03-.27-.4-.6-.9-.6-1.83,0-.94,.33-1.43,.6-1.83,.21-.32,.35-.53,.35-1.04s-.14-.71-.35-1.03c-.16-.24-.35-.52-.47-.91-.14-.45,.22-.91,.69-.91h0c.31,0,.51,.23,.68,.5,.12,.2,.17,.33,.29,.54,.24,.42,.59,.9,.59,1.82,0,.94-.32,1.43-.59,1.83-.22,.32-.36,.53-.36,1.04,0,.5,.14,.72,.36,1.03,.27,.4,.59,.9,.59,1.83,0,.4-.32,.72-.72,.72Z"/>
  </g>
  <path d="M22.8,7.19s-.08-.08-.12-.11l-.31-.31c-.3-.3-.6-.6-.91-.9-.76-.75-1.55-1.53-2.29-2.33-.45-.5-.89-.6-1.44-.58-.72,.01-1.46,.01-2.17,.01-.32-.01-.64-.01-.97-.01-.71,0-.91,.18-.99,.87-.1,.89-.82,1.56-1.69,1.56h-.01c-.86,0-1.61-.7-1.68-1.62-.06-.6-.27-.8-.86-.8h-1.07c-.69,0-1.42,.01-2.12-.02-.67-.01-1.14,.18-1.58,.65-.94,.99-1.93,1.97-2.88,2.91-.39,.39-.77,.77-1.16,1.15-.45,.46-.45,.82,0,1.29,.66,.66,1.32,1.3,1.97,1.96,.23,.23,.43,.35,.64,.35s.4-.11,.65-.36c.26-.27,.51-.54,.77-.81l.21-.22v9.49c0,.95,.77,1.72,1.72,1.72h1.93c.4,0,.72-.32,.72-.72h0c0-.4-.32-.72-.72-.72h-1.52c-.4,0-.72-.32-.72-.72V8.47c.01-.08,.02-.17-.02-.25-.02-.04-.04-.1-.07-.14-.08-.19-.17-.38-.33-.5-.15-.11-.46-.22-.87,.19l-1.19,1.2c-.28,.28-.74,.29-1.02,0l-.75-.75,.09-.08c.15-.13,.3-.28,.45-.42,.35-.33,.68-.68,1.01-1.01,.71-.7,1.42-1.42,2.14-2.11,.11-.12,.33-.21,.5-.22,.69-.02,1.39-.01,2.08-.01h.62c.29,1.03,.88,1.74,1.76,2.14,.84,.38,1.74,.39,2.55,.02,.69-.3,1.23-.83,1.56-1.52,.19-.39,.58-.64,1.01-.64,.3,0,.61,0,.91,0,.36,0,.72,0,1.08,.01,.13,0,.27,.03,.31,.08,1.07,1.05,2.13,2.11,3.19,3.17l.62,.62-1.28,1.23-.1-.1c-.46-.48-.96-.99-1.46-1.49-.19-.2-.49-.51-.95-.31-.42,.19-.42,.58-.42,.86v10.48c0,.4-.32,.72-.72,.72h-1.33c-.4,0-.72,.32-.72,.72h0c0,.4,.32,.72,.72,.72h1.84c.9,0,1.63-.73,1.63-1.63V10s-.01-.07,0-.11l.21,.22c.09,.09,.18,.18,.26,.27,.61,.64,1.61,.65,2.24,.03,.35-.35,.7-.69,1.05-1.04,.6-.6,.59-1.59-.02-2.19Z"/>
</svg>