<?xml version="1.0" encoding="UTF-8"?>
<svg id="Layer_1" data-name="Layer 1" xmlns="http://www.w3.org/2000/svg" viewBox="0 0 24 24">
  <path fill="currentcolor" d="M6.37,20h-2.19c-.69,0-1.29-.25-1.79-.75-.5-.5-.75-1.1-.75-1.79,0-.51,.14-.99,.42-1.43,.28-.44,.65-.76,1.12-.97l7.95-3.53v-1.18c-.69-.18-1.26-.56-1.7-1.12-.44-.56-.67-1.22-.67-1.97,0-.92,.31-1.69,.94-2.32,.63-.63,1.4-.94,2.32-.94,.78,0,1.46,.21,2.03,.64,.57,.42,.93,.95,1.07,1.58,.07,.29,.02,.54-.15,.74-.17,.2-.41,.3-.73,.3-.22,0-.4-.05-.55-.16-.15-.11-.28-.25-.39-.43-.1-.27-.26-.49-.5-.65-.23-.16-.49-.24-.79-.24-.41,0-.76,.14-1.05,.43-.29,.29-.43,.64-.43,1.05,0,.41,.14,.76,.43,1.05,.29,.29,.64,.43,1.05,.43,.25,0,.46,.09,.63,.26,.17,.17,.26,.38,.26,.63v1.9l7.95,3.53c.46,.21,.84,.53,1.12,.97,.28,.44,.42,.91,.42,1.43,0,.69-.25,1.29-.75,1.79-.5,.5-1.1,.75-1.79,.75h-2.19m-9.48-1.19h0Zm9.28-.59h2.39c.27,0,.46-.08,.59-.25,.12-.17,.18-.35,.18-.56,0-.15-.04-.29-.11-.42-.08-.13-.19-.22-.34-.29l-8.14-3.6-8.11,3.6c-.17,.07-.29,.16-.36,.28-.08,.12-.11,.26-.11,.43,0,.21,.06,.4,.19,.56,.13,.16,.32,.25,.58,.25h2.39m9.28,.59h-7.7"/>
</svg>