<?xml version="1.0" encoding="UTF-8"?>
<svg id="New" xmlns="http://www.w3.org/2000/svg" viewBox="0 0 24 24">
  <path fill="currentcolor" d="M4,22c-.24,0-.45-.08-.61-.25-.16-.16-.25-.37-.25-.61v-1.21h-.3c-.24,0-.44-.08-.6-.24-.16-.16-.24-.36-.24-.6v-3.45c0-.24,.08-.45,.25-.61s.37-.25,.61-.25h1.43V6.29c0-1.18,.42-2.19,1.25-3.03,.84-.84,1.85-1.25,3.03-1.25s2.19,.42,3.03,1.25c.84,.84,1.25,1.85,1.25,3.03v11.43c0,.72,.25,1.32,.75,1.82,.5,.5,1.11,.75,1.82,.75,.72,0,1.32-.25,1.82-.75,.5-.5,.75-1.11,.75-1.82V9.21h-1.43c-.24,0-.45-.08-.61-.25-.16-.16-.25-.37-.25-.61v-3.45c0-.24,.08-.44,.24-.6,.16-.16,.36-.24,.6-.24h.3v-1.21c0-.24,.08-.45,.25-.61,.16-.16,.37-.25,.61-.25h2.29c.24,0,.45,.08,.61,.25,.16,.16,.25,.37,.25,.61v1.21h.3c.24,0,.44,.08,.6,.24,.16,.16,.24,.36,.24,.6v3.45c0,.24-.08,.45-.25,.61-.16,.16-.37,.25-.61,.25h-1.43v8.51c0,1.18-.42,2.19-1.25,3.03-.84,.84-1.85,1.25-3.03,1.25s-2.19-.42-3.03-1.25c-.84-.84-1.25-1.85-1.25-3.03V6.29c0-.72-.25-1.32-.75-1.82-.5-.5-1.11-.75-1.82-.75s-1.32,.25-1.82,.75c-.5,.5-.75,1.11-.75,1.82V14.79h1.43c.24,0,.45,.08,.61,.25,.16,.16,.25,.37,.25,.61v3.45c0,.24-.08,.44-.24,.6-.16,.16-.36,.24-.6,.24h-.3v1.21c0,.24-.08,.45-.25,.61-.16,.16-.37,.25-.61,.25h-2.29Z"/>
</svg>