<?xml version="1.0" encoding="UTF-8"?>
<svg id="New" xmlns="http://www.w3.org/2000/svg" viewBox="0 0 24 24">
  <path fill="currentcolor" d="M10.9,11.29h2.19V4.51c0-.3-.11-.56-.32-.78-.21-.21-.47-.32-.78-.32-.3,0-.56,.11-.78,.32-.21,.21-.32,.47-.32,.78,0,0,0,6.78,0,6.78Zm-5.59,3.61h13.37v-1.89c0-.09-.03-.15-.08-.21s-.12-.08-.21-.08H5.6c-.09,0-.15,.03-.21,.08-.05,.05-.08,.12-.08,.21v1.89Zm-1.06,5.68h2.39v-2.13c0-.2,.07-.37,.2-.51,.14-.14,.3-.2,.51-.2,.2,0,.37,.07,.51,.2,.14,.14,.2,.3,.2,.51v2.13h3.22v-2.13c0-.2,.07-.37,.2-.51,.14-.14,.31-.2,.51-.2,.2,0,.37,.07,.51,.2,.14,.14,.2,.3,.2,.51v2.13h3.22v-2.13c0-.2,.07-.37,.2-.51,.14-.14,.31-.2,.51-.2,.2,0,.37,.07,.51,.2,.14,.14,.2,.3,.2,.51v2.13h2.39c.1,0,.18-.04,.24-.11,.06-.08,.08-.16,.05-.25l-1.06-3.9H5.01l-1.06,3.9c-.03,.09-.02,.17,.05,.25,.06,.08,.14,.11,.24,.11Zm15.57,1.42H4.17c-.54,0-.97-.21-1.31-.64-.34-.43-.43-.91-.29-1.43l1.31-4.87v-2.1c0-.46,.16-.85,.48-1.17,.32-.32,.71-.48,1.17-.48h3.93V4.51c0-.7,.24-1.29,.73-1.78,.49-.49,1.08-.73,1.78-.73,.7,0,1.29,.24,1.78,.73,.49,.49,.73,1.08,.73,1.78v6.78h3.93c.46,0,.85,.16,1.17,.48,.32,.32,.48,.71,.48,1.17v2.1l1.31,4.89c.17,.52,.09,.99-.25,1.42-.34,.43-.79,.64-1.35,.64Zm-1.14-9.29H5.3s13.37,0,13.37,0Zm-5.59-1.42h0Z"/>
</svg>