<?xml version="1.0" encoding="UTF-8"?>
<svg id="New" xmlns="http://www.w3.org/2000/svg" viewBox="0 0 24 24">
  <path fill="currentcolor" d="M21,20.76c-.52,0-.95-.4-.95-.9v-6.83H3.95v6.83c0,.49-.42,.9-.95,.9s-.95-.4-.95-.9v-6.94c0-.93,.8-1.68,1.78-1.68H20.17c.98,0,1.78,.75,1.78,1.68v6.94c0,.49-.42,.9-.95,.9Z"/>
  <rect fill="currentcolor" x="6.76" y="7.98" width="1.42" height="4.04" rx=".6" ry=".6"/>
  <path fill="currentcolor" d="M10.95,9.17H4.18c-.18,0-.35-.08-.46-.22-.11-.14-.16-.33-.12-.5l.89-3.98c.06-.27,.3-.47,.58-.47h5c.28,0,.52,.19,.58,.47l.89,3.98c.04,.18,0,.36-.12,.5-.11,.14-.28,.22-.46,.22Zm-6.03-1.19h5.29l-.62-2.79H5.55l-.62,2.79Z"/>
  <path fill="currentcolor" d="M21,17.03H3c-.41,0-.75-.34-.75-.75s.34-.75,.75-.75H21c.41,0,.75,.34,.75,.75s-.34,.75-.75,.75Z"/>
</svg>