<?xml version="1.0" encoding="UTF-8"?>
<svg id="New" xmlns="http://www.w3.org/2000/svg" viewBox="0 0 24 24">
  <path fill="currentcolor" d="M20.5,13.5v7H3.5v-7H20.5m.58-1.5H2.92c-.51,0-.92,.41-.92,.92v8.16c0,.51,.41,.92,.92,.92H21.08c.51,0,.92-.41,.92-.92V12.92c0-.51-.41-.92-.92-.92h0Z"/>
  <path fill="currentcolor" d="M15.39,9.46v2.51h-6.79v-2.51h6.79m1.02-1.5H7.58c-.26,0-.48,.21-.48,.48v4.55c0,.26,.21,.48,.48,.48h8.83c.26,0,.48-.21,.48-.48v-4.55c0-.26-.21-.48-.48-.48h0Z"/>
  <g>
    <path fill="currentcolor" d="M7.19,17.85c.31-.25,.55-.46,.73-.63s.33-.33,.45-.51c.12-.18,.18-.35,.18-.52,0-.13-.03-.23-.09-.3s-.15-.11-.27-.11-.21,.04-.28,.13c-.07,.09-.1,.22-.1,.38h-.78c0-.27,.06-.49,.17-.67,.11-.18,.25-.31,.43-.4s.38-.13,.59-.13c.37,0,.66,.1,.85,.29,.19,.19,.29,.44,.29,.75,0,.34-.11,.65-.34,.94-.23,.29-.52,.57-.88,.84h1.27v.66h-2.37v-.6c.11-.08,.16-.12,.15-.12Z"/>
    <path fill="currentcolor" d="M9.78,18v-.65l1.49-2.13h.9v2.08h.39v.7h-.39v.61h-.81v-.61h-1.58Zm1.64-1.89l-.79,1.2h.79v-1.2Z"/>
    <path fill="currentcolor" d="M14.52,14.81l-1.07,4.55h-.66l1.07-4.55h.66Z"/>
    <path fill="currentcolor" d="M16.96,15.77l-1.18,2.84h-.83l1.2-2.75h-1.47v-.69h2.28v.6Z"/>
  </g>
  <circle cx="11.99" cy="4.46" r="1.78" style="fill: none; stroke: currentcolor; stroke-linecap: round; stroke-linejoin: round; stroke-width: 1.5px;"/>
</svg>