<?xml version="1.0" encoding="UTF-8"?>
<svg id="New" xmlns="http://www.w3.org/2000/svg" viewBox="0 0 24 24">
  <path fill="currentcolor" d="M21.71,3.71c-.17-.13-.37-.18-.58-.13l-3.08,.73c-1.54-.14-7.09-1.45-8.17-1.93-1-.45-2.1-.6-3.19-.44-2.57,.36-4.64,2.5-4.92,5.08-.18,1.65,.34,3.3,1.44,4.53,.64,.72,1.46,1.26,2.36,1.59-.02,2.44,.4,4.95,1.17,7.06,.43,1.15,1.54,1.93,2.76,1.93,.9,0,1.62-.3,2.14-.9,.69-.79,.84-1.9,.77-2.42-.28-2.09-.57-4.62-.76-6.34,2.23-.61,5.36-1.33,6.39-1.43l3.1,.73c.22,.03,.43-.02,.57-.13,.16-.13,.26-.33,.26-.54V4.24c0-.21-.1-.4-.26-.53Zm-1.1,1.39v5.14l-1.83-.43V5.53l1.83-.43Zm-9.94,15.19c-.27,.31-.67,.47-1.17,.47-.66,0-1.25-.42-1.48-1.04-.69-1.88-1.08-4.1-1.09-6.28,.88,.09,2.06-.11,2.7-.36,.15-.06,.37-.13,.7-.23,.19,1.71,.47,4.12,.74,6.14,.04,.3-.04,.9-.4,1.31Zm6.74-14.7v4.15c-5.33,1.04-8.25,2.05-8.28,2.06-2.67,.92-4.33-.52-4.92-1.17-.85-.95-1.24-2.18-1.1-3.47,.21-1.94,1.8-3.57,3.76-3.89,.22-.04,.44-.05,.67-.05,.6,0,1.2,.13,1.78,.39,1.14,.51,6.05,1.68,8.09,1.98Z"/>
  <path fill="currentcolor" d="M4.14,7.67c0,1.77,1.44,3.21,3.21,3.21s3.21-1.44,3.21-3.21-1.44-3.21-3.21-3.21-3.21,1.44-3.21,3.21Zm1.36,0c0-1.02,.83-1.85,1.85-1.85s1.85,.83,1.85,1.85-.83,1.85-1.85,1.85-1.85-.83-1.85-1.85Z"/>
</svg>