<?xml version="1.0" encoding="UTF-8"?>
<svg id="New" xmlns="http://www.w3.org/2000/svg" viewBox="0 0 24 24">
  <path d="M9.45,16.21l-.93-.72-.72,2.2-.04,.09-1.52,2.94c-.29,.56,.12,1.22,.74,1.22h0c.36,0,.7-.2,.87-.53l1.45-2.78,.19-.45,.3-.89c.13-.39,0-.83-.33-1.08ZM17.81,7.09h-.13c-.49,0-.87,.39-.87,.87v.22c0,.29-.18,.56-.45,.67l-1.21,.52c-.27,.12-.58,.07-.8-.15l-1.09-1.04c-.3-.29-.67-.49-1.08-.61l-1.77-.46c-.4-.11-.82,.15-.91,.55l-1.02,4.64c-.2,.94,.15,1.9,.91,2.5l2.5,1.95c.16,.12,.25,.29,.28,.47l.63,4.09c.06,.36,.36,.62,.73,.62h.28c.45,0,.8-.4,.73-.84l-.65-4.13c-.09-.64-.43-1.2-.93-1.59l-2.49-1.94c-.22-.17-.32-.46-.26-.74l.8-3.61,.91,.25,1.15,1.12c.71,.69,1.79,.98,2.68,.55,.11-.05,.21-.07,.31-.07,.39,0,.74,.3,.74,.73v9.54c0,.4,.32,.73,.73,.73h.28c.4,0,.73-.32,.73-.73V7.83c0-.41-.32-.74-.73-.74Zm-9.67-.44c-.22-.01-.45-.01-.68,.02-.47,.09-.91,.29-1.28,.6-.76,.65-1.21,1.68-1.53,3.19-.1,.49-.07,1,.17,1.39,.24,.4,.61,.65,.93,.8,.65,.3,1.29,.36,1.64,.44l.41-1.69c-.53-.12-1.06-.21-1.31-.32-.1-.06-.13-.09-.13-.09-.02-.04-.02-.1,0-.16,.28-1.32,.68-1.96,.97-2.22,.3-.25,.55-.28,1.1-.16l.38-1.73c-.21-.04-.44-.07-.66-.08Zm7.11-3.02c-.28-.78-.96-1.38-1.77-1.57-1.88-.43-3.53,1.22-3.09,3.1,.19,.81,.8,1.49,1.58,1.77,2.08,.72,4.01-1.24,3.27-3.3Zm-2.39,2c-.62,0-1.09-.48-1.09-1.09s.48-1.09,1.09-1.09,1.09,.48,1.09,1.09-.48,1.09-1.09,1.09Z"/>
</svg>