<?xml version="1.0" encoding="UTF-8"?>
<svg id="Layer_1" data-name="Layer 1" xmlns="http://www.w3.org/2000/svg" viewBox="0 0 24 24">
  <path d="M7.56,4.89c0-.49,.4-.89,.89-.89h10.67c.45,0,.83,.33,.88,.78l1.78,14.22c.06,.49-.28,.93-.77,.99-.04,0-.07,0-.11,0H3.11c-.49,0-.89-.4-.89-.89h0c0-4.42,3.58-8,8-8h8.77l-.67-5.33H8.44c-.49,0-.89-.4-.89-.89Zm11.66,8H10.22c-3.09,0-5.72,2.27-6.16,5.33h15.82l-.67-5.33Zm-11.21,2.67c0-.49,.4-.89,.89-.89h.89c.49,0,.89,.4,.89,.89,0,.49-.4,.89-.89,.89h-.89c-.49,0-.89-.4-.89-.89h0Z"/>
</svg>