<?xml version="1.0" encoding="UTF-8"?>
<svg id="New" xmlns="http://www.w3.org/2000/svg" viewBox="0 0 24 24">
  <path fill="currentcolor" d="M16.23,4.63v-.57c0-1.2-.99-2.18-2.19-2.18h-4.11c-1.2,0-2.18,.98-2.19,2.18v.57c-1.89,.07-3.42,1.64-3.44,3.55v8.91c.02,1.95,1.61,3.54,3.56,3.55h.57v.57c0,.45,.37,.81,.82,.82h0c.45,0,.81-.36,.81-.82v-.57h3.86v.57c0,.45,.37,.81,.82,.82h0c.45,0,.81-.36,.81-.82v-.57h.57c1.95,0,3.55-1.6,3.56-3.55V8.17c-.05-1.93-1.57-3.46-3.48-3.54Zm-6.88-.55c0-.31,.26-.57,.57-.57h4.11c.31,0,.57,.26,.57,.57v.57h-5.25v-.57Zm8.69,4.09v8.91c0,1.06-.88,1.93-1.94,1.93H7.86c-1.06,0-1.94-.87-1.94-1.93V8.18c0-1.07,.88-1.93,1.94-1.93h8.25c1.06,0,1.93,.87,1.94,1.93Z"/>
  <path fill="currentcolor" d="M9.58,8.05h0c-.45,0-.81,.37-.82,.82v7.52c0,.45,.37,.81,.82,.82h0c.21,0,.42-.08,.57-.23,.16-.15,.24-.36,.24-.59v-7.52c-.01-.44-.37-.8-.82-.81Z"/>
  <path fill="currentcolor" d="M14.39,8.05h0c-.45,0-.81,.37-.82,.82v7.52c0,.45,.37,.81,.82,.82h0c.21,0,.42-.08,.57-.23,.16-.15,.24-.36,.24-.59v-7.52c-.01-.44-.37-.8-.82-.81Z"/>
</svg>