<?xml version="1.0" encoding="UTF-8"?>
<svg id="New" xmlns="http://www.w3.org/2000/svg" viewBox="0 0 24 24">
  <path d="M3.9,18.84c-.53,0-.98-.18-1.35-.55-.37-.37-.55-.82-.55-1.35V4.96c0-.53,.18-.98,.55-1.35s.82-.55,1.35-.55H20.1c.53,0,.98,.18,1.35,.55s.55,.82,.55,1.35v11.98c0,.53-.18,.98-.55,1.35-.37,.37-.82,.55-1.35,.55h-4.41v1.15c0,.27-.09,.5-.27,.68-.18,.18-.41,.27-.68,.27h-5.47c-.27,0-.5-.09-.68-.27-.18-.18-.27-.41-.27-.68v-1.15H3.9Zm0-1.58H20.1c.08,0,.16-.03,.22-.1,.07-.07,.1-.14,.1-.22V4.96c0-.08-.03-.16-.1-.22-.07-.07-.14-.1-.22-.1H3.9c-.08,0-.16,.03-.22,.1-.07,.07-.1,.14-.1,.22v11.98c0,.08,.03,.16,.1,.22,.07,.07,.14,.1,.22,.1Zm-.32,0v0Z"/>
</svg>