<?xml version="1.0" encoding="UTF-8"?>
<svg id="New" xmlns="http://www.w3.org/2000/svg" viewBox="0 0 24 24">
  <path fill="currentcolor" d="M17.75,11.67c2.09,0,3.79-1.7,3.79-3.79s-1.7-3.79-3.79-3.79c-2.09,0-3.79,1.7-3.79,3.79s1.7,3.79,3.79,3.79Zm-1.96-3.79c0-1.08,.88-1.96,1.96-1.96s1.96,.88,1.96,1.96-.88,1.96-1.96,1.96-1.96-.88-1.96-1.96Z"/>
  <path fill="currentcolor" d="M8.34,11.67c2.67,0,4.84-2.17,4.84-4.84s-2.17-4.84-4.84-4.84S3.5,4.17,3.5,6.84s2.17,4.84,4.84,4.84Zm-3.01-4.84c0-1.66,1.35-3.01,3.01-3.01s3.01,1.35,3.01,3.01-1.35,3.01-3.01,3.01-3.01-1.35-3.01-3.01Z"/>
  <path fill="currentcolor" d="M22.58,15.56c-.08-1.15-1.06-2.06-2.22-2.06h-5.28l.32,.38c.31,.39,.51,.85,.6,1.34l.02,.11h4.33s.08,0,.08,0c.19,.03,.32,.2,.32,.38v1.25c-.15,1.93-2.33,2.23-3.25,2.27h-.28c-.46,0-.92-.05-1.37-.15l-.11-.02-.04,.1c-.19,.5-.47,.95-.82,1.35l-.13,.15,.19,.06c.73,.23,1.49,.34,2.26,.34h.02c2.47,0,5.36-1.13,5.36-4.31v-1.21Z"/>
  <path fill="currentcolor" d="M15.27,15.72v-.16c-.09-1.15-1.07-2.06-2.22-2.06H3.64s-.17,0-.17,0c-1.15,.09-2.06,1.06-2.06,2.22v1.82c.17,3.38,3.69,4.59,6.93,4.59s6.93-1.27,6.93-4.84v-1.57Zm-3.24,3.8c-.84,.45-2.06,.73-3.36,.77h-.33s-.33,0-.33,0c-1.3-.04-2.52-.32-3.36-.77-.96-.52-1.41-1.23-1.41-2.23v-1.56s0-.09,0-.09c.02-.07,.05-.14,.11-.2s.12-.09,.19-.1h.1s9.39-.01,9.39-.01h.08c.19,.04,.32,.2,.32,.39v1.75c-.06,.91-.5,1.56-1.41,2.04Z"/>
</svg>