<?xml version="1.0" encoding="UTF-8"?>
<svg id="New" xmlns="http://www.w3.org/2000/svg" viewBox="0 0 24 24">
  <path d="M3.18,22c-.25,0-.46-.08-.63-.25s-.25-.38-.25-.63,.08-.46,.25-.63c.17-.17,.38-.25,.63-.25h1.47V3.06c0-.3,.1-.55,.3-.76,.2-.2,.45-.31,.75-.31H14.18c.3,0,.55,.1,.75,.31,.2,.2,.3,.46,.3,.76v.11h3.05c.3,0,.55,.1,.76,.31,.2,.2,.31,.46,.31,.76v16h1.47c.25,0,.46,.08,.63,.25,.17,.17,.25,.38,.25,.63s-.08,.46-.25,.63c-.17,.17-.38,.25-.63,.25h-2.17c-.31,0-.56-.1-.76-.31-.2-.2-.3-.46-.3-.76V4.94h-2.35v16c0,.3-.1,.55-.31,.76-.2,.2-.46,.31-.76,.31H3.18ZM6.41,3.76v0Zm5.75,8.24c0-.29-.1-.53-.3-.74-.2-.2-.45-.3-.74-.3-.29,0-.53,.1-.74,.3-.2,.2-.3,.45-.3,.74,0,.29,.1,.53,.3,.74,.2,.2,.45,.3,.74,.3s.53-.1,.74-.3c.2-.2,.3-.45,.3-.74Zm-5.75,8.24h7.06V3.76H6.41V20.24Z"/>
</svg>