<?xml version="1.0" encoding="UTF-8"?>
<svg id="New" xmlns="http://www.w3.org/2000/svg" viewBox="0 0 24 24">
  <path d="M11.91,2c-3.77,0-6.82,3.05-6.82,6.82,0,.47,.05,.92,.14,1.36h-.95c-.04-.25-.08-.49-.1-.74-.03-.35-.32-.62-.68-.62-.4,0-.72,.34-.68,.74,.36,4.44,3.94,7.98,8.41,8.32v2.76h-3.18c-.38,0-.68,.31-.68,.68s.31,.68,.68,.68h7.73c.38,0,.68-.31,.68-.68s-.31-.68-.68-.68h-3.18v-2.76c4.46-.33,8.04-3.87,8.41-8.32,.03-.38-.25-.71-.63-.74-.02,0-.04,0-.05,0-.35,0-.65,.27-.68,.62-.02,.25-.05,.5-.1,.74h-.95c.09-.44,.14-.9,.14-1.36,0-3.77-3.05-6.82-6.82-6.82Zm0,1.36c3.01,0,5.45,2.45,5.45,5.45s-2.45,5.45-5.45,5.45-5.45-2.45-5.45-5.45,2.45-5.45,5.45-5.45ZM4.65,11.55h1c1.05,2.41,3.45,4.09,6.25,4.09s5.19-1.68,6.25-4.09h1c-1.11,2.92-3.94,5-7.25,5s-6.14-2.08-7.25-5Z"/>
</svg>