<?xml version="1.0" encoding="UTF-8"?>
<svg xmlns="http://www.w3.org/2000/svg" viewBox="0 0 24 24" fill='currentColor'>
  <g id="Layer_1" data-name="Layer 1">
    <path
      d="M18.73,19.39c-.22,0-.43-.08-.6-.24L6.31,7.72c-.34-.33-.35-.88-.02-1.22,.33-.34,.88-.35,1.22-.02l11.82,11.43c.34,.33,.35,.88,.02,1.22-.17,.17-.39,.26-.62,.26Z" />
  </g>
  <g id="New">
    <g>
      <rect x="3" y="11.18" width="18" height="4.25" rx="1.34" ry="1.34"
        style=" fill: none; stroke: currentColor; stroke-miterlimit: 10; stroke-width: 1.5px;" />
      <path d="M17.52,5.99s-.78,.9-.78,1.27c0,.25,.78,.46,.78,.84s-.78,1.36-.78,1.36"
        style=" fill: none; stroke: currentColor; stroke-linecap: round; stroke-linejoin: round;" />
      <path d="M19.46,5.42s-.78,.9-.78,1.27c0,.25,.78,.46,.78,.84s-.78,1.36-.78,1.36"
        style=" fill: none; stroke: currentColor; stroke-linecap: round; stroke-linejoin: round;" />
      <polygon points="9.25 11.18 8.11 11.18 8.11 15.62 9.25 15.62 9.25 11.18 9.25 11.18" />
    </g>
  </g>
</svg>