<svg id="Layer_1" data-name="Layer 1" xmlns="http://www.w3.org/2000/svg" viewBox="0 0 109.09 109.09"><path d="M21.08,42.86v41H88V42.86a4.32,4.32,0,0,1,4.31-4.31h1.16V24.48A10.9,10.9,0,0,0,82.6,13.6H26.8A10.9,10.9,0,0,0,15.92,24.48V38.55h.85A4.32,4.32,0,0,1,21.08,42.86Z" style="fill:#1f96f2"/><path d="M95,39.05H92.32a3.82,3.82,0,0,0-3.81,3.81v41h.39a5.29,5.29,0,0,1,3.46,1.28,4.27,4.27,0,0,1,.38.36,2.71,2.71,0,0,1,.35.41,5.24,5.24,0,0,1,1.14,3.28v.66H95A3.81,3.81,0,0,0,98.8,86V42.86A3.82,3.82,0,0,0,95,39.05Z" style="fill:#1f96f2"/><path d="M16.66,85.45a4.27,4.27,0,0,1,.38-.36,5.29,5.29,0,0,1,3.46-1.28h.08V42.86a3.82,3.82,0,0,0-3.81-3.81H14.1a3.82,3.82,0,0,0-3.81,3.81V86A3.81,3.81,0,0,0,14.1,89.8h1.07v-.66a5.24,5.24,0,0,1,1.14-3.28A2.71,2.71,0,0,1,16.66,85.45Z" style="fill:#1f96f2"/><path d="M92.49,85.92a3.23,3.23,0,0,0-.37-.37,4.78,4.78,0,0,0-3.22-1.24H20.5a4.78,4.78,0,0,0-3.22,1.24,3.23,3.23,0,0,0-.37.37,2.65,2.65,0,0,0-.33.42,4.71,4.71,0,0,0-.91,2.8v2.51a4.83,4.83,0,0,0,4.83,4.83H88.9a4.83,4.83,0,0,0,4.83-4.83V89.14a4.71,4.71,0,0,0-.91-2.8A2.65,2.65,0,0,0,92.49,85.92Z" style="fill:#1f96f2"/></svg>