<?xml version="1.0" encoding="UTF-8"?>
<svg id="New" xmlns="http://www.w3.org/2000/svg" viewBox="0 0 24 24">
  <path fill="currentcolor" d="M12,4c4.41,0,8,3.59,8,8s-3.59,8-8,8-8-3.59-8-8,3.59-8,8-8m0-2C6.48,2,2,6.48,2,12s4.48,10,10,10,10-4.48,10-10S17.52,2,12,2h0Z"/>
  <g>
    <path fill="currentcolor" d="M12.01,9.75c-.43,0-.78,.35-.78,.78v5.66c0,.43,.35,.78,.78,.78s.78-.35,.78-.78v-5.66c0-.43-.35-.78-.78-.78h0Z"/>
    <path fill="currentcolor" d="M12.01,7.03c-.54,0-.94,.4-.94,.94s.39,.92,.91,.92c.28,0,.54-.1,.71-.28,.16-.17,.25-.4,.24-.65,0-.54-.39-.94-.92-.94h0Z"/>
  </g>
</svg>