<?xml version="1.0" encoding="UTF-8"?>
<svg xmlns="http://www.w3.org/2000/svg" viewBox="0 0 24 24">
  <g id="Layer_1" data-name="Layer 1">
    <path d="M3,15.79c1.5,0,1.5,1,2.99,1s1.5-1,3-1,1.5,1,3,1,1.5-1,3-1,1.5,1,3,1,1.5-1,3-1" style="fill: none; stroke: #000; stroke-linecap: round; stroke-linejoin: round; stroke-width: 1.5px;"/>
    <path d="M3,19.12c1.5,0,1.5,1,2.99,1s1.5-1,3-1,1.5,1,3,1,1.5-1,3-1,1.5,1,3,1,1.5-1,3-1" style="fill: none; stroke: #000; stroke-linecap: round; stroke-linejoin: round; stroke-width: 1.5px;"/>
  </g>
  <g id="New">
    <line x1="15.27" y1="11.18" x2="8.92" y2="11.18" style="fill: none; stroke: #000; stroke-linecap: round; stroke-linejoin: round; stroke-width: 1.33px;"/>
    <line x1="15.27" y1="7.25" x2="8.92" y2="7.25" style="fill: none; stroke: #000; stroke-linecap: round; stroke-linejoin: round; stroke-width: 1.33px;"/>
    <g>
      <path d="M8.74,15.42v-3.42s0-5.23,0-5.23c0-2.27,1.86-4.13,4.13-4.13" style="fill: none; stroke: #000; stroke-linecap: round; stroke-linejoin: round; stroke-width: 1.5px;"/>
      <path d="M19.4,2.64c-2.27,0-4.13,1.86-4.13,4.13V15.63" style="fill: none; stroke: #000; stroke-linecap: round; stroke-linejoin: round; stroke-width: 1.5px;"/>
    </g>
  </g>
</svg>