<?xml version="1.0" encoding="UTF-8"?>
<svg id="New" xmlns="http://www.w3.org/2000/svg" viewBox="0 0 24 24">
  <path fill="currentcolor" d="M19.48,3.84c.29,0,.52,.23,.52,.52v15.28c0,.29-.23,.52-.52,.52H4.52c-.29,0-.52-.23-.52-.52V4.36c0-.29,.23-.52,.52-.52h14.96m0-2H4.52c-1.39,0-2.52,1.13-2.52,2.52v15.28c0,1.39,1.13,2.52,2.52,2.52h14.96c1.39,0,2.52-1.13,2.52-2.52V4.36c0-1.39-1.13-2.52-2.52-2.52h0Z"/>
  <path fill="currentcolor" d="M12,6.29h-2.86c-.52,0-.95,.43-.95,.95v9.52c0,.53,.43,.95,.95,.95s.95-.42,.95-.95v-2.86h1.9c2.1,0,3.81-1.7,3.81-3.81s-1.7-3.81-3.81-3.81Zm0,5.71h-1.9v-3.81h1.9c1.06,0,1.9,.86,1.9,1.91s-.85,1.89-1.9,1.89Z"/>
</svg>