<?xml version="1.0" encoding="UTF-8"?>
<svg id="New" xmlns="http://www.w3.org/2000/svg" viewBox="0 0 24 24">
  <path d="M1.14,18.4v-6.09c0-.72,.26-1.34,.77-1.84,.51-.5,1.13-.76,1.85-.76h.28v-3.9c0-.72,.26-1.34,.77-1.85,.51-.51,1.13-.77,1.85-.77h10.69c.72,0,1.34,.26,1.85,.77,.51,.51,.77,1.13,.77,1.85v3.9h.28c.72,0,1.34,.26,1.85,.77,.51,.51,.77,1.13,.77,1.85v6.07h-1.59l-.58,2.35c-.05,.16-.15,.29-.28,.39-.13,.1-.28,.15-.44,.15-.18,0-.33-.06-.46-.17-.13-.12-.22-.25-.27-.41l-.58-2.31H5.34l-.58,2.35c-.05,.16-.15,.29-.28,.39-.13,.1-.28,.15-.44,.15-.18,0-.33-.06-.46-.17-.13-.12-.22-.25-.27-.41l-.58-2.31H1.14ZM13.09,9.72h4.71v-3.9c0-.13-.04-.24-.13-.32s-.19-.13-.32-.13h-4.26v4.34Zm-6.88,0h4.71V5.37H6.65c-.13,0-.24,.04-.32,.13-.08,.08-.13,.19-.13,.32v3.9Zm-2.9,6.52H20.69v-3.9c0-.13-.04-.24-.13-.32s-.19-.13-.32-.13H3.76c-.13,0-.24,.04-.32,.13-.08,.08-.13,.19-.13,.32v3.9Zm17.38,0h0Z"/>
</svg>