<?xml version="1.0" encoding="UTF-8"?>
<svg id="New" xmlns="http://www.w3.org/2000/svg" viewBox="0 0 24 24">
  <path d="M9.97,8.85L4.67,3.55l.02-.02,3.61-.03s0,0,.01,0h.52c.41,0,.75-.34,.75-.75s-.34-.75-.75-.75H2.48c-.28,0-.38,.14-.4,.15-.1,.1-.14,.24-.15,.4l.07,5.71s0,0,0,0v.54c0,.43,.34,.77,.77,.77s.77-.34,.77-.77v-.54s0-.02,0-.04c0,0,0,0,0,0l.07-3.58,5.26,5.3c.31,.28,.79,.28,1.08-.02s.31-.79,.02-1.08Z"/>
  <path d="M13.96,8.85l5.3-5.3-.02-.02-3.61-.03s0,0-.01,0h-.52c-.41,0-.75-.34-.75-.75,0-.41,.34-.75,.75-.75h.52s5.83,0,5.83,0c.28,0,.38,.14,.4,.15,.1,.1,.14,.24,.15,.4l-.07,5.71s0,0,0,0v.54c0,.43-.34,.77-.77,.77s-.77-.34-.77-.77v-.54s0-.02,0-.04c0,0,0,0,0,0l-.07-3.58-5.26,5.3c-.31,.28-.79,.28-1.08-.02s-.31-.79-.02-1.08Z"/>
  <path d="M13.96,15.15l5.3,5.3-.02,.02-3.61,.03s0,0-.01,0h-.52c-.41,0-.75,.34-.75,.75s.34,.75,.75,.75h.52s5.83,0,5.83,0c.28,0,.38-.14,.4-.15,.1-.1,.14-.24,.15-.4l-.07-5.71s0,0,0,0v-.54c0-.43-.34-.77-.77-.77s-.77,.34-.77,.77v.54s0,.02,0,.04c0,0,0,0,0,0l-.07,3.58-5.26-5.3c-.31-.28-.79-.28-1.08,.02s-.31,.79-.02,1.08Z"/>
  <path d="M9.97,15.15l-5.3,5.3,.02,.02,3.61,.03s0,0,.01,0h.52c.41,0,.75,.34,.75,.75s-.34,.75-.75,.75H2.48c-.28,0-.38-.14-.4-.15-.1-.1-.14-.24-.15-.4l.07-5.71s0,0,0,0v-.54c0-.43,.34-.77,.77-.77s.77,.34,.77,.77v.54s0,.02,0,.04c0,0,0,0,0,0l.07,3.58,5.26-5.3c.31-.28,.79-.28,1.08,.02s.31,.79,.02,1.08Z"/>
</svg>