<?xml version="1.0" encoding="UTF-8"?>
<svg id="New" xmlns="http://www.w3.org/2000/svg" viewBox="0 0 24 24">
  <path d="M6.43,12.25c0-4.12,2.24-7.73,5.57-9.61,3.33,1.89,5.57,5.5,5.57,9.61" style="fill: none; stroke: #000; stroke-linecap: round; stroke-linejoin: round; stroke-width: 1.64px;"/>
  <g>
    <path d="M4.46,12.94h0c1.73,0,3.37,.68,4.6,1.91,1.42,1.42,2.09,3.4,1.87,5.35-.25,.03-.5,.04-.75,.04-1.73,0-3.37-.68-4.6-1.91-1.42-1.42-2.09-3.4-1.87-5.35,.25-.03,.5-.04,.75-.04m0-1.64c-.72,0-1.44,.1-2.14,.29-.75,2.71-.04,5.76,2.1,7.89,1.59,1.59,3.68,2.39,5.76,2.39,.72,0,1.44-.1,2.14-.29,.75-2.71,.04-5.76-2.1-7.89-1.59-1.59-3.68-2.39-5.76-2.39h0Z"/>
    <path d="M19.58,13.09h0c.24,0,.48,.01,.72,.04,.22,1.91-.45,3.84-1.83,5.23-1.21,1.21-2.81,1.87-4.52,1.87-.24,0-.48-.01-.72-.04-.22-1.91,.45-3.84,1.83-5.23,1.21-1.21,2.81-1.87,4.52-1.88m0-1.64c-2.05,0-4.11,.79-5.67,2.35-2.11,2.11-2.81,5.11-2.07,7.78,.69,.19,1.4,.28,2.11,.28,2.05,0,4.11-.79,5.67-2.35,2.11-2.11,2.81-5.11,2.07-7.78-.69-.19-1.4-.28-2.11-.28h0Z"/>
  </g>
</svg>