<?xml version="1.0" encoding="UTF-8"?>
<svg id="Layer_1" data-name="Layer 1" xmlns="http://www.w3.org/2000/svg" viewBox="0 0 24 24">
  <path fill="currentcolor" d="M14.09,1.83c-.38,0-.68,.32-.68,.7v2.06H7.92v-.69c0-.38-.31-.69-.69-.69s-.69,.31-.69,.69v.69h-1.14c-1.36,0-2.52,1.11-2.52,2.52,0,.63,.12,1.74,.23,2.76,.11,1.02,.23,1.9,.23,1.9,.04,.34,.34,.6,.68,.6h1.14v.69c0,.38,.31,.69,.69,.69s.69-.31,.69-.69v-.69h1.14c.32,0,.59-.21,.67-.52l.28-1.14c.02-.1,.12-.18,.22-.17h2.42c.34,0,.62,.23,.67,.54,.03,.17,.08,1.09,.08,1.52s-.05,1.35-.08,1.52c-.05,.31-.34,.54-.67,.54H4.49c-1.38,0-2.52,1.14-2.52,2.52v2.29c0,.88,.73,1.6,1.6,1.6h.97v.46c0,.25,.21,.46,.46,.46h1.37c.25,0,.46-.21,.46-.46v-.46H15.99v.46c0,.25,.21,.46,.46,.46h1.37c.25,0,.46-.21,.46-.46v-.46h.87c.88,0,1.6-.73,1.6-1.6V11.23h.69c.88,0,1.6-.73,1.6-1.6v-1.37c0-.88-.73-1.6-1.6-1.6h-.73c-.22-1.17-1.25-2.06-2.47-2.06v-1.14c0-.38-.31-.69-.69-.69s-.69,.31-.69,.69v1.14h-2.06V2.52c0-.38-.3-.69-.68-.7,0,0-.01,0-.02,0ZM5.4,5.96h1.72c.07,.01,.15,.01,.22,0h6.65c.07,.01,.15,.01,.22,0h4.01c.64,0,1.14,.5,1.14,1.14v12.36c0,.14-.09,.23-.23,.23H3.57c-.12,0-.22-.09-.23-.21,0,0,0-.01,0-.02v-2.29c0-.64,.5-1.14,1.14-1.14h6.8c.98,0,1.85-.7,2.03-1.68,.08-.47,.1-1.25,.1-1.75s-.02-1.28-.1-1.75c-.17-.98-1.04-1.68-2.03-1.68h-2.42c-.73,0-1.37,.5-1.55,1.21l-.15,.62h-2.52c-.04-.33-.08-.6-.16-1.28-.11-1.01-.22-2.18-.22-2.61,0-.7,.48-1.14,1.14-1.14Zm10.99,1.83c-.63,0-1.14,.51-1.14,1.15,0,.63,.51,1.14,1.14,1.14,.63,0,1.14-.51,1.14-1.15,0-.63-.51-1.14-1.14-1.14Zm4.35,.23h.69c.14,0,.23,.09,.23,.23v1.37c0,.14-.09,.23-.23,.23h-.69s0-1.83,0-1.83Zm-4.35,4.35c-.63,0-1.19,.26-1.54,.66-.35,.4-.52,.9-.52,1.4s.16,1,.52,1.4c.35,.4,.91,.66,1.54,.66s1.19-.26,1.54-.66c.35-.4,.52-.9,.52-1.4s-.16-1-.52-1.4c-.35-.4-.91-.66-1.54-.66Zm0,1.37c.29,0,.41,.08,.52,.2,.1,.12,.17,.3,.17,.49s-.07,.37-.17,.49c-.1,.12-.23,.2-.52,.2s-.41-.08-.52-.2c-.1-.12-.17-.3-.17-.49s.07-.37,.17-.49c.1-.12,.23-.2,.52-.2Z"/>
</svg>