<?xml version="1.0" encoding="UTF-8"?>
<svg id="New" xmlns="http://www.w3.org/2000/svg" viewBox="0 0 24 24">
  <path d="M15.47,8.36c-.41,0-.77-.15-1.06-.44-.29-.29-.44-.65-.44-1.06s.15-.77,.44-1.06c.29-.29,.65-.44,1.06-.44s.77,.15,1.06,.44c.29,.29,.44,.65,.44,1.06s-.15,.77-.44,1.06c-.29,.29-.65,.44-1.06,.44Zm4.66,.09c-.49,0-.9-.17-1.24-.51-.34-.34-.51-.75-.51-1.24s.17-.9,.51-1.24c.34-.34,.75-.51,1.24-.51,.49,0,.9,.17,1.24,.51,.34,.34,.51,.75,.51,1.24s-.17,.9-.51,1.24c-.34,.34-.75,.51-1.24,.51Zm-3.01-3.88c-.35,0-.64-.12-.89-.36s-.37-.54-.37-.88,.12-.64,.36-.89c.24-.24,.54-.37,.88-.37,.35,0,.64,.12,.89,.36,.24,.24,.37,.54,.37,.88s-.12,.64-.36,.89c-.24,.24-.54,.37-.88,.37ZM5.87,21.94c-1.04,0-1.92-.35-2.65-1.04-.73-.69-1.1-1.56-1.1-2.59v-5.17c0-.47,.11-.91,.33-1.32,.22-.4,.53-.74,.93-1l7.72-5c.13-.08,.28-.12,.44-.11,.16,.01,.3,.08,.41,.2,.29,.29,.44,.62,.46,.99s-.08,.73-.29,1.07l-1.41,2.32h7.66c.21,0,.39,.07,.53,.22,.14,.14,.22,.32,.22,.53s-.07,.39-.22,.53c-.14,.14-.32,.22-.53,.22H9.64c-.35,0-.61-.15-.79-.46-.18-.31-.18-.61,.02-.91l1.36-2.25-6.03,3.91c-.18,.11-.32,.26-.42,.45-.1,.19-.15,.39-.15,.62v5.17c0,.62,.22,1.13,.66,1.53,.44,.4,.97,.6,1.59,.6h11.5c.21,0,.39,.07,.53,.22,.14,.14,.22,.32,.22,.53s-.07,.39-.22,.53c-.14,.14-.32,.22-.53,.22H5.87Zm14.5-6.77h-7.5c-.21,0-.39-.07-.53-.22-.14-.14-.22-.32-.22-.53s.07-.39,.22-.53c.14-.14,.32-.22,.53-.22h7.5c.21,0,.39,.07,.53,.22,.14,.14,.22,.32,.22,.53s-.07,.39-.22,.53c-.14,.14-.32,.22-.53,.22Zm-1,3.38h-6.5c-.21,0-.39-.07-.53-.22-.14-.14-.22-.32-.22-.53s.07-.39,.22-.53,.32-.22,.53-.22h6.5c.21,0,.39,.07,.53,.22,.14,.14,.22,.32,.22,.53s-.07,.39-.22,.53-.32,.22-.53,.22Z"/>
</svg>