<?xml version="1.0" encoding="UTF-8"?>
<svg id="Layer_1" data-name="Layer 1" xmlns="http://www.w3.org/2000/svg" viewBox="0 0 24 24">
  <path d="M12.01,11.29c0-2.25,1.64-4.11,3.79-4.46-.23-2.09-2.12-3.6-4.21-3.37-1.93,.21-3.39,1.84-3.39,3.78v14.05c0,.39-.32,.71-.71,.71s-.71-.32-.71-.71V7.24c0-2.89,2.35-5.24,5.24-5.24s5.01,2.12,5.22,4.82c2.17,.34,3.83,2.21,3.83,4.47h.24c.39,0,.71,.32,.71,.71s-.32,.71-.71,.71H11.77c-.39,0-.71-.32-.71-.71s.32-.71,.71-.71h.24Zm1.43,0h6.19c0-1.71-1.39-3.1-3.1-3.1s-3.1,1.39-3.1,3.1h0Zm.24,1.9c.39,0,.71,.32,.71,.71v1.43c0,.39-.32,.71-.71,.71s-.71-.32-.71-.71v-1.43c0-.39,.32-.71,.71-.71Zm2.86,0c.39,0,.71,.32,.71,.71v1.43c0,.39-.32,.71-.71,.71s-.71-.32-.71-.71v-1.43c0-.39,.32-.71,.71-.71Zm2.86,0c.39,0,.71,.32,.71,.71v1.43c0,.39-.32,.71-.71,.71s-.71-.32-.71-.71v-1.43c0-.39,.32-.71,.71-.71Z"/>
</svg>