<?xml version="1.0" encoding="UTF-8"?>
<svg id="Layer_1" data-name="Layer 1" xmlns="http://www.w3.org/2000/svg" viewBox="0 0 24 24">
  <path d="M17.44,2.68c0-.43-.35-.78-.78-.78s-.78,.35-.78,.78h-.78c0-.43-.35-.78-.78-.78s-.78,.35-.78,.78h-.78c0-.43-.35-.78-.78-.78s-.78,.35-.78,.78h-.78c0-.43-.35-.78-.78-.78s-.78,.35-.78,.78h-.78c0-.43-.35-.78-.78-.78s-.78,.35-.78,.78c-.43,0-.78,.35-.78,.78v4.66c0,.43,.35,.78,.78,.78h1.01c1.21,3.53,.56,7.6,.55,7.64,0,.04-.01,.08-.01,.13,0,2.57,1.66,5.44,3.88,5.44s3.88-2.87,3.88-5.44c0-.04,0-.09-.01-.13,0-.04-.66-4.1,.55-7.64h1.01c.43,0,.78-.35,.78-.78V3.45c0-.43-.35-.78-.78-.78Zm-.78,1.55v3.11H7.34v-3.11h9.32Zm-2.33,12.49c-.02,1.87-1.21,3.83-2.33,3.83s-2.31-1.96-2.33-3.83c.09-.57,.59-4.28-.46-7.83h5.59c-1.05,3.54-.55,7.26-.46,7.83Z"/>
  <path d="M9.67,6.56h4.66c.43,0,.78-.35,.78-.78s-.35-.78-.78-.78h-4.66c-.43,0-.78,.35-.78,.78s.35,.78,.78,.78Zm2.33,3.88c-.43,0-.78,.35-.78,.78v1.55c0,.43,.35,.78,.78,.78s.78-.35,.78-.78v-1.55c0-.43-.35-.78-.78-.78Z"/>
</svg>