<?xml version="1.0" encoding="UTF-8"?>
<svg id="New" xmlns="http://www.w3.org/2000/svg" viewBox="0 0 24 24">
  <path d="M5.02,20.17c-.21,0-.39-.07-.53-.22-.14-.14-.22-.32-.22-.53v-1h-.27c-.7,0-1.29-.24-1.77-.73-.48-.48-.73-1.08-.73-1.77v-5c0-.74,.25-1.34,.75-1.8,.5-.46,1.08-.7,1.75-.7v-1.81c0-.7,.24-1.29,.73-1.77s1.08-.73,1.77-.73h11c.7,0,1.29,.24,1.77,.73,.48,.48,.73,1.08,.73,1.77v1.81c.69,0,1.27,.24,1.76,.71,.49,.47,.74,1.07,.74,1.79v5c0,.7-.24,1.29-.73,1.77-.48,.48-1.08,.73-1.77,.73h-.27v1c0,.21-.07,.39-.21,.53-.14,.14-.31,.22-.52,.22s-.39-.07-.53-.22c-.14-.14-.22-.32-.22-.53v-1H5.77v1c0,.21-.07,.39-.22,.53-.14,.14-.32,.22-.53,.22Zm-1.02-3.25H20c.28,0,.52-.1,.71-.29,.19-.19,.29-.43,.29-.71v-5c0-.28-.1-.52-.29-.71s-.43-.29-.71-.29-.52,.1-.71,.29-.29,.43-.29,.71v3.75H5v-3.75c0-.28-.1-.52-.29-.71s-.43-.29-.71-.29-.52,.1-.71,.29c-.19,.19-.29,.43-.29,.71v5c0,.28,.1,.52,.29,.71,.19,.19,.43,.29,.71,.29Zm2.5-3.75h11v-2.25c0-.41,.09-.78,.28-1.11,.18-.33,.43-.61,.73-.84v-2.36c0-.28-.1-.52-.29-.71-.19-.19-.43-.29-.71-.29H6.5c-.28,0-.52,.1-.71,.29-.19,.19-.29,.43-.29,.71v2.36c.3,.23,.54,.51,.73,.84,.18,.33,.28,.7,.28,1.11v2.25Z"/>
</svg>