<?xml version="1.0" encoding="UTF-8"?>
<svg id="New" xmlns="http://www.w3.org/2000/svg" viewBox="0 0 24 24">
  <path fill="currentcolor" d="M10.32,10.02c.17-.93,.29-1.92,.24-2.95-.12-2.37-.27-5.06-2.93-5.06h-.13c-1.65,0-4.68,2.41-4.68,6.32,0,1.72,.16,2.68,.38,3.45-.23,.59-.38,1.2-.38,1.86,0,1.68,.87,2.27,1.61,2.66,.03,.47,.01,.88,0,1.26-.02,.46-.04,.94,.03,1.47,.19,1.44,1.18,2.98,2.89,2.98,.07,0,.14,0,.2,0,.94-.07,1.8-.48,2.36-1.13,.47-.54,.71-1.25,.65-1.96-.04-.57-.19-1.24-.35-2-.04-.2-.09-.4-.13-.6,.82-.77,1.3-1.86,1.3-3.07,0-1.31-.47-2.31-1.06-3.21Zm-.97,8.97c.03,.4-.09,.77-.36,1.08-.35,.41-.91,.67-1.53,.72h-.11c-.99,0-1.57-.97-1.7-1.93-.06-.41-.04-.8-.02-1.26,0-.17,.01-.36,.02-.55,.07,.03,.14,.04,.22,.04,.16,0,.31-.06,.42-.17,.24-.23,.25-.61,.01-.86-.23-.23-.47-.38-.72-.52-.06-.49-.17-1.03-.35-1.67-.18-.62-.37-1.09-.52-1.48-.08-.19-.15-.38-.22-.57,.51-1.04,1.34-2,2.06-2.83,.32-.36,.62-.71,.88-1.04,.36,.64,.77,1.19,1.17,1.73,.15,.2,.3,.4,.44,.6-.04,.2-.08,.4-.12,.6-.18,.91-.38,1.85-.39,2.73,0,.72,.09,1.45,.22,2.17-.09,.05-.18,.11-.27,.15-.21,.1-.35,.31-.35,.55,0,.33,.27,.6,.61,.6,.09,0,.17-.02,.25-.06,0,0,.01,0,.02,0,.01,.05,.02,.1,.03,.15,.15,.67,.28,1.31,.32,1.8Zm.82-5.76c0,.54-.13,1.03-.36,1.46-.04-.35-.07-.71-.06-1.05,0-.52,.09-1.09,.21-1.7,.13,.39,.22,.81,.22,1.28Zm-.87-4.63c-.45-.62-.89-1.27-1.19-2.03v-.69c0-.33-.27-.6-.6-.6s-.61,.27-.61,.6v.67c-.2,.43-.7,1.02-1.26,1.66-.5,.57-1.05,1.21-1.53,1.9-.05-.48-.08-1.05-.08-1.78,0-3.12,2.28-5.11,3.48-5.11h.11c1.39,0,1.59,1.19,1.74,3.92,.03,.5,0,.98-.05,1.46Z"/>
  <path fill="currentcolor" d="M21.18,8.32c0-3.91-3.03-6.31-4.67-6.32h-.14c-2.66,0-2.81,2.81-2.93,5.06-.05,1.03,.07,2.02,.24,2.95-.59,.9-1.06,1.9-1.06,3.21,0,1.21,.48,2.3,1.3,3.07-.04,.21-.09,.42-.13,.62-.16,.72-.31,1.4-.35,1.98-.06,.71,.18,1.43,.65,1.96,.56,.65,1.42,1.07,2.36,1.14,.07,0,.14,0,.2,0,1.71,0,2.7-1.54,2.89-2.98,.07-.52,.05-1,.03-1.48-.02-.38-.03-.78,0-1.25,.74-.39,1.61-.98,1.61-2.67,0-.66-.15-1.27-.38-1.86,.23-.76,.38-1.73,.38-3.45Zm-6.21,8.84s.02-.09,.03-.13c0,0,.01,0,.02,0,.08,.04,.16,.06,.25,.06h0c.23,0,.45-.14,.54-.35,.14-.3,0-.66-.29-.81-.1-.04-.18-.1-.27-.15,.13-.71,.23-1.44,.22-2.17-.01-.87-.2-1.78-.39-2.74-.04-.2-.08-.39-.12-.59,.14-.2,.29-.39,.44-.6,.4-.54,.82-1.1,1.17-1.73,.26,.33,.56,.68,.88,1.04,.72,.83,1.55,1.79,2.06,2.83-.07,.2-.14,.39-.22,.59-.16,.4-.34,.86-.51,1.46-.18,.63-.29,1.18-.35,1.67-.25,.14-.5,.3-.72,.52-.23,.24-.23,.6,0,.84,.11,.12,.27,.18,.43,.18,.07,0,.15-.02,.21-.04,0,.19,.01,.38,.02,.56,.02,.43,.04,.83-.02,1.25-.13,.93-.71,1.93-1.7,1.93h-.11c-.62-.05-1.18-.31-1.53-.72-.26-.29-.39-.69-.36-1.08,.04-.51,.18-1.17,.33-1.82Zm1.41-13.95h.11c1.19,0,3.48,1.99,3.48,5.11,0,.74-.03,1.3-.08,1.78-.48-.69-1.03-1.33-1.54-1.91-.55-.62-1.05-1.21-1.25-1.65v-.68c0-.33-.27-.6-.6-.6s-.61,.27-.61,.6v.69c-.3,.76-.73,1.41-1.19,2.03-.05-.48-.08-.97-.05-1.46,.14-2.73,.35-3.92,1.74-3.92Zm-2.34,8.73c.11,.6,.2,1.17,.21,1.7,0,.34-.02,.69-.06,1.05-.23-.43-.36-.93-.36-1.46,0-.47,.08-.89,.22-1.28Z"/>
</svg>