<?xml version="1.0" encoding="UTF-8"?>
<svg id="New" xmlns="http://www.w3.org/2000/svg" viewBox="0 0 24 24">
  <path fill="currentcolor" d="M14.61,21.58c-.19,.02-.35-.04-.48-.18-.13-.14-.2-.3-.2-.48,0-.17,.06-.32,.18-.44,.12-.13,.27-.2,.45-.22,1.46-.15,2.71-.73,3.73-1.76,1.02-1.03,1.61-2.27,1.75-3.73,.02-.18,.09-.33,.21-.45,.12-.12,.28-.18,.45-.18,.19,0,.35,.07,.48,.2,.14,.13,.19,.29,.18,.48-.15,1.81-.87,3.35-2.15,4.62-1.28,1.28-2.82,1.99-4.62,2.15Zm.07-3.3c-.2,.05-.37,0-.52-.13-.15-.14-.22-.32-.22-.53,0-.15,.05-.29,.16-.4,.11-.12,.24-.2,.4-.25,.58-.1,1.08-.36,1.49-.77,.41-.41,.67-.91,.77-1.49,.05-.16,.13-.29,.25-.4,.12-.11,.25-.16,.4-.16,.21,0,.39,.07,.53,.22,.14,.15,.18,.32,.13,.52-.15,.87-.53,1.62-1.16,2.25-.63,.63-1.38,1.01-2.25,1.16Zm-8.14,2.54c-.2,0-.39-.04-.58-.11-.19-.07-.36-.18-.52-.33l-3.12-3.12c-.14-.15-.25-.33-.33-.52-.07-.19-.11-.39-.11-.58,0-.21,.04-.4,.11-.59,.07-.18,.18-.35,.33-.49l2.63-2.63c.3-.3,.66-.45,1.1-.45,.43,0,.8,.14,1.1,.44l1.19,1.19,.93-.93-1.19-1.19c-.3-.3-.45-.66-.45-1.08s.15-.79,.45-1.08l1.08-1.08c.3-.3,.66-.45,1.09-.45s.79,.15,1.09,.45l1.19,1.19,.93-.93-1.19-1.19c-.3-.3-.45-.66-.45-1.09s.15-.79,.45-1.09l2.63-2.63c.15-.15,.32-.27,.51-.35,.19-.08,.38-.12,.58-.12s.39,.04,.58,.11c.19,.07,.36,.19,.51,.34l3.12,3.12c.15,.14,.26,.31,.33,.5,.07,.19,.1,.38,.1,.59s-.03,.39-.1,.58c-.07,.19-.18,.36-.33,.52l-2.63,2.63c-.3,.3-.66,.45-1.09,.45s-.79-.15-1.09-.45l-1.19-1.19-.93,.93,1.19,1.19c.3,.3,.44,.66,.44,1.09,0,.43-.16,.79-.45,1.09l-1.06,1.06c-.3,.3-.66,.45-1.09,.45-.43,0-.79-.14-1.09-.44l-1.19-1.19-.93,.93,1.19,1.19c.3,.3,.44,.66,.44,1.1,0,.43-.16,.8-.45,1.1l-2.63,2.63c-.14,.14-.31,.25-.49,.33-.18,.07-.38,.11-.59,.11Zm-.14-1.35s.09,.06,.14,.06,.1-.02,.14-.06l.95-.95-3.44-3.44-.95,.95s-.06,.09-.06,.14,.02,.1,.06,.14l3.15,3.15Zm1.99-1.71l.95-.95s.06-.09,.06-.14c0-.06-.02-.1-.06-.14l-3.15-3.15s-.09-.06-.14-.06c-.06,0-.1,.02-.14,.06l-.95,.95,3.44,3.44Zm3.75-4.05s.09,.06,.14,.06c.06,0,.1-.02,.14-.06l1.1-1.1s.06-.09,.06-.14-.02-.1-.06-.14l-3.15-3.15s-.09-.06-.14-.06-.1,.02-.14,.06l-1.1,1.1s-.06,.09-.06,.14c0,.06,.02,.1,.06,.14l3.15,3.15Zm4.19-4.2s.09,.06,.14,.06,.1-.02,.14-.06l.95-.95-3.44-3.44-.95,.95s-.06,.09-.06,.14,.02,.1,.06,.14l3.15,3.15Zm2-1.7l.95-.95s.06-.09,.06-.14-.02-.1-.06-.14l-3.15-3.15s-.09-.06-.14-.06-.1,.02-.14,.06l-.95,.95,3.44,3.44Z"/>
</svg>