<?xml version="1.0" encoding="UTF-8"?>
<svg id="New" xmlns="http://www.w3.org/2000/svg" viewBox="0 0 24 24">
  <path fill="currentcolor" d="M7.47,22.13c-.49,0-.9-.17-1.24-.51-.34-.34-.51-.75-.51-1.24V3.61c0-.49,.17-.9,.51-1.24,.34-.34,.75-.51,1.24-.51h9.06c.49,0,.9,.17,1.24,.51s.51,.75,.51,1.24V20.39c0,.49-.17,.9-.51,1.24-.34,.34-.75,.51-1.24,.51H7.47Zm-.3-2.65v.91c0,.07,.03,.14,.09,.2,.06,.06,.13,.09,.2,.09h9.06c.07,0,.14-.03,.2-.09,.06-.06,.09-.13,.09-.2v-.91H7.18Zm0-1.45h9.65V5.97H7.18v12.06Zm0-13.51h9.65v-.91c0-.07-.03-.14-.09-.2-.06-.06-.13-.09-.2-.09H7.47c-.07,0-.14,.03-.2,.09-.06,.06-.09,.13-.09,.2v.91Zm0,0v0h0Zm0,14.96v0h0Z"/>
</svg>