<?xml version="1.0" encoding="UTF-8"?>
<svg id="New" xmlns="http://www.w3.org/2000/svg" viewBox="0 0 24 24">
  <path fill="currentcolor" d="M20.73,14.6c1.46-.52,2.41-1.85,2.41-3.38s-.7-2.66-2.07-3.34l-.98-.5c-.96-.49-1.92-.97-2.89-1.43-3.26-1.55-6.58-1.62-9.85-.22-1.15,.49-2.28,1.07-3.37,1.63-.42,.22-.84,.43-1.26,.64-.21,.1-.42,.25-.65,.45-.96,.84-1.39,2.18-1.12,3.48,.27,1.3,1.19,2.32,2.46,2.72,.23,.07,.46,.15,.7,.23l.06,.02c-.48,.63-.8,1.33-.96,2.08-.06,.27,0,.53,.17,.71,.16,.18,.41,.25,.68,.22,.37-.06,.65,.06,.84,.35,.42,.63,1.14,1.01,1.93,1.01h0c.8,0,1.53-.38,1.95-1.02,.15-.23,.37-.36,.63-.37,.25-.02,.53,.13,.72,.37,.49,.65,1.18,1.03,1.91,1.03s1.43-.38,1.92-1.03c.18-.24,.43-.37,.69-.37,0,0,.01,0,.02,0,.25,0,.48,.14,.64,.37,.43,.64,1.18,1.03,1.97,1.01,.79,0,1.51-.39,1.92-1.02,.17-.26,.42-.38,.76-.35,.32,.02,.56-.06,.71-.24,.15-.17,.21-.42,.15-.74-.13-.76-.43-1.44-.89-2.04l.05-.02c.26-.09,.52-.17,.77-.26Zm-2.69-.79c-1.29,0-2.58,0-3.86,0H5.74c-.07,0-.12,0-.15-.01l-.54-.17c-.46-.15-.94-.3-1.39-.48-.79-.32-1.22-.92-1.3-1.8-.06-.64,.07-1.51,.98-1.99l.51-.27c1.49-.78,3.03-1.58,4.61-2.2,2.63-1.03,5.33-.91,8.01,.35,1.36,.64,2.68,1.31,4.03,2.01,.66,.34,1.1,1,1.16,1.75,.06,.74-.26,1.44-.84,1.87-.23,.17-.51,.28-.81,.39l-.25,.1c-.31,.12-.64,.24-.99,.33-.2,.05-.47,.12-.72,.12Zm-12.28,1.5s.08,0,.12,0H15.73c.82,0,1.64,0,2.46,0,.04,0,.11,.03,.14,.05,.37,.32,.64,.7,.82,1.15-.48,.16-.89,.48-1.26,.97-.15,.2-.41,.31-.64,.31-.28,0-.54-.14-.7-.36-.46-.66-1.09-1-1.86-1.01h-.06c-.79,0-1.42,.33-1.88,.97-.19,.26-.44,.41-.71,.41h0c-.27,0-.52-.14-.7-.4-.45-.62-1.14-.98-1.89-.98h0c-.75,0-1.44,.36-1.88,.98-.19,.26-.45,.41-.72,.41h0c-.28,0-.53-.14-.72-.4-.34-.45-.59-.65-1.2-.87,.2-.45,.49-.86,.87-1.21Z"/>
</svg>