<?xml version="1.0" encoding="UTF-8"?>
<svg id="New" xmlns="http://www.w3.org/2000/svg" viewBox="0 0 24 24">
  <path d="M6.59,2.73l2.95,3.8,.03,.05c.14,.2,.24,.39,.31,.61,.05,.24,.07,.49,.03,.75-.03,.25-.12,.48-.25,.7l-.02,.04c-.12,.2-.28,.37-.48,.51l-.05,.03-1.43,1.05c-.09,.21-.2,.67,.2,1.23,.63,.91,1.34,1.74,2.11,2.52h0c.77,.78,1.62,1.48,2.53,2.11,.57,.4,1.02,.29,1.22,.2l1.08-1.48h-.01c.16-.21,.34-.38,.56-.51h0c.22-.12,.45-.21,.71-.24h.02c.25-.03,.49-.02,.72,.04h.04c.22,.08,.43,.19,.62,.33h0l3.8,2.95,.06,.05c.19,.16,.34,.35,.45,.58h.01c.11,.23,.19,.49,.2,.78,.02,.28-.03,.55-.13,.8-.1,.24-.26,.47-.46,.67-.25,.23-.55,.46-.91,.68l-.05,.02c-.34,.21-.76,.4-1.23,.56-2.08,.7-4.31,.58-6.45-.14-2.26-.75-4.43-2.16-6.21-3.94-1.78-1.78-3.19-3.95-3.94-6.21-.71-2.13-.84-4.37-.14-6.46,.16-.5,.37-.92,.58-1.28h0c.22-.37,.46-.67,.69-.91,.19-.21,.41-.37,.67-.46l.05-.02c.23-.09,.48-.12,.73-.11,.28,0,.55,.09,.79,.21l.04,.02,.57,.5h0Zm1.74,4.74h0l-2.95-3.79h0s-.06-.07-.09-.09h-.02s-.09-.04-.14-.04c-.04,0-.09,0-.13,.02h-.02s-.08,.06-.13,.09c-.15,.18-.32,.39-.49,.66-.16,.27-.31,.58-.44,.97-.58,1.75-.47,3.65,.14,5.49,.68,2.02,1.95,3.98,3.57,5.6,1.62,1.62,3.59,2.9,5.6,3.57,1.84,.61,3.74,.73,5.49,.14,.37-.12,.68-.27,.94-.43l.03-.02c.26-.16,.48-.33,.65-.49,.04-.04,.07-.07,.08-.12h0s0,0,0,0c.01-.04,.02-.09,.02-.15,0-.05-.02-.11-.03-.15h0s-.04-.06-.07-.09l-.03-.02-3.8-2.94h0s-.06-.05-.09-.06h-.02s-.08-.02-.13-.01h-.01s-.09,.02-.13,.04h0s-.07,.05-.09,.09h-.01l-1.16,1.59c-.06,.1-.14,.19-.25,.24,0,0-1.35,.97-3.01-.19-.99-.7-1.9-1.45-2.73-2.28h0c-.83-.83-1.59-1.75-2.28-2.73-1.16-1.65-.19-3.01-.19-3.01,.05-.09,.11-.16,.21-.23l1.56-1.14,.06-.04s.06-.06,.08-.08v-.02s.04-.08,.05-.13c.01-.05,0-.1,0-.14-.01-.03-.02-.07-.05-.09v-.03h-.01Zm-1.74-4.74h0Zm0,0h0Z"/>
</svg>