<?xml version="1.0" encoding="UTF-8"?>
<svg id="Layer_1" data-name="Layer 1" xmlns="http://www.w3.org/2000/svg" viewBox="0 0 24 24">
  <path d="M8.75,21.75c-.41,0-.76-.15-1.06-.44-.3-.3-.44-.65-.44-1.06v-4.5h-1.85c-.59,0-1.09-.21-1.51-.64-.42-.42-.64-.93-.64-1.51,0-.43,.12-.83,.35-1.2,.24-.37,.55-.64,.94-.82l6.7-2.98v-1c-.58-.16-1.06-.47-1.44-.95-.38-.48-.56-1.03-.56-1.66,0-.77,.27-1.42,.8-1.95,.53-.53,1.18-.8,1.95-.8,.66,0,1.23,.18,1.71,.54,.48,.36,.78,.8,.91,1.34,.06,.25,.01,.45-.13,.62-.14,.17-.35,.25-.61,.25-.18,0-.34-.04-.47-.13-.13-.09-.24-.21-.32-.36-.08-.23-.22-.41-.42-.55-.2-.14-.42-.21-.66-.21-.35,0-.64,.12-.89,.36-.24,.24-.36,.54-.36,.89,0,.35,.12,.64,.36,.89,.24,.24,.54,.36,.89,.36,.21,0,.39,.07,.53,.22,.14,.14,.22,.32,.22,.53v1.6l6.7,2.98c.39,.17,.71,.45,.94,.82,.24,.37,.35,.77,.35,1.2,0,.59-.21,1.09-.64,1.51-.42,.42-.93,.64-1.51,.64h-1.85v4.5c0,.41-.15,.76-.44,1.06-.3,.3-.65,.44-1.06,.44h-6.5Zm0-7h0Zm-3.35-.5h2.02v-.12c.13-.28,.31-.49,.54-.65s.49-.24,.8-.24h6.5c.31,0,.57,.08,.8,.24s.4,.37,.54,.65v.12h2.02c.23,0,.39-.07,.5-.21,.1-.14,.15-.3,.15-.47,0-.13-.03-.25-.1-.35-.06-.11-.16-.19-.29-.25l-6.87-3.04-6.85,3.04c-.14,.06-.24,.14-.31,.24-.06,.1-.1,.22-.1,.36,0,.18,.05,.34,.16,.47,.11,.14,.27,.21,.49,.21Zm3.35,6h6.5v-5.5h-6.5v5.5Z"/>
</svg>