<?xml version="1.0" encoding="UTF-8"?>
<svg id="Layer_1" data-name="Layer 1" xmlns="http://www.w3.org/2000/svg" viewBox="0 0 24 24">
  <path fill="currentcolor" d="M19.84,2c-.13,0-.25,.04-.36,.1l-3.09,1.86-.32-.32c-.26-.25-.66-.28-.94-.06L2.28,13.58c-.31,.24-.37,.69-.13,1,.02,.02,.04,.05,.06,.07l7.14,7.14c.28,.28,.73,.28,1.01,0,.02-.02,.04-.04,.06-.07l10-12.86c.22-.28,.2-.69-.06-.94l-.32-.32,1.86-3.09c.17-.28,.12-.64-.11-.87l-1.43-1.43c-.14-.14-.32-.21-.52-.21Zm-.1,1.61l.64,.64-1.39,2.31-1.56-1.56,2.31-1.39Zm-4.23,1.48l.26,.26s0,0,0,0l2.86,2.86,.27,.27-7.24,9.31-5.47-5.46L15.51,5.09h0ZM5.07,13.22l5.71,5.71-.99,1.27L3.79,14.21s1.28-.99,1.28-.99Z"/>
</svg>