<?xml version="1.0" encoding="UTF-8"?>
<svg id="Layer_1" data-name="Layer 1" xmlns="http://www.w3.org/2000/svg" viewBox="0 0 24 24">
  <path d="M12,21.75c-.22,0-.4-.07-.55-.22-.15-.15-.22-.33-.22-.55V8.31H3.99c-.24,0-.39-.11-.46-.33-.06-.22,0-.4,.2-.53L11.11,2.27c.28-.18,.57-.27,.89-.27,.32,0,.61,.09,.89,.27l7.38,5.18c.2,.13,.26,.31,.2,.53-.06,.22-.22,.33-.46,.33h-7.24v12.66c0,.22-.07,.4-.22,.55-.15,.15-.33,.22-.55,.22Zm0-14.99h0ZM3.73,21.75c-.22,0-.4-.07-.55-.22-.15-.15-.22-.33-.22-.55v-4.61l-.65-3.57c-.04-.22,0-.41,.12-.58,.12-.17,.28-.27,.5-.31,.21-.04,.4,0,.57,.13,.17,.12,.28,.29,.32,.49l.62,3.35h3.26c.26,0,.49,.09,.67,.27,.18,.18,.27,.4,.27,.67v4.17c0,.22-.07,.4-.22,.55-.15,.15-.33,.22-.55,.22s-.4-.07-.55-.22c-.15-.15-.22-.33-.22-.55v-3.56h-2.58v3.56c0,.22-.07,.4-.22,.55-.15,.15-.33,.22-.55,.22h0Zm12.4,0c-.22,0-.4-.07-.55-.22-.15-.15-.22-.33-.22-.55v-4.17c0-.26,.09-.49,.27-.67,.18-.18,.4-.27,.67-.27h3.26l.62-3.35c.04-.21,.14-.37,.31-.49,.17-.12,.36-.16,.57-.13,.22,.04,.39,.14,.51,.31,.12,.17,.16,.36,.12,.58l-.65,3.57v4.61c0,.22-.07,.4-.22,.55-.15,.15-.33,.22-.55,.22s-.4-.07-.55-.22c-.15-.15-.22-.33-.22-.55v-3.56h-2.58v3.56c0,.22-.07,.4-.22,.55-.15,.15-.33,.22-.55,.22h0ZM7.41,6.76h9.18l-4.59-3.21-4.59,3.21Z"/>
</svg>