<?xml version="1.0" encoding="UTF-8"?>
<svg id="New" xmlns="http://www.w3.org/2000/svg" viewBox="0 0 24 24">
  <path d="M7.98,15.52l-3.07,3.07c-.18,.18-.4,.27-.64,.26s-.46-.09-.62-.26c-.18-.18-.27-.4-.27-.64s.08-.46,.25-.62l3.07-3.07c.47-.47,.79-1.05,.96-1.75s.26-1.77,.26-3.22c0-.87,.2-1.73,.59-2.57s.95-1.63,1.67-2.35c1.37-1.37,2.88-2.15,4.54-2.33,1.66-.18,3.02,.28,4.09,1.38,1.08,1.08,1.54,2.45,1.35,4.11-.18,1.66-.95,3.16-2.3,4.52-.72,.72-1.51,1.28-2.35,1.67s-1.7,.59-2.57,.59c-1.46,0-2.53,.08-3.21,.25s-1.26,.49-1.74,.97Zm2.51-3.84c.71,.69,1.66,.95,2.87,.77,1.2-.18,2.28-.75,3.23-1.69s1.54-2.04,1.73-3.24-.07-2.13-.78-2.81c-.72-.72-1.67-.99-2.83-.81-1.17,.18-2.24,.75-3.22,1.72-.95,.95-1.52,2.02-1.73,3.22-.2,1.2,.04,2.15,.73,2.86Zm6.96,10.25c-.99,0-1.84-.35-2.55-1.06-.71-.71-1.06-1.56-1.06-2.55s.35-1.84,1.06-2.55,1.56-1.06,2.55-1.06,1.84,.35,2.55,1.06,1.06,1.56,1.06,2.55-.35,1.84-1.06,2.55c-.71,.71-1.56,1.06-2.55,1.06Zm0-1.81c.5,0,.92-.18,1.28-.53,.35-.35,.53-.78,.53-1.28s-.18-.92-.53-1.28c-.35-.35-.78-.53-1.28-.53s-.92,.18-1.28,.53c-.35,.35-.53,.78-.53,1.28s.18,.92,.53,1.28c.35,.35,.78,.53,1.28,.53Z"/>
</svg>