<?xml version="1.0" encoding="UTF-8"?>
<svg id="New" xmlns="http://www.w3.org/2000/svg" viewBox="0 0 24 24">
  <path d="M11.09,21.25V11.11s1.51,0,1.51,0v10.13c0,.2-.08,.38-.23,.53s-.33,.23-.54,.22c-.2,0-.37-.08-.52-.23-.15-.15-.22-.33-.22-.53ZM2.28,9.73c.23-.9,.57-1.74,1.01-2.52,.44-.78,.98-1.48,1.62-2.12,.9-.9,1.93-1.6,3.11-2.11,1.18-.51,2.45-.77,3.81-.76,1.37,0,2.65,.26,3.83,.77,1.19,.51,2.22,1.21,3.11,2.1,.64,.64,1.18,1.35,1.62,2.13,.44,.78,.77,1.62,.99,2.51,.11,.48,0,.9-.31,1.27s-.74,.55-1.27,.55H3.87c-.53,0-.95-.18-1.28-.55-.33-.37-.43-.79-.31-1.26Zm1.53,.27h2.28c.07-.45,.15-.91,.26-1.38,.1-.46,.23-.92,.39-1.37,.16-.45,.35-.88,.57-1.3,.23-.42,.48-.82,.76-1.2-1.08,.51-1.98,1.22-2.72,2.14-.74,.92-1.25,1.95-1.54,3.1Zm3.84,.04l8.41-.04c-.12-.91-.33-1.75-.62-2.52-.29-.77-.63-1.43-1.02-1.98-.39-.55-.8-.98-1.25-1.29-.45-.31-.88-.46-1.3-.46-.43,0-.86,.17-1.31,.47-.45,.31-.87,.74-1.26,1.29-.39,.55-.73,1.21-1.02,1.98-.29,.77-.5,1.61-.63,2.55Zm12.25,0c-.3-1.18-.82-2.23-1.56-3.15-.74-.92-1.65-1.63-2.73-2.14,.3,.39,.56,.79,.78,1.21s.41,.86,.57,1.3c.16,.44,.29,.89,.39,1.36,.1,.46,.18,.93,.24,1.39l2.3,.02Z"/>
</svg>