<?xml version="1.0" encoding="UTF-8"?>
<svg id="New" xmlns="http://www.w3.org/2000/svg" viewBox="0 0 24 24">
  <path d="M6.16,13.93c-.2-.2-.3-.45-.29-.73,0-.28,.12-.5,.33-.66,.79-.65,1.68-1.15,2.66-1.51,.98-.36,2.03-.54,3.14-.54s2.17,.18,3.15,.55,1.87,.87,2.66,1.53c.21,.16,.32,.38,.32,.66,0,.28-.09,.52-.3,.72-.19,.19-.43,.29-.7,.3-.27,0-.53-.07-.76-.23-.61-.47-1.29-.84-2.03-1.1-.74-.26-1.52-.39-2.35-.39s-1.61,.13-2.35,.4c-.74,.26-1.41,.63-2.01,1.09-.24,.17-.5,.25-.77,.23-.27-.01-.51-.12-.7-.31Zm-3.86-3.85c-.19-.19-.29-.43-.29-.71s.1-.51,.3-.68c1.3-1.14,2.77-2.03,4.41-2.68,1.64-.65,3.4-.97,5.28-.97s3.64,.32,5.28,.97c1.64,.65,3.11,1.54,4.41,2.68,.2,.18,.31,.4,.31,.68,0,.27-.09,.51-.3,.71-.19,.19-.43,.29-.7,.3-.27,0-.52-.08-.74-.26-1.12-.96-2.38-1.71-3.79-2.25-1.4-.54-2.89-.81-4.47-.81s-3.07,.27-4.47,.81c-1.4,.54-2.66,1.29-3.79,2.25-.22,.18-.47,.26-.74,.26-.27,0-.51-.11-.7-.3Zm9.7,8.88c-.44,0-.81-.15-1.11-.45-.3-.3-.45-.67-.45-1.11,0-.44,.15-.81,.45-1.11,.3-.3,.67-.45,1.11-.45s.81,.15,1.11,.45c.3,.3,.45,.67,.45,1.11s-.15,.81-.45,1.11c-.3,.3-.67,.45-1.11,.45Z"/>
</svg>