<?xml version="1.0" encoding="UTF-8"?>
<svg id="New" xmlns="http://www.w3.org/2000/svg" viewBox="0 0 24 24">
  <path d="M17.24,1.94H6.67c-1.58,0-2.88,1.29-2.9,2.87v12.8c.04,1.28,.9,2.36,2.11,2.72v.86c-.03,.44,.31,.81,.73,.84h.12c.42,0,.77-.33,.79-.82v-.76h8.9v.74c-.03,.45,.31,.85,.76,.88h.06c.43,0,.79-.33,.82-.76v-.98c1.24-.36,2.12-1.5,2.13-2.81V4.87c0-1.61-1.29-2.92-2.95-2.93Zm-6.09,16.87H6.67c-.68,0-1.25-.56-1.26-1.29V4.86c-.01-.69,.54-1.27,1.24-1.28l.02-.29v.29h4.48v15.23Zm7.38-1.28c0,.34-.12,.66-.35,.9-.23,.24-.55,.38-.93,.38h-4.45V3.58h4.48c.68,0,1.25,.56,1.26,1.29v12.65Z"/>
  <path d="M14.12,10.14s-.03,0-.05,0c-.28-.02-.51,.19-.53,.47,0,.02,0,.04,0,.06v1.05c-.02,.29,.2,.55,.49,.57,.29,.02,.55-.2,.57-.49,0-.03,0-.05,0-.08v-1.06c.01-.28-.2-.51-.48-.52Z"/>
  <path d="M9.8,12.25s.03,0,.05,0c.28,.02,.51-.19,.53-.47,0-.02,0-.04,0-.06v-1.05c.01-.27-.2-.51-.47-.52-.02,0-.04,0-.05,0-.28-.02-.51,.19-.53,.47,0,.02,0,.04,0,.06v1.05c-.01,.28,.21,.51,.48,.52Z"/>
</svg>