<?xml version="1.0" standalone="no"?><!DOCTYPE svg PUBLIC "-//W3C//DTD SVG 1.1//EN" "http://www.w3.org/Graphics/SVG/1.1/DTD/svg11.dtd"><svg t="1695895710245" class="icon" viewBox="0 0 1024 1024" version="1.1" xmlns="http://www.w3.org/2000/svg" p-id="10321" width="16" height="16" xmlns:xlink="http://www.w3.org/1999/xlink"><path d="M471.309312 950.07744l0.001024-0.001024 0.357376 0.366592c21.714944 22.31296 57.406464 22.798336 79.719424 1.083392 0.345088-0.335872 0.68608-0.67584 1.021952-1.019904C752.69632 745.345024 852.820992 558.73536 852.820992 390.693888c0-184.070144-152.588288-333.292544-340.820992-333.292544-188.232704 0-340.820992 149.2224-340.820992 333.292544 0 167.204864 100.030464 353.671168 300.130304 559.383552zM512 283.932672c63.120384 0 114.289664 51.16928 114.289664 114.28864 0 63.121408-51.16928 114.290688-114.289664 114.290688-63.120384 0-114.289664-51.16928-114.289664-114.289664 0-63.120384 51.16928-114.289664 114.289664-114.289664z" fill="#323233" p-id="10322"></path></svg>