<svg width="70" height="48" viewBox="0 0 70 48" fill="none" xmlns="http://www.w3.org/2000/svg">
<rect x="0.5" y="0.5" width="69" height="47" rx="5.5" fill="white" stroke="#D9D9D9"/>
<path d="M62.9868 21.1459L63 21.1313H60.9077L59.5864 25.7115H59.5163L57.9993 21.1313H55.5128L58.5045 28.69L57.2547 30.9939V31.0495H59.2068L62.9868 21.1459Z" fill="black"/>
<path d="M39.7911 21.1313H37.5718V28.6622H39.7911V21.1313Z" fill="black"/>
<path d="M55.0763 26.7788V23.6323C55.0763 21.9183 54.0645 20.9766 52.2803 20.9766C51.1416 20.9766 50.3559 21.1736 48.9223 21.6088L49.3151 23.3374C50.6218 22.7475 51.1971 22.4949 51.8015 22.4949C52.5316 22.4949 52.8557 23.0147 52.8557 23.8162V23.8717C50.3123 24.3492 49.5254 24.6164 49.0347 25.1084C48.6696 25.4734 48.5149 25.9932 48.5149 26.5976C48.5149 28.0445 49.6391 28.8169 50.6919 28.8169C51.4788 28.8169 52.111 28.522 52.9681 27.8752L53.1228 28.6622H55.3421L55.0763 26.7788ZM52.857 26.8357C52.2671 27.1584 51.9298 27.2853 51.537 27.2853C51.0027 27.2853 50.6654 26.9335 50.6654 26.3728C50.6654 26.1625 50.7078 25.9508 50.8757 25.7829C51.1429 25.5157 51.6627 25.3186 52.857 25.0383V26.8357Z" fill="black"/>
<path d="M45.3129 20.9766C44.4982 20.9766 43.866 21.2861 43.1491 21.8759V21.1313H40.9298V31.0495H43.1491V28.5908C43.571 28.7032 43.9638 28.76 44.4413 28.76C46.4225 28.76 48.2067 27.2986 48.2067 24.6997C48.2067 22.3679 46.9146 20.9766 45.3129 20.9766ZM43.907 27.3687C43.6544 27.3687 43.415 27.3409 43.1478 27.2563V23.1827C43.612 22.8599 43.9903 22.7052 44.4678 22.7052C45.297 22.7052 45.957 23.3652 45.957 24.7711C45.9583 26.5685 44.9889 27.3687 43.907 27.3687Z" fill="black"/>
<path d="M18.7592 17.2521H9.24312C8.00385 17.2521 7 18.2653 7 19.5138V29.1105C7 30.3591 8.00385 31.3722 9.24312 31.3722H18.7592C19.9985 31.3722 21.001 30.3591 21.001 29.1105V19.5138C21.0023 18.2639 19.9985 17.2521 18.7592 17.2521Z" fill="#1677FF"/>
<path d="M18.5277 26.1188C17.9683 25.9297 17.2157 25.64 16.3785 25.3345C16.8811 24.4523 17.2831 23.4485 17.5477 22.3574H14.7874V21.3548H18.168V20.7954H14.7874V19.1236H13.4079C13.1659 19.1236 13.1659 19.3643 13.1659 19.3643V20.794H9.747V21.3535H13.1659V22.356H10.3422V22.9155H15.8177C15.618 23.6112 15.3482 24.2659 15.0294 24.8597C13.2532 24.2685 11.3566 23.7897 10.1663 24.0847C9.40444 24.2738 8.91376 24.6111 8.62544 24.9655C7.30284 26.5883 8.25114 29.0537 11.0445 29.0537C12.6964 29.0537 14.2875 28.1252 15.5201 26.595C17.3599 27.4864 21.001 29.0179 21.001 29.0179V26.8357C21.0023 26.8357 20.5447 26.7986 18.5277 26.1188ZM10.7839 28.1106C8.6056 28.1106 7.96149 26.3807 9.03809 25.4337C9.39783 25.1136 10.0538 24.9576 10.403 24.9232C11.6965 24.7949 12.8948 25.2922 14.3086 25.9879C13.3154 27.2946 12.0496 28.1106 10.7839 28.1106Z" fill="white"/>
<path d="M29.9431 18.7573H26.9646L23.6356 28.6622H25.687L26.2491 26.7232H29.7751L30.3094 28.6622H32.9361L29.9431 18.7573ZM26.712 25.107L28.0319 20.5414H28.0875L29.3373 25.107H26.712Z" fill="black"/>
<path d="M36.0534 18.4054H33.8341V28.6609H36.0534V18.4054Z" fill="black"/>
<path d="M37.4025 19.3194C37.4025 20.0494 37.9368 20.5414 38.6814 20.5414C39.426 20.5414 39.9604 20.0494 39.9604 19.3194C39.9604 18.6025 39.426 18.0973 38.6814 18.0973C37.9368 18.0973 37.4025 18.6025 37.4025 19.3194Z" fill="#1677FF"/>
</svg>
