<svg width="70" height="48" viewBox="0 0 70 48" fill="none" xmlns="http://www.w3.org/2000/svg">
<rect x="0.5" y="0.5" width="69" height="47" rx="5.5" fill="white" stroke="#D9D9D9"/>
<path fill-rule="evenodd" clip-rule="evenodd" d="M33.0603 31.5161V25.4742H36.1786C37.4564 25.4742 38.535 25.046 39.4142 24.2016L39.6252 23.9875C41.2313 22.2392 41.1258 19.5156 39.4142 17.898C38.5584 17.0417 37.3861 16.5779 36.1786 16.6016H31.1729V31.5161H33.0603ZM33.0605 23.6426V18.4332H36.2262C36.9063 18.4332 37.5512 18.6949 38.0319 19.1706C39.052 20.1697 39.0754 21.8348 38.0905 22.8695C37.6098 23.3809 36.9297 23.6664 36.2262 23.6426H33.0605ZM48.4293 22.1084C47.6204 21.3591 46.5185 20.9785 45.1234 20.9785C43.3298 20.9785 41.9816 21.6445 41.0906 22.9647L42.7553 24.0232C43.3649 23.1193 44.1973 22.6673 45.2524 22.6673C45.9206 22.6673 46.5653 22.9171 47.0694 23.3691C47.5618 23.7972 47.8432 24.4157 47.8432 25.0698V25.5099C47.1163 25.1055 46.2019 24.8914 45.0765 24.8914C43.7635 24.8914 42.7084 25.2007 41.923 25.831C41.1375 26.4614 40.739 27.2939 40.739 28.3525C40.7155 29.3158 41.1258 30.2316 41.8527 30.8501C42.5912 31.5161 43.5291 31.8491 44.631 31.8491C45.9323 31.8491 46.9639 31.2664 47.7494 30.1008H47.8314V31.5161H49.6368V25.2245C49.6368 23.9043 49.2382 22.8576 48.4293 22.1084ZM43.3066 29.6369C42.9197 29.3515 42.6852 28.8877 42.6852 28.3881C42.6852 27.8291 42.9432 27.3653 43.4473 26.9966C43.9632 26.6279 44.6081 26.4376 45.3702 26.4376C46.4255 26.4257 47.2462 26.6636 47.8325 27.1393C47.8325 27.9481 47.5159 28.6498 46.8945 29.2445C46.3317 29.8153 45.5696 30.1365 44.7723 30.1365C44.2446 30.1484 43.7287 29.97 43.3066 29.6369ZM53.693 36L60.0001 21.3115H57.9485L55.0295 28.6379H54.9943L52.0049 21.3115H49.9534L54.0916 30.862L51.747 36H53.693Z" fill="#3C4043"/>
<path d="M26.5442 24.1659C26.5442 23.5831 26.4973 23.0004 26.4035 22.4295H18.4435V25.724H23.0038C22.8162 26.7825 22.2066 27.734 21.3156 28.3286V30.4695H24.0354C25.6298 28.9828 26.5442 26.7825 26.5442 24.1659Z" fill="#4285F4"/>
<path d="M18.4438 32.539C20.7181 32.539 22.6407 31.7778 24.0358 30.4695L21.316 28.3287C20.554 28.852 19.581 29.1493 18.4438 29.1493C16.2399 29.1493 14.3759 27.6388 13.7077 25.6169H10.9059V27.8291C12.3361 30.7193 15.2552 32.539 18.4438 32.539Z" fill="#34A853"/>
<path d="M13.708 25.617C13.3563 24.5584 13.3563 23.4048 13.708 22.3343V20.134H10.9058C9.69808 22.5484 9.69808 25.4029 10.9058 27.8173L13.708 25.617Z" fill="#FBBC04"/>
<path d="M18.4438 18.8019C19.6513 18.7782 20.8119 19.242 21.6794 20.0864L24.0944 17.6364C22.5587 16.1854 20.5423 15.3885 18.4438 15.4123C15.2552 15.4123 12.3361 17.2439 10.9059 20.134L13.7077 22.3462C14.3759 20.3124 16.2399 18.8019 18.4438 18.8019Z" fill="#EA4335"/>
</svg>
