<svg width="70" height="48" viewBox="0 0 70 48" fill="none" xmlns="http://www.w3.org/2000/svg">
<rect x="0.5" y="0.5" width="69" height="47" rx="5.5" fill="white" stroke="#D9D9D9"/>
<path d="M59.5109 19.9686C60.3333 19.9686 61 19.3019 61 18.4795C61 17.6572 60.3333 16.9905 59.5109 16.9905C58.6885 16.9905 58.0219 17.6572 58.0219 18.4795C58.0219 19.3019 58.6885 19.9686 59.5109 19.9686Z" fill="#7887E6"/>
<path d="M59.5109 24.6303C60.3333 24.6303 61 23.9636 61 23.1412C61 22.3188 60.3333 21.6522 59.5109 21.6522C58.6885 21.6522 58.0219 22.3188 58.0219 23.1412C58.0219 23.9636 58.6885 24.6303 59.5109 24.6303Z" fill="#FF5073"/>
<path fill-rule="evenodd" clip-rule="evenodd" d="M12.7911 20.8526H11.3463V24.4595H9V14.5866H12.7911C15.052 14.5866 16.1253 15.9028 16.1253 17.6481C16.1253 19.665 14.6939 20.8526 12.7911 20.8526ZM12.4392 16.3031H11.3463V19.1351H12.5338C13.355 19.1351 13.8953 18.5917 13.8469 17.6141C13.8099 16.8742 13.1801 16.3031 12.4392 16.3031ZM22.5981 24.4585H20.3085H20.3074V24.1343C19.8505 24.4214 19.2526 24.6293 18.7021 24.6293C17.3067 24.6293 16.2457 23.5776 16.2457 22.3252C16.2457 21.043 17.1533 19.6547 20.3085 19.8791V19.3923C20.3085 18.8346 19.8361 18.6483 19.3072 18.6483C18.5632 18.6483 17.6905 18.9776 17.2758 19.1639L16.646 17.8621C17.3324 17.433 18.4489 16.9895 19.8649 16.9895C21.5536 16.9895 22.5981 17.7335 22.5981 19.379V24.4585ZM18.5333 22.284C18.5333 22.813 18.9202 23.1423 19.4924 23.1423C19.8505 23.1423 20.1798 23.0136 20.3928 22.8562V21.3249C19.0067 21.0954 18.5333 21.683 18.5333 22.284ZM45.3736 17.1613V16.8608C45.3736 15.1299 46.346 14 48.1922 14C48.6079 14 48.965 14.0576 49.2799 14.143V15.7731C49.0947 15.7165 48.823 15.6733 48.6079 15.6733C47.9061 15.6733 47.6488 16.1312 47.6488 16.7754V17.1613H49.2223V18.7214H47.6488V24.4585H45.3736V18.7214H44.1572V17.1613H45.3736ZM37.5495 17.8631C38.2359 17.434 39.3525 16.9905 40.7685 16.9905C42.4572 16.9905 43.5017 17.7345 43.5006 19.379V24.4585H41.211V24.1353C40.7541 24.4224 40.1562 24.6303 39.6056 24.6303C38.2102 24.6303 37.1492 23.5786 37.1492 22.3262C37.1492 21.044 38.0569 19.6558 41.212 19.8801V19.3934C41.212 18.8356 40.7396 18.6493 40.2107 18.6493C39.4667 18.6493 38.594 18.9786 38.1793 19.1649L37.5495 17.8631ZM40.3105 23.1423C40.6686 23.1423 40.9969 23.0136 41.212 22.8562H41.211V21.3249C39.8248 21.0954 39.3514 21.683 39.3514 22.284C39.3514 22.813 39.7384 23.1423 40.3105 23.1423ZM30.7381 17.1623L27.0406 26.5063H24.8621L25.8253 24.1158L22.7391 17.1623H25.0823L26.8894 21.5225L28.4639 17.1623H30.7381ZM56.5338 20.6982V21.2683V21.2704H51.7898C51.8258 21.645 51.9215 21.9506 52.0656 22.1935C52.0666 22.1945 52.0666 22.1955 52.0677 22.1966C52.0913 22.2346 52.116 22.2717 52.1418 22.3067C52.1572 22.3283 52.1726 22.3478 52.1891 22.3684C52.1923 22.3722 52.1955 22.3761 52.1987 22.3801C52.2058 22.3889 52.2132 22.3979 52.221 22.4065C52.2488 22.4394 52.2786 22.4713 52.3095 22.5012L52.3126 22.5042C52.3887 22.5773 52.4741 22.6432 52.5688 22.7008C52.5709 22.7018 52.5719 22.7018 52.5729 22.7029C52.6151 22.7286 52.6604 22.7523 52.7067 22.7749C52.716 22.779 52.7242 22.7831 52.7324 22.7872C52.7602 22.8006 52.7901 22.813 52.8199 22.8243C52.8466 22.8346 52.8734 22.8438 52.9001 22.8531L52.9002 22.8531C52.9119 22.8568 52.924 22.8605 52.9362 22.8642C52.9444 22.8667 52.9526 22.8691 52.9609 22.8716L52.961 22.8716C52.999 22.8819 53.0371 22.8922 53.0762 22.9015C53.0828 22.903 53.0895 22.9043 53.0962 22.9056C53.1029 22.9069 53.1096 22.9082 53.1163 22.9097C53.1544 22.9179 53.1924 22.9241 53.2315 22.9303L53.2361 22.9311C53.2457 22.9329 53.2547 22.9345 53.2645 22.9354C53.3128 22.9416 53.3622 22.9467 53.4116 22.9498C53.424 22.9509 53.4353 22.9509 53.4476 22.9519C53.5001 22.955 53.5526 22.957 53.6072 22.957C54.2287 22.957 54.9223 22.7821 55.6066 22.3941L56.2447 23.8122C55.2351 24.512 53.9251 24.6313 53.2634 24.6313C50.8883 24.6313 49.4003 23.1567 49.4003 20.8536C49.4003 18.6072 50.9748 16.9905 53.0062 16.9905C55.0376 16.9905 56.5338 18.5588 56.5338 20.6982ZM54.2225 20.0664C54.1361 19.0939 53.636 18.5927 53.0062 18.5927C52.3764 18.5927 51.8763 19.0929 51.7898 20.0664H54.2225ZM33.1791 22.9704C33.8521 22.9704 34.2524 22.7697 34.2524 22.3694C34.2524 21.9417 33.706 21.7552 33.0492 21.5309C32.0594 21.193 30.8188 20.7695 30.8194 19.3059C30.8194 17.7613 32.1922 16.9884 33.8953 16.9884C34.8256 16.9884 35.7414 17.2745 36.3424 17.575L35.6982 19.0774C35.2403 18.8778 34.6105 18.6627 34.0095 18.6627C33.4374 18.6627 33.0936 18.8768 33.0936 19.2205C33.0936 19.5985 33.6039 19.7691 34.2278 19.9777C35.2086 20.3055 36.47 20.7272 36.47 22.1966C36.47 23.771 35.0396 24.6293 33.3797 24.6293C32.4494 24.6293 31.4482 24.4152 30.5899 23.9573L31.3195 22.4837C31.8341 22.742 32.4927 22.9704 33.1791 22.9704ZM41.3787 29.3465V28.3854H40.966V28.1158H42.1073L42.1495 28.3854H41.7595V29.3465H41.3787ZM43.4626 29.3465L43.4163 28.4554L43.3844 28.5752L43.3842 28.5757C43.3158 28.8328 43.2476 29.0893 43.1755 29.3465H42.841L42.6002 28.4554L42.5539 29.3465H42.2133C42.2503 28.938 42.2833 28.5253 42.3152 28.1168H42.7937L43.0118 28.9894L43.0143 28.9794C43.0834 28.6906 43.1516 28.4057 43.2248 28.1168H43.7034L43.8011 29.3465H43.4626ZM9.01029 28.478V33.9691H10.3152V31.9635H11.1189C12.1778 31.9635 12.9732 31.3028 12.9732 30.1811C12.9732 29.2097 12.3764 28.478 11.1189 28.478H9.01029ZM11.7085 30.2284C11.7085 30.7296 11.4142 31.0085 10.9768 31.0085H10.3162V29.433H10.9768C11.4461 29.433 11.7085 29.7592 11.7085 30.2284ZM15.4646 33.5637L15.5367 33.9691V33.9702H16.6985V31.1454C16.6985 30.2295 16.1181 29.8158 15.1785 29.8158C14.3903 29.8158 13.7697 30.0628 13.388 30.3015L13.7378 31.026C13.9684 30.922 14.4541 30.7389 14.8678 30.7389C15.1621 30.7389 15.4245 30.8418 15.4245 31.1526V31.4232C13.7296 31.3913 13.1647 31.9717 13.1647 32.8474C13.1647 33.6594 13.8016 34.0648 14.4304 34.0648C14.9398 34.0648 15.2413 33.8106 15.4646 33.5637ZM15.1394 32.2022C15.2057 32.2022 15.2622 32.2086 15.3218 32.2154L15.3218 32.2154L15.3219 32.2154L15.3219 32.2154C15.3548 32.2191 15.3886 32.223 15.4255 32.2259V33.0769C15.3061 33.1644 15.123 33.2364 14.9244 33.2364C14.6064 33.2364 14.3913 33.0533 14.3913 32.7589C14.3913 32.4255 14.63 32.2022 15.1394 32.2022ZM17.9323 35.6959L18.6012 33.9691H18.2194C18.0717 33.5043 17.9249 33.0395 17.7781 32.5748L17.778 32.5744C17.4975 31.6865 17.2171 30.7987 16.93 29.9105H18.2194L18.983 32.9184L19.8423 29.9105H21.1081C20.7413 30.9707 20.3795 32.0312 20.0185 33.0892L20.0185 33.0893L20.0185 33.0893L20.0184 33.0896C19.7211 33.961 19.4244 34.8306 19.1261 35.6969H17.9323V35.6959ZM23.408 28.478V33.9691H26.806V33.0224H24.7129V28.478H23.408ZM29.5361 33.9691L29.4641 33.5637C29.2408 33.8106 28.9393 34.0648 28.4299 34.0648C27.8011 34.0648 27.1641 33.6594 27.1641 32.8474C27.1641 31.9717 27.7291 31.3913 29.424 31.4232V31.1526C29.424 30.8418 29.1616 30.7389 28.8673 30.7389C28.4536 30.7389 27.9678 30.922 27.7373 31.026L27.3874 30.3015C27.7692 30.0628 28.3898 29.8158 29.178 29.8158C30.1176 29.8158 30.698 30.2295 30.698 31.1454V33.9702H29.5361V33.9691ZM29.425 32.2259C29.388 32.223 29.3542 32.2191 29.3213 32.2154C29.2617 32.2086 29.2052 32.2022 29.1389 32.2022C28.6295 32.2022 28.3908 32.4255 28.3908 32.7589C28.3908 33.0533 28.6059 33.2364 28.9238 33.2364C29.1225 33.2364 29.3056 33.1644 29.425 33.0769V32.2259ZM31.7486 32.8629C31.7486 33.9218 32.505 33.9691 32.8868 33.9691V33.9712H33.7944V33.1191H33.4446C33.1657 33.1191 33.0144 32.9915 33.0144 32.5778V30.779H33.7944V29.9115H33.0144V28.7013L31.7486 29.1387V29.9105H31.1281V30.778H31.7486V32.8629ZM37.8366 33.6666C37.5825 33.858 36.9208 34.0648 36.2683 34.0648C34.947 34.0648 34.1196 33.2447 34.1196 31.9635C34.1196 30.7142 34.9954 29.8148 36.1253 29.8148C36.9928 29.8148 37.8521 30.284 37.8521 31.7165V32.194H35.4492C35.513 32.8629 35.9184 33.1335 36.4597 33.1335C36.8662 33.1335 37.3272 32.9668 37.4785 32.8711L37.8366 33.6666ZM36.683 31.5261C36.683 30.9766 36.4443 30.7059 36.1099 30.7059C35.76 30.7059 35.4976 30.9848 35.4492 31.5261H36.683ZM38.3697 29.9105V33.9691H39.6427V31.3429C39.866 31.1196 40.2241 30.9848 40.5585 30.9848H40.5586C40.6378 30.9848 40.8045 30.9848 40.8765 31.0003V29.8148C40.328 29.8148 39.8423 30.1492 39.5799 30.6504V29.9105H38.3697Z" fill="#2D2341"/>
</svg>
