<svg width="70" height="48" viewBox="0 0 70 48" fill="none" xmlns="http://www.w3.org/2000/svg">
<rect x="0.5" y="0.5" width="69" height="47" rx="5.5" fill="white" stroke="#D9D9D9"/>
<path fill-rule="evenodd" clip-rule="evenodd" d="M29.9788 21.2166H32.2571L32.6234 19.341H30.3446L29.9788 21.2166ZM29.7424 22.423H32.0213L30.5737 29.8285C30.468 29.866 30.1419 29.9977 29.6914 29.9977C29.0835 29.9977 28.5258 29.7569 28.5258 28.9033C28.5258 28.7427 28.5441 28.5599 28.5847 28.3521C29.0375 26.0413 29.7424 22.423 29.7424 22.423ZM52.3694 22.2538C50.8528 22.2538 50.2499 23.1564 49.9668 23.7058H49.94L50.0274 22.4245H47.7755C47.7608 22.7063 47.6633 23.5944 47.5189 24.3604C47.5189 24.3604 46.9989 27.0484 46.9005 27.5631C46.8255 27.9562 46.6884 28.5375 46.6884 28.8748C46.6884 29.593 47.047 29.9978 47.8471 29.9978C48.2958 29.9978 48.6193 29.8732 48.737 29.8285L49.4901 25.9718C49.6989 24.9069 50.457 24.21 51.3583 24.21C52.0854 24.21 52.4331 24.7489 52.4331 25.1894C52.4331 25.5728 52.3384 25.9977 52.2651 26.3735L51.9412 28.0251C51.9027 28.2233 51.8202 28.6042 51.8202 28.9029C51.8202 29.633 52.2254 29.9978 52.995 29.9978C53.4151 29.9978 53.6815 29.8911 53.8702 29.8285L54.546 26.3712C54.6925 25.5898 54.7466 25.1783 54.7466 24.681C54.7466 23.2493 53.9225 22.2538 52.3694 22.2538ZM42.2474 24.0445C40.9737 24.0445 40.2682 25.3676 40.2682 26.547C40.2682 27.5416 40.7104 28.2077 41.7154 28.2077C42.8516 28.2077 43.7409 27.2254 43.7409 25.5486C43.7409 24.7814 43.3389 24.0445 42.2474 24.0445ZM41.5756 29.998C39.1358 29.998 37.9683 28.5113 37.9683 26.6162C37.9683 24.016 39.7255 22.2538 42.4408 22.2538C44.7969 22.2538 46.0479 23.7033 46.0479 25.5648C46.0479 28.3543 44.1711 29.998 41.5756 29.998ZM33.0427 28.215C32.9907 28.4815 32.9579 28.6682 32.9579 28.8976C32.9579 29.7466 33.5164 29.9979 34.1081 29.9979C34.5814 29.9979 34.8742 29.8663 34.9814 29.8285L36.077 24.215L37.8487 24.2148L38.1985 22.423L36.427 22.4232L36.5131 21.9818C36.6734 21.1542 37.0567 20.7903 37.7198 20.7903C38.1626 20.7903 38.5208 20.8703 38.6453 20.9033L38.9788 19.1994C38.8367 19.1629 38.182 19 37.213 19C35.6689 19 34.6574 19.9529 34.3582 21.4876L34.1751 22.423H33.0216L32.6716 24.2148H33.8259C33.8259 24.2148 33.3706 26.5359 33.0427 28.215ZM27.7969 22.254C26.6532 22.254 26.0242 23.061 25.7782 23.7046H25.7519L25.8399 22.423H23.5871C23.5672 22.8672 23.4757 23.6184 23.2461 24.7994C23.0135 25.9962 22.7869 27.1901 22.5529 28.3519C22.5128 28.5505 22.495 28.7449 22.495 28.9093C22.495 29.5179 22.7909 29.9973 23.6653 29.9973C24.0985 29.9973 24.3994 29.8829 24.5438 29.8285L25.214 26.3954C25.4555 25.0819 25.894 24.2135 27.1664 24.2135C27.7451 24.2135 28.2949 24.3389 28.4102 24.3733L28.7958 22.398C28.7126 22.3687 28.3785 22.254 27.7969 22.254ZM60.8484 25.4245C60.9704 24.7455 60.5817 24.0445 59.7032 24.0445C58.6305 24.0445 58.1593 24.7893 57.9489 25.4245H60.8484ZM61.8651 28.1802C61.8651 29.2102 60.8837 30 59.1457 30C56.7437 30 55.5691 28.4795 55.5691 26.6182C55.5691 24.7705 56.7761 22.2558 59.7221 22.2558C61.6645 22.2558 63.117 23.2364 63.117 25.4813C63.117 26.0335 62.996 26.6336 62.944 26.874H57.7807C57.7721 27.4127 58.2189 28.3463 60.0136 28.3463C60.8135 28.3463 61.7192 28.0591 61.8651 27.9859C61.8651 28.0419 61.8651 28.1432 61.8651 28.1802ZM19.6757 25.4245C19.7975 24.7455 19.4088 24.0445 18.5303 24.0445C17.4576 24.0445 16.9866 24.7893 16.7761 25.4245H19.6757ZM20.6926 28.1802C20.6926 29.2102 19.7111 30 17.9733 30C15.5711 30 14.3967 28.4795 14.3967 26.6182C14.3967 24.7705 15.6035 22.2558 18.5498 22.2558C20.4922 22.2558 21.9446 23.2364 21.9446 25.4813C21.9446 26.0335 21.8236 26.6336 21.7714 26.874H16.6084C16.5997 27.4127 17.0463 28.3463 18.8411 28.3463C19.6409 28.3463 20.5466 28.0591 20.6926 27.9859C20.6926 28.0419 20.6926 28.1432 20.6926 28.1802ZM7 19.9032H9.29236V27.2664C9.29236 28.3736 9.83467 28.9388 10.7053 28.9388C10.7941 28.9388 10.8464 28.9273 10.8637 28.923C10.4821 29.5099 9.98731 29.9912 8.8513 29.9912C7.64932 29.9912 7 29.1433 7 27.8708V19.9032Z" fill="#1A1919"/>
<path fill-rule="evenodd" clip-rule="evenodd" d="M10.0848 26.2615C9.98418 26.4211 9.93079 26.606 9.93079 26.7947V27.2786C9.93079 28.0251 10.3275 28.2926 10.7607 28.2926C11.2035 28.2926 11.4405 27.9875 11.658 27.6406C12.0224 27.0597 16.4748 19.9032 16.4748 19.9032H14.0921L10.0848 26.2615Z" fill="#00A3DA"/>
</svg>
