<svg width="70" height="48" viewBox="0 0 70 48" fill="none" xmlns="http://www.w3.org/2000/svg">
<rect x="0.5" y="0.5" width="69" height="47" rx="5.5" fill="white" stroke="#D9D9D9"/>
<path fill-rule="evenodd" clip-rule="evenodd" d="M45.9152 15.6602C44.7834 15.6602 43.8642 16.5746 43.8642 17.7019C43.8642 18.8298 44.7834 19.7422 45.9152 19.7422C47.049 19.7422 47.9675 18.8298 47.9675 17.7019C47.9675 16.5746 47.049 15.6602 45.9152 15.6602ZM16.3283 22.5007C15.8024 22.4669 14.5839 22.388 14.5839 21.2972C14.5839 19.9809 16.3369 19.9809 16.9948 19.9809C18.152 19.9809 19.649 20.3205 20.7195 20.6394C20.7195 20.6394 21.3154 20.8489 21.8227 21.0625L21.87 21.0757V17.4705L21.8067 17.4512C20.5429 17.0116 19.0758 16.5892 16.3543 16.5892C11.6624 16.5892 10 19.3072 10 21.638C10 22.9801 10.5786 26.1417 15.9503 26.5058L15.9553 26.5061C16.4156 26.5341 17.616 26.6073 17.616 27.7305C17.616 28.6615 16.6262 29.2092 14.9618 29.2092C13.1381 29.2092 11.3678 28.7477 10.2933 28.3081V32.0201C11.9023 32.4411 13.7167 32.6493 15.843 32.6493C20.4289 32.6493 22.4846 30.0772 22.4846 27.5269C22.4846 24.6365 20.1856 22.758 16.3283 22.5007ZM30.1753 20.8984C30.1842 20.8751 30.1912 20.8567 30.1964 20.8436H35.1089C34.9689 21.2886 34.0924 23.9734 32.0941 26.4945C32.0941 26.4945 34.3197 30.3743 34.8283 32.4789H29.6845C29.6845 32.4789 29.0699 29.6846 27.8261 27.828V32.4789H23.5309V17.4347L27.8261 16.5892V24.8898C29.3481 23.0586 30.0263 21.2875 30.1753 20.8984ZM55.8374 32.4789V17.3299L60 16.5892V32.4789H55.8374ZM41.4878 20.6865C37.6424 20.8098 35.6888 22.5272 35.6888 25.9408V32.4789H39.8854V27.1463C39.8854 25.1033 40.1547 24.2274 42.5923 24.1438V20.7468C42.1823 20.66 41.4878 20.6865 41.4878 20.6865ZM43.8355 32.4789V20.8569H47.9975V32.4789H43.8355ZM49.7612 17.3299L53.9212 16.5892V32.4789H49.7612V17.3299Z" fill="#862165"/>
</svg>
