<svg width="70" height="48" viewBox="0 0 70 48" fill="none" xmlns="http://www.w3.org/2000/svg">
<rect x="0.5" y="0.5" width="69" height="47" rx="5.5" fill="white" stroke="#D9D9D9"/>
<path fill-rule="evenodd" clip-rule="evenodd" d="M49.1706 16.2008C53.5496 23.958 50.8112 33.7962 43.0543 38.175C35.2974 42.5537 25.4594 39.8149 21.0804 32.0576C16.7015 24.3003 19.4398 14.4621 27.1967 10.0834C34.9536 5.70464 44.7917 8.44349 49.1706 16.2008ZM35.554 17.0059C37.8865 16.574 39.8827 16.7719 40.6578 18.7998C41.227 20.2839 40.839 21.376 39.9578 22.1792C41.7529 22.1155 42.9976 23.215 43.4907 25.1158C43.9983 27.9652 42.1267 29.2858 39.2065 30.2788L40.0086 33.197L38.2442 33.6858L37.4526 30.8068C36.9954 30.934 36.5254 31.0592 36.0392 31.1843L36.8351 34.0771L35.0724 34.5649L34.2665 31.6419L30.7076 32.6178L30.48 30.4187C30.48 30.4187 31.7909 30.0759 31.7626 30.0629C32.2618 29.9236 32.296 29.529 32.2661 29.2969L30.0862 21.3779C29.9207 21.0394 29.5739 20.6908 28.8588 20.8884C28.8732 20.8582 27.5776 21.2445 27.5776 21.2445L27.0598 19.3655L30.6156 18.3739L29.8207 15.4828L31.5842 14.9945L32.3641 17.8281C32.8333 17.6871 33.3052 17.5469 33.7687 17.4185L32.9933 14.6033L34.7577 14.1145L35.554 17.0059ZM34.2365 23.3208C35.4483 23.0052 38.085 22.3186 37.5848 20.4986C37.0718 18.6372 34.5655 19.4023 33.3383 19.777C33.1992 19.8194 33.0766 19.8569 32.9751 19.8849L33.9426 23.3988C34.0263 23.3755 34.1254 23.3497 34.2365 23.3208L34.2365 23.3208ZM35.8406 28.9521C37.2908 28.572 40.4623 27.7408 39.9099 25.7359C39.3455 23.6858 36.3308 24.5986 34.8599 25.0439L34.8597 25.044C34.6954 25.0937 34.5504 25.1376 34.4302 25.1709L35.4958 29.044C35.5942 29.0167 35.7103 28.9863 35.8403 28.9522L35.8406 28.9521Z" fill="#8FC258"/>
</svg>
