<svg width="70" height="48" viewBox="0 0 70 48" fill="none" xmlns="http://www.w3.org/2000/svg">
<rect x="0.5" y="0.5" width="69" height="47" rx="5.5" fill="white" stroke="#D9D9D9"/>
<path fill-rule="evenodd" clip-rule="evenodd" d="M17.9462 14H18.0031V15.4461H17.9462C14.2779 15.4461 11.1739 17.8617 10.1414 21.1907L8.76096 20.7522C9.98045 16.8392 13.6308 14 17.9462 14Z" fill="url(#paint0_linear_450_3057)"/>
<path fill-rule="evenodd" clip-rule="evenodd" d="M18.0031 15.4461V14H17.9462C22.2746 14 25.9363 16.8591 27.1428 20.7919L25.764 21.232C24.7494 17.8998 21.6616 15.4709 18.0031 15.4461Z" fill="url(#paint1_linear_450_3057)"/>
<path fill-rule="evenodd" clip-rule="evenodd" d="M22.7477 30.2244L23.5981 31.3958C21.9488 32.5931 19.9722 33.2342 17.9462 33.2291C15.9515 33.2344 14.0039 32.6132 12.369 31.4504L13.221 30.279C14.5544 31.2271 16.1852 31.7847 17.9462 31.7847C19.7413 31.7847 21.3998 31.2056 22.7477 30.2244Z" fill="url(#paint2_linear_450_3057)"/>
<path fill-rule="evenodd" clip-rule="evenodd" d="M8.76261 20.7522L10.1414 21.1906C9.89832 21.9748 9.77494 22.7923 9.7756 23.6145C9.7756 26.366 11.1349 28.7999 13.2211 30.279L12.3707 31.4505C10.0081 29.7678 8.44066 27.0444 8.33334 23.9521V23.2787C8.36424 22.4017 8.5122 21.5546 8.76261 20.7522Z" fill="url(#paint3_linear_450_3057)"/>
<path fill-rule="evenodd" clip-rule="evenodd" d="M27.564 23.6146C27.564 26.8145 26.003 29.6471 23.5965 31.396L22.7462 30.2262C23.786 29.4781 24.6347 28.4875 25.2211 27.3372C25.8075 26.187 26.1147 24.9105 26.1168 23.6146C26.1168 22.7841 25.9933 21.9816 25.7624 21.2271L27.1412 20.787C27.4176 21.6805 27.564 22.6302 27.564 23.6163V23.6146Z" fill="url(#paint4_linear_450_3057)"/>
<path fill-rule="evenodd" clip-rule="evenodd" d="M22.4503 25.0426C22.4503 24.5418 22.1007 24.3174 21.3251 24.3174H19.4145V25.7646H21.3251C22.1137 25.7646 22.4503 25.5483 22.4503 25.0426ZM21.0568 22.0085H19.4145V23.4557H21.0568C21.7999 23.4557 22.1364 23.2313 22.1364 22.7353C22.1364 22.2378 21.795 22.0085 21.0568 22.0085ZM23.4535 25.1337C23.4535 26.0995 22.6828 26.6491 21.3234 26.6491H18.5154C18.4666 26.6491 18.4341 26.6166 18.4341 26.5694V21.2037C18.4341 21.1565 18.4666 21.1256 18.5154 21.1256H21.0763C22.3982 21.1256 23.125 21.6345 23.125 22.5532C23.125 23.0979 22.8811 23.5353 22.1771 23.7451C23.0681 23.9304 23.4291 24.4556 23.4535 25.1337ZM17.2666 21.2037V21.9532C17.2666 22.002 17.2341 22.0329 17.1853 22.0329H13.9333V23.4329H16.6325C16.6812 23.4329 16.7121 23.4654 16.7121 23.5126V24.2605C16.7121 24.3093 16.6796 24.3418 16.6308 24.3418H13.9349V26.5694C13.9349 26.6182 13.9024 26.6491 13.8536 26.6491H13.0358C12.987 26.6491 12.9545 26.6166 12.9545 26.5694V21.2037C12.9545 21.1565 12.987 21.1256 13.0358 21.1256H17.1869C17.2357 21.1256 17.2682 21.1581 17.2682 21.2037H17.2666Z" fill="#64717D"/>
<path fill-rule="evenodd" clip-rule="evenodd" d="M55.0549 20.3798C55.8526 22.8366 56.7685 25.2535 57.7996 27.6219L60.3199 20.3798H62.3345L58.7232 29.7357C58.2614 30.9341 57.7134 31.8576 57.0793 32.508C56.4452 33.1584 55.5948 33.4836 54.5298 33.4836C54.2647 33.4836 54.0143 33.4625 53.7818 33.4202V31.7861C53.9769 31.817 54.1509 31.8316 54.2972 31.8316C54.9444 31.8316 55.4712 31.6528 55.8777 31.2918C56.2842 30.9324 56.6419 30.404 56.9492 29.7081C56.1864 28.202 55.4749 26.6706 54.8159 25.1163C54.1511 23.5499 53.5168 21.9708 52.9135 20.3798H55.0549ZM47.5754 20.1619C48.7071 20.1619 49.6176 20.4822 50.3071 21.1228C50.9981 21.7651 51.3428 22.7244 51.3428 24.0008V29.4528H49.5705V27.9731C49.2128 28.5065 48.7526 28.9162 48.1933 29.204C47.5996 29.4989 46.9438 29.6467 46.2811 29.6349C45.3071 29.6349 44.551 29.3878 44.0128 28.8951C43.4746 28.4024 43.2047 27.752 43.2047 26.9488C43.2047 26.1504 43.5088 25.4805 44.1153 24.9423C44.7218 24.4057 45.6892 24.1342 47.0193 24.1342H49.5315V24.1082C49.5315 22.583 48.8176 21.8204 47.39 21.8204C46.7917 21.8204 46.2892 21.9261 45.8778 22.1391C45.4697 22.3505 45.138 22.6464 44.886 23.0285L43.621 22.0204C44.0145 21.422 44.5332 20.9619 45.177 20.6415C45.861 20.3116 46.6129 20.1468 47.3721 20.1603H47.5738L47.5754 20.1619ZM37.0812 16.7505C38.7007 16.7505 39.9105 17.1294 40.7105 17.8887C41.5104 18.6481 41.9121 19.6773 41.9121 20.9781C41.9121 22.274 41.5104 23.3033 40.7105 24.0643C39.9105 24.8268 38.7007 25.2073 37.0812 25.2073H33.6081V29.4544H31.6667V16.7505H37.0796H37.0812ZM49.5315 25.5618H47.0925C46.3673 25.5618 45.8486 25.6756 45.5364 25.9033C45.3884 26.0058 45.2683 26.1437 45.1871 26.3044C45.1059 26.4651 45.0661 26.6436 45.0714 26.8236C45.0714 27.6203 45.6079 28.0203 46.6876 28.0203C47.4014 28.0203 47.9949 27.8626 48.4697 27.5439C48.9445 27.2268 49.2989 26.7959 49.5315 26.2512V25.5618ZM36.8975 18.5278H33.6081V23.4285H36.8959C37.9495 23.4285 38.717 23.2252 39.2015 22.8155C39.6845 22.409 39.9251 21.796 39.9251 20.9781C39.9251 20.1619 39.6845 19.5489 39.2015 19.1408C38.717 18.7326 37.9495 18.5278 36.8959 18.5278H36.8975Z" fill="#1B2529"/>
<defs>
<linearGradient id="paint0_linear_450_3057" x1="18.0031" y1="15.8713" x2="10.6017" y2="21.238" gradientUnits="userSpaceOnUse">
<stop stop-color="#24D365"/>
<stop offset="1" stop-color="#139DBD"/>
</linearGradient>
<linearGradient id="paint1_linear_450_3057" x1="17.9462" y1="15.8233" x2="25.3693" y2="21.221" gradientUnits="userSpaceOnUse">
<stop stop-color="#23D068"/>
<stop offset="0.52" stop-color="#EACD36"/>
<stop offset="1" stop-color="#FF6C5C"/>
</linearGradient>
<linearGradient id="paint2_linear_450_3057" x1="12.7934" y1="30.8829" x2="23.1591" y2="30.8829" gradientUnits="userSpaceOnUse">
<stop stop-color="#266FF3"/>
<stop offset="1" stop-color="#C439D6"/>
</linearGradient>
<linearGradient id="paint3_linear_450_3057" x1="11.1902" y1="30.9127" x2="8.08004" y2="21.8389" gradientUnits="userSpaceOnUse">
<stop stop-color="#266FF3"/>
<stop offset="1" stop-color="#149FBA"/>
</linearGradient>
<linearGradient id="paint4_linear_450_3057" x1="25.4404" y1="21.017" x2="22.3237" y2="30.0526" gradientUnits="userSpaceOnUse">
<stop stop-color="#FF6C5C"/>
<stop offset="1" stop-color="#C439D6"/>
</linearGradient>
</defs>
</svg>
