<svg width="70" height="48" viewBox="0 0 70 48" fill="none" xmlns="http://www.w3.org/2000/svg">
<rect x="0.5" y="0.5" width="69" height="47" rx="5.5" fill="#5A31F4" stroke="#D9D9D9"/>
<path d="M39.4089 22.1225C39.4089 25.2027 37.2494 27.4015 34.2316 27.4015H31.3885C31.3572 27.4015 31.3261 27.4077 31.2971 27.4197C31.2681 27.4318 31.2418 27.4494 31.2196 27.4717C31.1975 27.4939 31.18 27.5204 31.1681 27.5494C31.1562 27.5784 31.1501 27.6095 31.1503 27.6409V31.6893C31.1503 31.7526 31.1252 31.8133 31.0805 31.8582C31.0359 31.903 30.9753 31.9284 30.912 31.9287H28.9225C28.8752 31.9285 28.829 31.9143 28.7897 31.888C28.7505 31.8616 28.7198 31.8243 28.7016 31.7806C28.6896 31.7521 28.6833 31.7214 28.6831 31.6904V17.0817C28.6829 17.0503 28.689 17.0192 28.7009 16.9902C28.7128 16.9612 28.7303 16.9347 28.7525 16.9125C28.7746 16.8902 28.8009 16.8726 28.8299 16.8605C28.8589 16.8485 28.89 16.8423 28.9214 16.8423H34.2443C37.2494 16.8388 39.4089 19.0377 39.4089 22.1225ZM36.9278 22.1225C36.9278 20.3516 35.7203 19.0573 34.0824 19.0573H31.3885C31.3572 19.0573 31.3261 19.0635 31.2971 19.0756C31.2681 19.0876 31.2418 19.1053 31.2196 19.1275C31.1975 19.1498 31.18 19.1762 31.1681 19.2052C31.1562 19.2342 31.1501 19.2654 31.1503 19.2967V24.9343C31.1503 24.9975 31.1754 25.0581 31.2201 25.1028C31.2647 25.1475 31.3253 25.1726 31.3885 25.1726H34.0824C35.7203 25.1842 36.9278 23.8887 36.9278 22.1225ZM39.9988 29.1261C39.9781 28.6537 40.0759 28.1836 40.2831 27.7586C40.4904 27.3336 40.8006 26.9671 41.1855 26.6925C41.9616 26.1083 43.175 25.8065 44.9562 25.744L46.8532 25.6769V25.1171C46.8532 23.9951 46.1013 23.5209 44.8938 23.5209C43.6862 23.5209 42.9205 23.9489 42.7447 24.6486C42.7304 24.6978 42.7001 24.7409 42.6586 24.7711C42.6172 24.8012 42.5669 24.8167 42.5157 24.8152H40.6419C40.6074 24.8161 40.5731 24.8095 40.5414 24.7956C40.5098 24.7818 40.4816 24.7612 40.4589 24.7353C40.4361 24.7093 40.4194 24.6787 40.4098 24.6455C40.4003 24.6123 40.3981 24.5775 40.4036 24.5434C40.6812 22.8847 42.0611 21.624 44.9794 21.624C48.0838 21.624 49.2047 23.0698 49.2047 25.8296V31.6893C49.204 31.7532 49.1782 31.8142 49.1326 31.8591C49.0871 31.904 49.0257 31.929 48.9618 31.9287H47.0729C47.0097 31.9285 46.9491 31.9036 46.904 31.8593C46.882 31.8371 46.8644 31.8107 46.8525 31.7818C46.8406 31.7528 46.8345 31.7217 46.8346 31.6904V31.252C46.8353 31.2158 46.825 31.1802 46.8051 31.15C46.7851 31.1197 46.7565 31.0962 46.7229 31.0826C46.6894 31.0689 46.6525 31.0658 46.6171 31.0735C46.5817 31.0813 46.5495 31.0995 46.5247 31.126C45.9579 31.7425 45.043 32.1878 43.5775 32.1878C41.4215 32.1878 39.9988 31.0658 39.9988 29.1261ZM46.8532 27.8561V27.4015L44.3964 27.531C43.1021 27.597 42.3491 28.1348 42.3491 29.0405C42.3491 29.8594 43.0396 30.3128 44.246 30.3128C45.885 30.3128 46.8532 29.428 46.8532 27.8561ZM51.1016 36.3564V34.6584C51.102 34.6228 51.1101 34.5877 51.1256 34.5556C51.141 34.5235 51.1633 34.4952 51.1909 34.4727C51.2185 34.4502 51.2507 34.434 51.2852 34.4253C51.3198 34.4167 51.3558 34.4157 51.3908 34.4225C51.6799 34.4768 51.9749 34.5046 52.2698 34.5057C52.7769 34.5304 53.2776 34.3842 53.6917 34.0907C54.1059 33.7971 54.4096 33.373 54.5542 32.8864L54.6768 32.4955C54.6946 32.4429 54.6946 32.386 54.6768 32.3335L50.7407 22.2243C50.7265 22.1876 50.7214 22.1481 50.7258 22.109C50.7302 22.0699 50.7441 22.0325 50.7661 22C50.7882 21.9675 50.8178 21.9408 50.8525 21.9222C50.8871 21.9037 50.9258 21.8938 50.9651 21.8935H52.8736C52.9224 21.894 52.9698 21.9091 53.0098 21.937C53.0499 21.9648 53.0806 22.0041 53.098 22.0496L55.771 29.1793C55.7878 29.2267 55.8188 29.2677 55.8598 29.2967C55.9008 29.3257 55.9498 29.3413 56.0001 29.3413C56.0503 29.3413 56.0993 29.3257 56.1403 29.2967C56.1813 29.2677 56.2123 29.2267 56.2291 29.1793L58.5505 22.0693C58.5666 22.0207 58.5976 21.9784 58.6392 21.9485C58.6807 21.9186 58.7307 21.9026 58.7818 21.9027H60.7563C60.7958 21.903 60.8347 21.9128 60.8697 21.9313C60.9046 21.9498 60.9346 21.9765 60.957 22.0092C60.9793 22.0418 60.9935 22.0793 60.9982 22.1186C61.003 22.1578 60.9981 22.1977 60.9841 22.2347L56.7739 33.4613C55.8046 36.0707 54.1425 36.7381 52.3126 36.7381C51.9656 36.7474 51.6186 36.7057 51.2832 36.6143C51.2274 36.5996 51.1786 36.5656 51.1454 36.5184C51.1122 36.4713 51.0967 36.4139 51.1016 36.3564ZM15.8985 16.0002C13.3909 15.9824 10.9719 16.9262 9.13892 18.6374C9.06054 18.7092 9.01167 18.8076 9.00184 18.9135C8.992 19.0193 9.0219 19.125 9.08572 19.21L10.2204 20.7599C10.2572 20.8115 10.3048 20.8544 10.36 20.8857C10.4151 20.9169 10.4765 20.9356 10.5396 20.9406C10.6028 20.9455 10.6663 20.9366 10.7257 20.9144C10.785 20.8922 10.8388 20.8572 10.8832 20.812C11.5423 20.1531 12.3261 19.6321 13.1888 19.2796C14.0515 18.9271 14.9758 18.7501 15.9077 18.7589C19.7988 18.7589 21.831 21.6876 21.831 24.5792C21.831 27.7231 19.6958 29.9346 16.6272 29.9786C14.256 29.9786 12.469 28.4066 12.469 26.3304C12.4714 25.8059 12.5903 25.2885 12.8169 24.8154C13.0435 24.3424 13.3723 23.9255 13.7795 23.5949C13.8655 23.523 13.92 23.4202 13.931 23.3086C13.942 23.1969 13.9088 23.0854 13.8385 22.9981L12.6459 21.4921C12.6099 21.4466 12.565 21.4087 12.5141 21.3808C12.4632 21.3528 12.4072 21.3354 12.3494 21.3295C12.2916 21.3235 12.2332 21.3292 12.1776 21.3462C12.1221 21.3632 12.0705 21.3912 12.026 21.4285C11.2936 22.0185 10.7026 22.7651 10.2963 23.6133C9.88997 24.4615 9.67869 25.3899 9.67793 26.3304C9.67793 29.9045 12.7153 32.7083 16.6064 32.7314H16.6584C21.2781 32.6713 24.6186 29.2499 24.6186 24.5735C24.6186 20.421 21.5604 16.0002 15.8996 16.0002H15.8985Z" fill="white"/>
</svg>
