<svg width="70" height="48" viewBox="0 0 70 48" fill="none" xmlns="http://www.w3.org/2000/svg">
<rect x="0.5" y="0.5" width="69" height="47" rx="5.5" fill="white" stroke="#D9D9D9"/>
<path fill-rule="evenodd" clip-rule="evenodd" d="M20 23.1347C20 30.8787 26.3155 37.1942 34.1347 37.1942C35.0944 37.1942 36.0541 37.1102 37.1568 37.0136C38.3866 36.906 39.7942 36.7827 41.5779 36.7431C44.2846 36.7431 47.2168 37.7205 50.4497 40.5775C50.7505 40.8782 51.2016 40.5023 50.9008 40.1264C47.6679 36.1416 44.7357 35.3898 41.8035 34.7131C38.1946 33.8861 36.315 31.9313 35.0369 29.6757C34.8113 29.2246 34.661 29.2998 34.661 29.9013C34.5858 30.8035 34.661 31.6305 34.8113 32.4576H34.3602C29.2477 32.4576 25.0374 28.2472 25.0374 23.1347C25.0374 18.0221 29.2477 13.8118 34.3602 13.8118C39.4728 13.8118 43.6831 18.0221 43.6831 23.1347C43.6831 23.4354 43.6831 23.8113 43.6079 24.1873C42.8561 24.0369 41.5779 24.0369 40.6005 24.1121C40.2246 24.1121 40.2246 24.2625 40.5254 24.3376C43.5327 24.9391 45.6379 26.8187 46.1642 30.2772C46.1642 30.4276 46.2394 30.4276 46.3146 30.3524C47.5175 28.2472 48.2694 25.7661 48.2694 23.1347C48.2694 15.3155 41.9539 9 34.1347 9C26.3155 9 20 15.3907 20 23.1347ZM44.3597 28.9239C44.886 29.1495 45.1115 29.9013 45.1115 30.2772C45.1867 30.8787 45.0363 31.1794 44.8108 31.1794C44.5852 31.1794 44.2845 30.9539 43.9838 30.4276C43.683 29.9013 43.5326 29.375 43.683 29.0743C43.9086 28.9239 44.1341 28.8487 44.3597 28.9239ZM41.2771 31.2546C41.5779 31.2546 41.9538 31.405 42.3297 31.7057C42.9312 32.232 43.1567 32.8335 42.856 33.2846C42.7056 33.5102 42.3297 33.6605 42.029 33.6605C41.6531 33.6605 41.2771 33.5102 41.0516 33.2846C40.4501 32.7583 40.2997 32.0065 40.6757 31.5554C40.7508 31.405 40.9764 31.2546 41.2771 31.2546Z" fill="#F28A1A"/>
</svg>
