<svg width="70" height="48" viewBox="0 0 70 48" fill="none" xmlns="http://www.w3.org/2000/svg">
<rect x="0.5" y="0.5" width="69" height="47" rx="5.5" fill="white" stroke="#D9D9D9"/>
<path d="M21.6555 10.0015H32.687C34.2269 10.0015 35.1847 11.2567 34.8255 12.8017L29.6895 34.8524C29.327 36.3921 27.7853 37.6483 26.2443 37.6483H15.2138C13.676 37.6483 12.7161 36.3921 13.0754 34.8524L18.2135 12.8017C18.5727 11.2567 20.1137 10.0015 21.6555 10.0015Z" fill="#E21836"/>
<path d="M31.7685 10H44.4545C45.9941 10 45.2999 11.2552 44.9377 12.8002L39.8025 34.8509C39.4422 36.3905 39.5546 37.6468 38.0117 37.6468H25.3257C23.7828 37.6468 22.828 36.3905 23.1905 34.8509L28.3254 12.8002C28.69 11.2552 30.2278 10 31.7685 10Z" fill="#00447C"/>
<path d="M43.9515 10H54.9831C56.5251 10 57.4829 11.2552 57.1207 12.8002L51.9855 34.8509C51.6231 36.3905 50.0802 37.6468 48.5384 37.6468H37.512C35.9691 37.6468 35.0122 36.3905 35.3735 34.8509L40.5095 12.8002C40.8687 11.2552 42.4087 10 43.9515 10Z" fill="#007B84"/>
<path d="M24.536 17.0666C23.4016 17.0781 23.0665 17.0666 22.9595 17.0413C22.9184 17.2368 22.1529 20.7681 22.1507 20.771C21.9859 21.4854 21.866 21.9947 21.4586 22.3236C21.2274 22.5147 20.9574 22.607 20.6444 22.607C20.1413 22.607 19.8482 22.3572 19.799 21.8834L19.7896 21.7207C19.7896 21.7207 19.9429 20.7638 19.9429 20.7584C19.9429 20.7584 20.7463 17.5404 20.8902 17.115C20.8977 17.0908 20.8999 17.0781 20.9017 17.0666C19.3379 17.0803 19.0607 17.0666 19.0416 17.0413C19.0311 17.076 18.9924 17.2755 18.9924 17.2755L18.172 20.9025L18.1016 21.2101L17.9652 22.2163C17.9652 22.5147 18.0239 22.7583 18.1406 22.9643C18.5143 23.6174 19.5804 23.7153 20.1835 23.7153C20.9606 23.7153 21.6896 23.5502 22.1822 23.2488C23.0372 22.7436 23.2609 21.9538 23.4604 21.252L23.5529 20.892C23.5529 20.892 24.3806 17.5498 24.5212 17.115C24.5266 17.0908 24.5287 17.0781 24.536 17.0666ZM27.3519 19.7628C27.1524 19.7628 26.7878 19.8112 26.4603 19.9717C26.3415 20.0328 26.2291 20.1032 26.1105 20.1734L26.2175 19.787L26.1589 19.7219C25.4644 19.8626 25.309 19.8814 24.6674 19.9717L24.6136 20.0075C24.5391 20.6251 24.473 21.0895 24.1968 22.3035C24.0917 22.7509 23.9825 23.2027 23.8731 23.649L23.9027 23.7057C24.5601 23.671 24.7596 23.671 25.331 23.6805L25.3772 23.6302C25.4498 23.2583 25.4593 23.1712 25.6201 22.418C25.6956 22.061 25.8532 21.2764 25.9309 20.997C26.0737 20.9308 26.2146 20.8658 26.349 20.8658C26.6692 20.8658 26.6303 21.1451 26.6179 21.2565C26.6042 21.4433 26.4875 22.0537 26.3678 22.5778L26.288 22.916C26.2323 23.1658 26.1713 23.4086 26.1156 23.6563L26.1398 23.7057C26.7878 23.671 26.9855 23.671 27.5388 23.6805L27.6039 23.6302C27.7039 23.0494 27.7332 22.894 27.9107 22.0483L28 21.6598C28.1734 20.8994 28.2605 20.5138 28.1293 20.1997C27.9905 19.8478 27.6577 19.7628 27.3519 19.7628ZM30.4977 20.5589C30.1532 20.6251 29.9336 20.6692 29.7152 20.6977C29.4988 20.7324 29.2877 20.7638 28.9548 20.8101L28.9285 20.834L28.9043 20.8531C28.8696 21.101 28.8454 21.3153 28.7994 21.5673C28.7604 21.8278 28.7005 22.1239 28.6028 22.5492C28.5273 22.8749 28.4883 22.9883 28.4453 23.1029C28.4033 23.2174 28.3571 23.3287 28.2721 23.649L28.292 23.6786L28.3087 23.7057C28.6198 23.6909 28.8233 23.6804 29.0325 23.6786C29.2415 23.671 29.4579 23.6786 29.7929 23.6804L29.8222 23.6565L29.8537 23.6302C29.9021 23.3414 29.9094 23.2637 29.9389 23.1228C29.9682 22.9717 30.0188 22.7625 30.1428 22.2037C30.2014 21.9413 30.2667 21.6797 30.3275 21.4118C30.3907 21.1451 30.4568 20.8824 30.5197 20.62L30.5103 20.5883L30.4977 20.5589ZM30.505 19.4855C30.192 19.3008 29.6427 19.3594 29.273 19.6146C28.9044 19.8646 28.8624 20.2196 29.1743 20.4067C29.4819 20.5863 30.0334 20.5328 30.3999 20.2755C30.7677 20.02 30.8137 19.6683 30.505 19.4855ZM32.3978 23.7636C33.0311 23.7636 33.6802 23.5891 34.1687 23.0712C34.5446 22.6512 34.717 22.0263 34.7767 21.769C34.9711 20.9161 34.8197 20.5179 34.6296 20.2754C34.3408 19.9056 33.8305 19.7871 33.301 19.7871C32.9827 19.7871 32.2244 19.8185 31.6321 20.3646C31.2067 20.7585 31.0101 21.2931 30.8915 21.8056C30.7719 22.3278 30.6342 23.2678 31.4987 23.6176C31.7654 23.7321 32.1499 23.7636 32.3978 23.7636ZM32.3484 21.8446C32.4944 21.1987 32.6667 20.6566 33.1066 20.6566C33.4513 20.6566 33.4763 21.06 33.3231 21.708C33.2956 21.8518 33.1698 22.3866 32.9996 22.6144C32.8808 22.7824 32.7401 22.8843 32.5847 22.8843C32.5385 22.8843 32.2634 22.8843 32.2591 22.4759C32.2569 22.2742 32.2981 22.0683 32.3484 21.8446ZM36.3596 23.6805L36.4091 23.6303C36.4792 23.2584 36.4908 23.171 36.6462 22.4181C36.7239 22.061 36.8847 21.2764 36.9603 20.9971C37.1033 20.9307 37.2418 20.8656 37.3806 20.8656C37.6986 20.8656 37.6599 21.145 37.6473 21.2563C37.6357 21.4434 37.519 22.0535 37.3972 22.5776L37.3217 22.9158C37.2639 23.1659 37.2009 23.4084 37.1453 23.6563L37.1695 23.7058C37.8196 23.6711 38.0097 23.6711 38.5663 23.6805L38.6336 23.6303C38.7312 23.0492 38.7575 22.8938 38.9404 22.0484L39.0275 21.6596C39.2017 20.8992 39.2899 20.5139 39.1608 20.1998C39.0181 19.8479 38.683 19.7629 38.3816 19.7629C38.1818 19.7629 37.8153 19.811 37.4897 19.9718C37.3733 20.0328 37.2566 20.103 37.1421 20.1735L37.2418 19.7871L37.1883 19.7217C36.494 19.8626 36.3354 19.8815 35.6946 19.9718L35.6454 20.0076C35.5677 20.6252 35.5045 21.0893 35.2284 22.3036C35.1233 22.751 35.0141 23.2027 34.9049 23.6491L34.9342 23.7058C35.5927 23.6711 35.7893 23.6711 36.3596 23.6805ZM41.1365 23.7057C41.1773 23.5062 41.4202 22.3236 41.4223 22.3236C41.4223 22.3236 41.6291 21.4559 41.6417 21.4245C41.6417 21.4245 41.7068 21.3341 41.7719 21.2984H41.8676C42.7708 21.2984 43.7906 21.2984 44.59 20.7103C45.134 20.307 45.5059 19.7114 45.6718 18.9876C45.7148 18.8101 45.7465 18.599 45.7465 18.3879C45.7465 18.1107 45.6909 17.8365 45.5301 17.6222C45.1224 17.0518 44.3107 17.0414 43.3736 17.0371C43.3706 17.0371 42.9117 17.0414 42.9117 17.0414C41.7122 17.0562 41.2311 17.0518 41.0335 17.0276C41.0168 17.115 40.9854 17.2705 40.9854 17.2705C40.9854 17.2705 40.5557 19.2618 40.5557 19.265C40.5557 19.265 39.5275 23.4989 39.4791 23.6984C40.5264 23.6858 40.9558 23.6858 41.1365 23.7057ZM41.9326 20.1682C41.9326 20.1682 42.3895 18.1809 42.3873 18.1884L42.4021 18.0865L42.4086 18.0088L42.5911 18.0276C42.5911 18.0276 43.5333 18.1086 43.5554 18.1107C43.9272 18.2546 44.0805 18.6254 43.9735 19.1094C43.8759 19.5517 43.589 19.9235 43.2203 20.1032C42.9168 20.2553 42.5449 20.268 42.1617 20.268H41.9138L41.9326 20.1682ZM44.777 21.8814C44.6563 22.396 44.5175 23.336 45.3777 23.6711C45.652 23.7878 45.8977 23.8225 46.1475 23.8098C46.4113 23.7956 46.6557 23.6633 46.8821 23.4729C46.8617 23.5512 46.8413 23.6294 46.8208 23.7079L46.8598 23.7582C47.4785 23.7321 47.6705 23.7321 48.3408 23.7372L48.4016 23.691C48.4995 23.1156 48.5917 22.5568 48.8461 21.456C48.97 20.9287 49.0937 20.4065 49.2209 19.8814L49.201 19.8236C48.5089 19.9519 48.3239 19.9793 47.6581 20.0737L47.6076 20.1148C47.6009 20.1683 47.5939 20.2197 47.5874 20.271C47.4839 20.1038 47.3338 19.961 47.1023 19.872C46.8063 19.7556 46.111 19.9056 45.5132 20.4498C45.0932 20.8384 44.8916 21.3708 44.777 21.8814ZM46.2306 21.9128C46.3788 21.2785 46.549 20.7418 46.9899 20.7418C47.2688 20.7418 47.4156 20.9992 47.3857 21.438C47.3621 21.5474 47.3365 21.6628 47.3062 21.7932C47.2621 21.9817 47.2142 22.1685 47.1677 22.3557C47.1204 22.4837 47.0652 22.6044 47.0047 22.6848C46.8913 22.8456 46.6213 22.9454 46.4659 22.9454C46.4218 22.9454 46.1497 22.9454 46.1403 22.5442C46.1381 22.3444 46.1793 22.1387 46.2306 21.9128ZM53.8214 19.8185L53.7679 19.7574C53.083 19.8962 52.9591 19.9182 52.3299 20.0032L52.2836 20.0494C52.2815 20.057 52.2796 20.0685 52.2764 20.079L52.2742 20.0685C51.8058 21.1492 51.8195 20.9161 51.4382 21.7668C51.4361 21.7281 51.4361 21.7039 51.4339 21.6627L51.3385 19.8185L51.2785 19.7574C50.5611 19.8962 50.5442 19.9182 49.8817 20.0032L49.83 20.0494C49.8228 20.0715 49.8228 20.0957 49.8185 20.122L49.8228 20.1314C49.9056 20.5547 49.8857 20.4603 49.9688 21.1282C50.0075 21.456 50.0591 21.7856 50.0979 22.1094C50.1632 22.6512 50.1998 22.9179 50.2796 23.7447C49.8322 24.4831 49.7263 24.7625 49.2955 25.4105L49.2985 25.4169L48.9952 25.8966C48.9605 25.9472 48.929 25.9818 48.8849 25.9966C48.8365 26.0206 48.7736 26.0249 48.6862 26.0249H48.5182L48.2684 26.8557L49.1253 26.8705C49.6284 26.8684 49.9446 26.6331 50.1148 26.3169L50.6536 25.3935H50.645L50.7018 25.3285C51.0642 24.5482 53.8214 19.8185 53.8214 19.8185ZM44.777 30.7305H44.4135L45.759 26.2802H46.2053L46.347 25.8217L46.3607 26.3315C46.3441 26.6467 46.592 26.926 47.2432 26.8798H47.9964L48.2556 26.0229H47.9722C47.8092 26.0229 47.7337 25.9817 47.7431 25.8935L47.7294 25.3748H46.3346V25.3775C45.8837 25.3869 44.5371 25.4208 44.2645 25.4934C43.9346 25.5784 43.5869 25.8284 43.5869 25.8284L43.7235 25.3695H42.4189L42.147 26.2802L40.7835 30.7985H40.5189L40.2595 31.6493H42.858L42.7708 31.9329H44.0513L44.1362 31.6493H44.4955L44.777 30.7305ZM43.7109 27.1844C43.5019 27.2422 43.1131 27.4176 43.1131 27.4176L43.4589 26.2802H44.4955L44.2454 27.1089C44.2454 27.1089 43.9252 27.1277 43.7109 27.1844ZM43.7308 28.8093C43.7308 28.8093 43.4051 28.8502 43.1908 28.8986C42.9798 28.9626 42.584 29.1642 42.584 29.1642L42.941 27.9806H43.983L43.7308 28.8093ZM43.15 30.741H42.1102L42.4116 29.7421H43.4482L43.15 30.741ZM45.654 27.9806H47.1528L46.9374 28.6781H45.4187L45.1907 29.4407H46.5195L45.5134 30.8574C45.4429 30.9615 45.3797 30.9983 45.3095 31.0276C45.2391 31.0634 45.1466 31.1053 45.0396 31.1053H44.6709L44.4177 31.9405H45.3819C45.8831 31.9405 46.1791 31.7125 46.3977 31.4132L47.0877 30.4689L47.2358 31.4277C47.2673 31.6073 47.3964 31.7125 47.4838 31.7533C47.5803 31.8017 47.68 31.8848 47.8209 31.8972C47.972 31.9036 48.0812 31.9087 48.1538 31.9087H48.6276L48.9121 30.9741H48.7252C48.6179 30.9741 48.4332 30.9561 48.4017 30.9225C48.3703 30.8816 48.3703 30.8187 48.3533 30.723L48.203 29.762H47.5875L47.8575 29.4407H49.3732L49.6063 28.6781H48.203L48.4216 27.9806H49.8206L50.0801 27.1204H45.9092L45.654 27.9806ZM32.9954 30.9352L33.3452 29.7715H34.7829L35.0456 28.9059H33.6065L33.8262 28.1896H35.2325L35.493 27.3515H31.9744L31.7192 28.1896H32.5186L32.3054 28.9059H31.5039L31.2382 29.7862H32.0373L31.5711 31.3259C31.5082 31.5297 31.6006 31.6074 31.6593 31.7021C31.7192 31.7943 31.78 31.8553 31.9166 31.89C32.0575 31.9215 32.154 31.9403 32.2852 31.9403H33.9061L34.1949 30.9814L33.4764 31.0801C33.3376 31.0801 32.9534 31.0635 32.9954 30.9352ZM33.1603 25.3642L32.7959 26.0227C32.7179 26.1666 32.6478 26.2558 32.5846 26.297C32.5289 26.3317 32.4187 26.3462 32.259 26.3462H32.0689L31.8148 27.1886H32.4461C32.7497 27.1886 32.9828 27.0773 33.0941 27.0216C33.2138 26.9576 33.2452 26.9942 33.3377 26.9049L33.551 26.7202H35.5224L35.784 25.8431H34.3409L34.5929 25.3642H33.1603ZM36.0708 30.9521C36.0372 30.9037 36.0614 30.8185 36.1127 30.641L36.6516 28.8575H38.5685C38.8478 28.8535 39.0495 28.8502 39.1807 28.8408C39.3216 28.826 39.4749 28.7758 39.6418 28.6854C39.8142 28.5908 39.9024 28.491 39.9769 28.3765C40.06 28.2622 40.1933 28.0121 40.3079 27.6265L40.9852 25.3695L38.996 25.3811C38.996 25.3811 38.3835 25.4714 38.1138 25.5712C37.8417 25.6825 37.4529 25.9933 37.4529 25.9933L37.6325 25.3746H36.4037L34.6833 31.0801C34.6223 31.3017 34.5814 31.4625 34.572 31.559C34.5688 31.663 34.7032 31.766 34.7904 31.8437C34.8933 31.9214 35.0455 31.9088 35.1915 31.9214C35.3451 31.933 35.5634 31.9403 35.8648 31.9403H36.8091L37.099 30.9615L36.2536 31.0414C36.1633 31.0414 36.0979 30.993 36.0708 30.9521ZM36.9992 27.6529H39.0127L38.8847 28.0541C38.8667 28.0635 38.8236 28.0342 38.6187 28.0584H36.8753L36.9992 27.6529ZM37.4026 26.3074H39.4329L39.2869 26.7906C39.2869 26.7906 38.33 26.7812 38.1767 26.8094C37.5023 26.9261 37.1084 27.2864 37.1084 27.2864L37.4026 26.3074ZM38.9297 29.3975C38.9131 29.4575 38.8867 29.494 38.8499 29.5215C38.809 29.5478 38.7429 29.5572 38.6442 29.5572H38.3573L38.3742 29.0686H37.1809L37.1325 31.4572C37.1306 31.6295 37.1473 31.7293 37.2734 31.8091C37.3995 31.9089 37.788 31.9215 38.311 31.9215H39.0588L39.3288 31.0275L38.6778 31.0632L38.4613 31.0759C38.4318 31.0632 38.4035 31.0517 38.3721 31.0202C38.3446 30.9931 38.2984 31.0097 38.3059 30.8374L38.311 30.2251L38.9937 30.1969C39.3624 30.1969 39.5199 30.077 39.6544 29.9627C39.7826 29.8533 39.8246 29.7274 39.873 29.5572L39.9875 29.0151H39.0494L38.9297 29.3975Z" fill="#FEFEFE"/>
</svg>
