<svg width="70" height="48" viewBox="0 0 70 48" fill="none" xmlns="http://www.w3.org/2000/svg">
<rect x="0.5" y="0.5" width="69" height="47" rx="5.5" fill="white" stroke="#D9D9D9"/>
<path fill-rule="evenodd" clip-rule="evenodd" d="M12.7257 15.4856C11.4846 15.4875 10.4804 16.3766 10.478 17.4753V17.4753V30.6854V30.6854C10.4783 30.8227 10.4943 30.9567 10.5244 31.0862C10.5578 31.23 10.6088 31.3682 10.6752 31.4989C11.0269 32.1914 11.8121 32.6736 12.7257 32.6752H36.1121V32.6751V15.4856V15.4856H12.7257ZM12.7257 14H57.4839C59.6522 14.0003 61.4088 15.5552 61.4096 17.4753V30.6854C61.4088 32.6049 59.6522 34.1599 57.4839 34.1605H12.7257C10.5573 34.1599 8.80079 32.6049 8.80005 30.6854V17.4753C8.80079 15.5552 10.5573 14.0003 12.7257 14Z" fill="#0F3365"/>
<path fill-rule="evenodd" clip-rule="evenodd" d="M39.9396 28.5245H37.9762V21.4642H39.7871V22.3722H39.809C40.2016 21.6671 41.031 21.3483 41.9256 21.3483C43.4968 21.3483 44.3579 22.6717 44.3579 23.8883C44.3579 25.3759 43.4526 26.6121 41.7616 26.6121C41.0745 26.6121 40.3326 26.3903 39.9615 25.7915H39.9396V28.5245ZM41.1403 25.2793C41.8817 25.2793 42.3291 24.729 42.3291 23.9272C42.3291 23.2604 41.9036 22.6812 41.1403 22.6812C40.4199 22.6812 39.9395 23.2415 39.9395 23.9946C39.9395 24.729 40.4855 25.2793 41.1403 25.2793ZM51.8818 28.5245C52.2857 28.6021 52.6891 28.6407 53.1038 28.6407C54.8022 28.6407 55.2768 27.5488 55.7918 26.3637C55.8228 26.2924 55.8539 26.2208 55.8855 26.1491L57.9696 21.4642H56.0058L54.8382 24.748H54.8165L53.5945 21.4642H51.4788L53.7796 26.6121C53.6387 27.0564 53.2676 27.3077 52.7883 27.3077C52.5147 27.3077 52.2746 27.2792 52.0133 27.2012L51.8818 28.5245ZM51.15 26.6599C51.0629 26.264 51.0406 25.8682 51.0406 25.472V23.5983C51.0406 22.0625 49.7863 21.5123 48.3353 21.5123C47.4949 21.5123 46.7641 21.6181 46.066 21.8697L46.0983 23.0478C46.6443 22.7776 47.2769 22.6712 47.9093 22.6712C48.6187 22.6712 49.1972 22.8547 49.208 23.5407C48.9571 23.5017 48.6083 23.4724 48.2918 23.4724C47.2444 23.4724 45.3572 23.6565 45.3572 25.1921C45.3572 26.2839 46.3608 26.7764 47.4845 26.7764C48.2918 26.7764 48.8373 26.4958 49.2843 25.8682H49.3057C49.3057 26.0214 49.3172 26.1746 49.3288 26.3297C49.337 26.4387 49.3453 26.5485 49.3497 26.6599H51.15ZM47.1895 25.0667C47.1895 24.5838 47.7131 24.4003 48.3787 24.4003C48.5874 24.4003 48.7905 24.4099 48.9803 24.419L48.9804 24.419C49.0586 24.4227 49.1347 24.4263 49.2079 24.4291C49.2079 25.018 48.7391 25.6176 47.9967 25.6176C47.5387 25.6176 47.1895 25.4139 47.1895 25.0667Z" fill="#FFFFFE"/>
<path fill-rule="evenodd" clip-rule="evenodd" d="M20.9105 26.496H22.874V21.4642H20.9105V26.496ZM20.9105 20.6431H22.8741V19.3681H20.9105V20.6431ZM27.6765 21.3483C27.9053 21.3483 28.1453 21.3773 28.3417 21.4058L28.2433 22.8546C28.0255 22.7969 27.8071 22.7969 27.5783 22.7969C26.6619 22.7969 26.149 23.3861 26.149 24.3716V26.496H24.1854V21.4642H25.9746V22.3911H25.9962C26.3345 21.754 26.8256 21.3483 27.6765 21.3483ZM35.028 23.9853C35.028 25.6466 33.5987 26.6121 31.7228 26.6121C29.8465 26.6121 28.4173 25.6466 28.4173 23.9853C28.4173 22.3139 29.8465 21.3483 31.7228 21.3483C33.5987 21.3483 35.028 22.3139 35.028 23.9853ZM30.4464 23.9853C30.4464 24.729 30.8173 25.3951 31.7228 25.3951C32.6282 25.3951 32.9992 24.729 32.9992 23.9853C32.9992 23.2318 32.6282 22.5653 31.7228 22.5653C30.8173 22.5653 30.4464 23.2318 30.4464 23.9853ZM17.7769 21.4642H19.5555V25.9074C19.5555 27.974 18.421 28.6407 16.13 28.6407C15.1919 28.6407 14.4173 28.4665 13.959 28.3222L14.0574 26.9505C14.6573 27.2113 15.1591 27.3656 15.9773 27.3656C17.112 27.3656 17.7227 26.8925 17.7227 25.9074V25.6364H17.7006C17.2318 26.2263 16.5774 26.496 15.792 26.496C14.2318 26.496 13.2609 25.4537 13.2609 23.9657C13.2609 22.4684 14.0574 21.3483 15.8245 21.3483C16.6643 21.3483 17.3409 21.754 17.7556 22.3718H17.7769V21.4642ZM16.4029 22.6812C15.6719 22.6812 15.2901 23.251 15.2901 23.9366C15.2901 24.7187 15.8138 25.1634 16.4029 25.1634C17.1008 25.1634 17.6574 24.642 17.6574 23.8689C17.6574 23.3085 17.2863 22.6812 16.4029 22.6812Z" fill="#D8232A"/>
</svg>
