<svg width="70" height="48" viewBox="0 0 70 48" fill="none" xmlns="http://www.w3.org/2000/svg">
<rect x="0.5" y="0.5" width="69" height="47" rx="5.5" fill="white" stroke="#D9D9D9"/>
<path fill-rule="evenodd" clip-rule="evenodd" d="M39.8213 22.976H42.1131C42.8398 22.9498 43.2817 22.8938 43.4408 22.8062C43.6581 22.6865 43.8039 22.447 43.8765 22.0876C43.9229 21.8484 43.9461 21.4928 43.9461 21.0204C43.9461 20.4417 43.9 20.0128 43.8074 19.7326C43.6751 19.3402 43.3585 19.1011 42.8568 19.0143C42.7577 19.0012 42.5203 18.9942 42.1441 18.9942H39.8213V22.976ZM36.1449 29.6828V16H42.9941C43.9335 16 44.6504 16.0769 45.1429 16.2304C46.2694 16.584 47.0252 17.3079 47.4124 18.402C47.6122 18.9762 47.7121 19.8407 47.7121 20.995C47.7121 22.3829 47.6013 23.3804 47.382 23.9876C46.9427 25.1884 46.0384 25.8801 44.6729 26.0594C44.5123 26.0863 43.8291 26.1104 42.6232 26.1296L42.0129 26.1501H39.8211V29.6828H36.1449ZM17.6852 20.3647H21.1052C21.1273 20.0624 21.1384 19.8364 21.1384 19.6851C21.1384 17.8414 20.3943 16.7194 18.906 16.3189C18.2962 16.155 17.2732 16.0724 15.8378 16.0724C14.9261 16.0724 14.0971 16.1057 13.3499 16.171C12.4519 16.2433 11.7142 16.4855 11.1376 16.898C10.7441 17.1668 10.4589 17.5597 10.2819 18.0773C10.1051 18.5947 10.0166 19.2826 10.0166 20.1405C10.0166 21.2669 10.1803 22.109 10.5076 22.6656C10.8799 23.3206 11.6262 23.7521 12.7459 23.9619C13.1711 24.0348 13.9304 24.11 15.0235 24.1881C16.3847 24.2799 17.1473 24.3523 17.3112 24.4043C17.7495 24.5357 17.9691 24.9023 17.9691 25.5047C17.9691 25.7736 17.9431 25.9934 17.8907 26.1632C17.7921 26.4391 17.5858 26.6384 17.2714 26.7623C17.0948 26.8283 16.6853 26.8612 16.0436 26.8612H14.7864C14.4516 26.8539 14.1669 26.7923 13.9311 26.6749C13.5909 26.5048 13.4204 26.1227 13.4204 25.5286L13.4202 25.4304L13.42 25.244H10C10 26.3574 10.0814 27.1527 10.2458 27.6303C10.5409 28.4881 11.1507 29.0578 12.0757 29.339C12.8294 29.5686 14.1643 29.6828 16.0796 29.6828C17.227 29.6828 18.0801 29.6302 18.6377 29.5249C19.9688 29.2761 20.8242 28.6837 21.205 27.7456C21.4151 27.2343 21.52 26.4276 21.52 25.326C21.52 24.8481 21.4972 24.418 21.4511 24.0379C21.3724 23.4025 21.1256 22.8879 20.7118 22.4941C20.186 21.9895 19.3385 21.6781 18.1696 21.5601C17.8014 21.5207 16.8782 21.4515 15.4 21.3532L14.7103 21.3044C14.4075 21.2848 14.1648 21.2193 13.981 21.1077C13.7244 20.9505 13.5965 20.6225 13.5965 20.1244C13.5965 19.5741 13.741 19.2167 14.0297 19.0524C14.3185 18.8885 14.9105 18.8067 15.8033 18.8067C16.7227 18.8067 17.2845 18.9489 17.488 19.2331C17.6193 19.4252 17.6852 19.8025 17.6852 20.3647ZM10.013 32.3964L10.5257 32.3446C10.5565 32.5177 10.6192 32.6447 10.7134 32.726C10.8079 32.8072 10.9352 32.8477 11.0954 32.8477C11.2651 32.8477 11.3929 32.8117 11.4791 32.7396C11.5651 32.6674 11.608 32.5831 11.608 32.4865C11.608 32.4246 11.5899 32.372 11.554 32.3283C11.5178 32.2848 11.4549 32.2471 11.3649 32.2148C11.3032 32.1937 11.163 32.1558 10.9441 32.1014C10.6622 32.0317 10.4647 31.9457 10.351 31.8436C10.1913 31.7002 10.1114 31.5252 10.1114 31.3187C10.1114 31.1861 10.149 31.0617 10.2244 30.9462C10.2997 30.8305 10.4084 30.7424 10.5501 30.6819C10.6919 30.6215 10.8631 30.5911 11.0636 30.5911C11.3911 30.5911 11.6375 30.6633 11.803 30.8074C11.9686 30.9517 12.0554 31.1441 12.0637 31.3848L11.5356 31.4055C11.513 31.2711 11.4646 31.1745 11.3904 31.1154C11.3163 31.0564 11.2051 31.0269 11.0568 31.0269C10.9037 31.0269 10.784 31.0584 10.6974 31.1215C10.6415 31.1618 10.6137 31.216 10.6137 31.2837C10.6137 31.3456 10.6399 31.3984 10.6921 31.4425C10.7584 31.4983 10.9196 31.5566 11.1758 31.6168C11.4318 31.6773 11.6212 31.7398 11.744 31.8049C11.8667 31.8698 11.9628 31.9586 12.0322 32.0712C12.1015 32.184 12.1363 32.3232 12.1363 32.4888C12.1363 32.6392 12.0947 32.7798 12.0115 32.9109C11.9283 33.0421 11.8108 33.1395 11.6589 33.2033C11.5069 33.267 11.3175 33.2991 11.0906 33.2991C10.7605 33.2991 10.507 33.2222 10.33 33.0685C10.1532 32.9148 10.0474 32.6908 10.013 32.3964ZM12.6838 31.3589H13.1861V33.2523H12.6838V31.3589ZM12.6838 30.6378H13.1861V31.0996H12.6838V30.6378ZM15.0281 33.2522H15.5304V32.0732C15.5304 31.9268 15.5211 31.8142 15.5027 31.7357C15.4843 31.657 15.4517 31.5868 15.4048 31.5249C15.3579 31.463 15.2888 31.412 15.1975 31.3722C15.1062 31.3323 15.0053 31.3122 14.8949 31.3122C14.6447 31.3122 14.4369 31.4205 14.272 31.6371V31.3589H13.806V33.2522H14.3083V32.3929C14.3083 32.1807 14.3209 32.0355 14.3464 31.957C14.3717 31.8783 14.4186 31.8152 14.4872 31.7676C14.5558 31.7199 14.6332 31.696 14.7196 31.696C14.7869 31.696 14.8445 31.7128 14.8924 31.746C14.9403 31.7794 14.9748 31.8263 14.9962 31.8864C15.0174 31.9465 15.0281 32.079 15.0281 32.2838V33.2522ZM16.5462 32.2647C16.5462 32.4663 16.5847 32.6138 16.6619 32.7073C16.739 32.8011 16.8341 32.8477 16.9473 32.8477C17.0684 32.8477 17.1708 32.7998 17.2545 32.7038C17.338 32.6079 17.38 32.4656 17.38 32.2772C17.38 32.0807 17.3398 31.9346 17.2598 31.8391C17.1796 31.7438 17.0785 31.696 16.9561 31.696C16.8371 31.696 16.739 31.743 16.6619 31.8365C16.5847 31.9303 16.5462 32.0728 16.5462 32.2647ZM16.0958 33.3767L16.6653 33.439C16.6749 33.5095 16.697 33.558 16.7314 33.5846C16.7792 33.6224 16.8542 33.6413 16.9566 33.6413C17.0877 33.6413 17.186 33.6218 17.2516 33.5826C17.2955 33.5564 17.329 33.5142 17.3517 33.4559C17.3671 33.4141 17.3749 33.3376 17.3749 33.2257L17.3764 32.9493C17.2282 33.1513 17.0403 33.2522 16.8123 33.2522C16.5579 33.2522 16.3568 33.1447 16.2083 32.9291C16.0918 32.7587 16.0336 32.5466 16.0336 32.293C16.0336 31.9749 16.1098 31.732 16.2625 31.5641C16.4151 31.3962 16.605 31.3122 16.8319 31.3122C17.0658 31.3122 17.2589 31.4153 17.411 31.6212V31.3589H17.8772V33.0609C17.8772 33.2848 17.8588 33.4521 17.8218 33.5627C17.7851 33.6735 17.7333 33.7604 17.6667 33.8234C17.6001 33.8865 17.5113 33.936 17.4001 33.9717C17.2889 34.0074 17.1484 34.0253 16.9785 34.0253C16.6575 34.0253 16.4298 33.9699 16.2954 33.8591C16.161 33.7484 16.0939 33.608 16.0939 33.4378C16.0939 33.4211 16.0946 33.4008 16.0958 33.3767ZM18.9809 30.6378H18.4786V33.2523H18.9809V30.6378ZM20.7298 32.1474C20.7263 32 20.6887 31.8881 20.6169 31.8112C20.5453 31.7345 20.4582 31.696 20.3554 31.696C20.2456 31.696 20.1547 31.7367 20.0832 31.8175C20.0114 31.8984 19.9763 32.0084 19.9774 32.1474H20.7298ZM20.7039 32.6558L21.2011 32.7388C21.1368 32.9212 21.0352 33.0604 20.8965 33.1558C20.7578 33.2514 20.5841 33.2991 20.3758 33.2991C20.0459 33.2991 19.8018 33.191 19.6435 32.975C19.5184 32.8021 19.4559 32.5838 19.4559 32.3198C19.4559 32.0051 19.538 31.7583 19.7024 31.5798C19.8666 31.4014 20.0742 31.3122 20.3253 31.3122C20.6075 31.3122 20.83 31.4059 20.9931 31.5929C21.1562 31.7804 21.2341 32.067 21.2269 32.4535H19.9687C19.9721 32.6025 20.0129 32.7184 20.0908 32.8014C20.1687 32.8841 20.2658 32.9256 20.3821 32.9256C20.4612 32.9256 20.5278 32.9043 20.5816 32.8617C20.6355 32.8192 20.6764 32.7504 20.7039 32.6558ZM22.8704 30.6378V33.2523H24.8538V32.8114H23.3987V32.1007H24.7037V31.6598H23.3987V31.0789H24.8021V30.6378H22.8704ZM26.6492 33.2522V32.9687C26.5801 33.0698 26.4895 33.1501 26.377 33.2097C26.2645 33.2692 26.1458 33.299 26.0208 33.299C25.8934 33.299 25.7794 33.271 25.6782 33.215C25.5771 33.1591 25.5038 33.0804 25.4586 32.9793C25.4133 32.8781 25.3908 32.7381 25.3908 32.5595V31.3589H25.8931V32.2297C25.8931 32.4963 25.9022 32.6596 25.9208 32.7195C25.9392 32.78 25.9726 32.8274 26.0213 32.8626C26.0701 32.8976 26.1317 32.9151 26.2066 32.9151C26.2921 32.9151 26.3689 32.8918 26.4365 32.8447C26.5042 32.7977 26.5505 32.7395 26.5755 32.6697C26.6004 32.6002 26.6129 32.4297 26.6129 32.1585V31.3589H27.1152V33.2522H26.6492ZM27.7168 33.2522H28.2191V32.6668C28.2191 32.3444 28.2332 32.1324 28.2612 32.0313C28.2892 31.9302 28.3276 31.8604 28.3765 31.8215C28.4254 31.783 28.4849 31.7636 28.5553 31.7636C28.6279 31.7636 28.7068 31.791 28.7913 31.8456L28.9441 31.4072C28.8383 31.3439 28.7283 31.3122 28.6143 31.3122C28.5334 31.3122 28.4613 31.3332 28.3977 31.3748C28.3341 31.4167 28.2625 31.501 28.1828 31.6281V31.3589H27.7168V33.2522ZM29.6593 32.3056C29.6593 32.4943 29.7039 32.6386 29.7932 32.7388C29.8826 32.8391 29.9926 32.8892 30.1237 32.8892C30.2546 32.8892 30.3645 32.8391 30.4531 32.7388C30.5418 32.6386 30.5862 32.493 30.5862 32.3021C30.5862 32.116 30.5418 31.9726 30.4531 31.8725C30.3645 31.7722 30.2546 31.7221 30.1237 31.7221C29.9926 31.7221 29.8826 31.7722 29.7932 31.8725C29.7039 31.9726 29.6593 32.1172 29.6593 32.3056ZM29.1467 32.2787C29.1467 32.1117 29.1876 31.95 29.2696 31.7936C29.3515 31.6374 29.4675 31.5181 29.6178 31.4357C29.7679 31.3534 29.9358 31.3122 30.1211 31.3122C30.4072 31.3122 30.6417 31.4055 30.8247 31.5923C31.0075 31.779 31.0989 32.0151 31.0989 32.3003C31.0989 32.5878 31.0065 32.8263 30.8219 33.0154C30.6373 33.2044 30.4048 33.2991 30.1245 33.2991C29.9512 33.2991 29.7858 33.2596 29.6286 33.181C29.4711 33.1022 29.3515 32.9868 29.2696 32.8346C29.1876 32.6824 29.1467 32.4973 29.1467 32.2787ZM33.2626 31.8259V31.0789H33.5165C33.7061 31.0789 33.832 31.0848 33.8948 31.0968C33.98 31.1124 34.0505 31.1512 34.1061 31.2135C34.1618 31.2757 34.1897 31.3548 34.1897 31.4505C34.1897 31.5284 34.1698 31.5966 34.1302 31.6552C34.0906 31.714 34.0357 31.7571 33.9659 31.7847C33.896 31.8122 33.7575 31.8259 33.5503 31.8259H33.2626ZM32.7345 30.6378V33.2523H33.2627V32.2667H33.606C33.8442 32.2667 34.0261 32.2543 34.1519 32.2292C34.2444 32.209 34.3354 32.1678 34.4248 32.1052C34.5143 32.0428 34.5882 31.9568 34.6462 31.8476C34.7044 31.7379 34.7334 31.6031 34.7334 31.4426C34.7334 31.2344 34.683 31.0646 34.5821 30.9333C34.4812 30.8018 34.3561 30.7163 34.2066 30.6771C34.1093 30.6511 33.9004 30.6378 33.58 30.6378H32.7345ZM36.3115 32.3446C36.2473 32.3662 36.1461 32.3917 36.0076 32.4216C35.869 32.4513 35.7784 32.4807 35.7359 32.5093C35.6707 32.5559 35.6383 32.615 35.6383 32.6865C35.6383 32.7571 35.6642 32.8178 35.7162 32.8693C35.7684 32.9206 35.8347 32.9463 35.9154 32.9463C36.0054 32.9463 36.0911 32.9165 36.1729 32.8569C36.2333 32.8114 36.273 32.7559 36.2919 32.6902C36.3048 32.6472 36.3115 32.5654 36.3115 32.4447V32.3446ZM35.6384 31.9347L35.1878 31.8517C35.2389 31.6683 35.3267 31.5327 35.4513 31.4445C35.5761 31.3564 35.7614 31.3122 36.0071 31.3122C36.2303 31.3122 36.3967 31.3388 36.5059 31.3916C36.6151 31.4449 36.6922 31.5121 36.7366 31.5936C36.7812 31.6751 36.8035 31.825 36.8035 32.043L36.7984 32.6289C36.7984 32.7956 36.8064 32.9188 36.8223 32.9978C36.8383 33.077 36.8683 33.1618 36.9123 33.2522H36.4151C36.4018 33.2195 36.3859 33.1709 36.3669 33.1065C36.3586 33.0771 36.3526 33.0579 36.3493 33.0484C36.2638 33.1319 36.1725 33.1946 36.0752 33.2365C35.9779 33.2781 35.8744 33.2991 35.764 33.2991C35.5695 33.2991 35.416 33.2459 35.304 33.14C35.192 33.034 35.1359 32.8998 35.1359 32.7378C35.1359 32.6308 35.1615 32.5351 35.2123 32.4511C35.2635 32.3672 35.3351 32.3027 35.4271 32.2581C35.5192 32.2136 35.652 32.1743 35.8253 32.1409C36.0591 32.0969 36.2212 32.0559 36.3115 32.0177V31.9671C36.3115 31.8695 36.2877 31.7999 36.2399 31.7583C36.1921 31.7168 36.1021 31.696 35.9695 31.696C35.88 31.696 35.8102 31.7138 35.76 31.749C35.7098 31.7843 35.6692 31.8463 35.6384 31.9347ZM37.6974 31.3589H37.1642L37.8849 33.2575C37.855 33.3644 37.8121 33.4526 37.7559 33.522C37.6998 33.591 37.6134 33.6257 37.4963 33.6257C37.4331 33.6257 37.3619 33.6181 37.2832 33.6023L37.3299 33.9949C37.4225 34.0151 37.5173 34.0253 37.6136 34.0253C37.7087 34.0253 37.7941 34.0151 37.8696 33.9947C37.9452 33.9746 38.0085 33.9461 38.0604 33.9097C38.1121 33.8735 38.158 33.8261 38.1977 33.7678C38.2375 33.7094 38.2794 33.6249 38.3235 33.514L39.1113 31.3589H38.5935L38.1507 32.7031L37.6974 31.3589ZM39.5029 31.3589H39.9638V31.6175C40.1293 31.414 40.3264 31.3122 40.555 31.3122C40.6763 31.3122 40.7817 31.3371 40.8711 31.3871C40.9604 31.4372 41.0336 31.5129 41.0906 31.614C41.1738 31.5129 41.2638 31.4372 41.3599 31.3871C41.4564 31.3371 41.5589 31.3122 41.6683 31.3122C41.8075 31.3122 41.9252 31.3405 42.0215 31.3972C42.1177 31.4535 42.1898 31.5367 42.2374 31.6464C42.2717 31.7272 42.2889 31.8582 42.2889 32.0393V33.2522H41.7866V32.1678C41.7866 31.9795 41.7694 31.8582 41.7351 31.8034C41.6887 31.7317 41.6176 31.696 41.5217 31.696C41.4516 31.696 41.3856 31.7174 41.324 31.7604C41.2623 31.8034 41.2179 31.8662 41.1907 31.949C41.1634 32.0317 41.1496 32.1625 41.1496 32.3411V33.2522H40.6473V32.2126C40.6473 32.0277 40.6386 31.9088 40.6207 31.8551C40.6029 31.8014 40.5754 31.7616 40.538 31.7354C40.5005 31.7093 40.45 31.696 40.3858 31.696C40.3088 31.696 40.2394 31.7169 40.1777 31.7586C40.1161 31.8003 40.072 31.8605 40.0451 31.939C40.0185 32.0177 40.0052 32.148 40.0052 32.3303V33.2522H39.5029V31.3589ZM43.9062 31.8112C43.9781 31.8881 44.0156 32 44.0192 32.1474H43.2669C43.2657 32.0084 43.3008 31.8984 43.3726 31.8175C43.444 31.7367 43.535 31.696 43.6447 31.696C43.7474 31.696 43.8348 31.7345 43.9062 31.8112ZM44.4905 32.7388L43.9934 32.6558C43.9659 32.7504 43.9251 32.8192 43.8709 32.8617C43.817 32.9043 43.7506 32.9256 43.6715 32.9256C43.555 32.9256 43.4579 32.8841 43.3802 32.8014C43.3023 32.7184 43.2616 32.6025 43.2579 32.4535H44.5164C44.5235 32.067 44.4454 31.7804 44.2824 31.5929C44.1193 31.4059 43.8969 31.3122 43.6147 31.3122C43.3635 31.3122 43.156 31.4014 42.9916 31.5798C42.8276 31.7583 42.7452 32.0051 42.7452 32.3198C42.7452 32.5838 42.8077 32.8021 42.9328 32.975C43.0912 33.191 43.3353 33.2991 43.6651 33.2991C43.8735 33.2991 44.0471 33.2514 44.1859 33.1558C44.3246 33.0604 44.426 32.9212 44.4905 32.7388ZM46.7517 33.2522H46.2494V32.2838C46.2494 32.079 46.2386 31.9465 46.2176 31.8864C46.1962 31.8263 46.1616 31.7794 46.1137 31.746C46.0658 31.7128 46.0081 31.696 45.9408 31.696C45.8547 31.696 45.7771 31.7199 45.7087 31.7676C45.6401 31.8152 45.5932 31.8783 45.5676 31.957C45.5423 32.0355 45.5295 32.1807 45.5295 32.3929V33.2522H45.0273V31.3589H45.4932V31.6371C45.6583 31.4205 45.8659 31.3122 46.1162 31.3122C46.2265 31.3122 46.3276 31.3323 46.4188 31.3722C46.5101 31.412 46.5793 31.463 46.6262 31.5249C46.6731 31.5868 46.7056 31.657 46.724 31.7357C46.7426 31.8142 46.7517 31.9268 46.7517 32.0732V33.2522ZM48.2338 31.7583V31.3589H47.8919V30.6846L47.3896 30.9802V31.3589H47.1617V31.7583H47.3896V32.5859C47.3896 32.7634 47.3947 32.8814 47.4055 32.9398C47.4184 33.022 47.4416 33.0872 47.4753 33.1354C47.5091 33.1837 47.5619 33.2232 47.6339 33.2534C47.706 33.2838 47.7867 33.2991 47.8766 33.2991C48.023 33.2991 48.154 33.274 48.2699 33.224L48.226 32.8359C48.1395 32.868 48.0738 32.8841 48.0281 32.8841C47.9955 32.8841 47.9679 32.8756 47.9451 32.859C47.9224 32.8422 47.9078 32.8211 47.9015 32.7954C47.895 32.7699 47.8919 32.6794 47.8919 32.5243V31.7583H48.2338ZM48.5162 32.7181L49.0185 32.6402C49.0398 32.737 49.0831 32.8104 49.1482 32.8607C49.2135 32.911 49.3047 32.9359 49.422 32.9359C49.5514 32.9359 49.6487 32.912 49.7138 32.8641C49.7577 32.8305 49.7798 32.7858 49.7798 32.7294C49.7798 32.6912 49.7677 32.6593 49.7438 32.6344C49.7186 32.6103 49.6626 32.5883 49.5754 32.5678C49.1696 32.478 48.9122 32.3962 48.8039 32.3223C48.6534 32.2199 48.5783 32.0773 48.5783 31.8952C48.5783 31.7306 48.6431 31.5923 48.7732 31.4804C48.9035 31.3683 49.1051 31.3122 49.3784 31.3122C49.6386 31.3122 49.8318 31.3542 49.9584 31.4381C50.0848 31.5221 50.172 31.6461 50.2199 31.8102L49.7486 31.8984C49.7282 31.8248 49.6894 31.7682 49.6324 31.7291C49.5753 31.6897 49.4939 31.6701 49.3883 31.6701C49.2551 31.6701 49.1595 31.6886 49.102 31.7259C49.0634 31.7521 49.0443 31.7862 49.0443 31.828C49.0443 31.864 49.0609 31.8946 49.0944 31.9198C49.1396 31.9532 49.2962 32.0005 49.5638 32.0616C49.8315 32.1226 50.0184 32.1973 50.1246 32.2858C50.2293 32.3755 50.282 32.5004 50.282 32.6606C50.282 32.8351 50.2095 32.9852 50.0648 33.1107C49.9198 33.2363 49.7057 33.2991 49.422 33.2991C49.1646 33.2991 48.9608 33.2468 48.8107 33.1427C48.6605 33.0383 48.5624 32.897 48.5162 32.7181ZM52.9742 31.25L53.3391 32.2201H52.6216L52.9742 31.25ZM53.739 33.2523H54.3078L53.2538 30.6378H52.6983L51.6873 33.2523H52.2463L52.4613 32.661H53.5133L53.739 33.2523ZM55.1698 33.2522H54.6676V31.3589H55.1335V31.6281C55.2133 31.501 55.2847 31.4167 55.3485 31.3748C55.4119 31.3332 55.484 31.3122 55.5651 31.3122C55.6791 31.3122 55.7889 31.3439 55.8948 31.4072L55.742 31.8456C55.6574 31.791 55.5787 31.7636 55.5061 31.7636C55.4355 31.7636 55.376 31.783 55.3271 31.8215C55.2782 31.8604 55.2398 31.9302 55.2119 32.0313C55.1838 32.1324 55.1698 32.3444 55.1698 32.6668V33.2522ZM57.2326 31.8112C57.3042 31.8881 57.3418 32 57.3454 32.1474H56.5931C56.5918 32.0084 56.6271 31.8984 56.6988 31.8175C56.7704 31.7367 56.861 31.696 56.9711 31.696C57.0737 31.696 57.1608 31.7345 57.2326 31.8112ZM57.8167 32.7388L57.3195 32.6558C57.2919 32.7504 57.2511 32.8192 57.1972 32.8617C57.1432 32.9043 57.0768 32.9256 56.9975 32.9256C56.8814 32.9256 56.7843 32.8841 56.7062 32.8014C56.6285 32.7184 56.5877 32.6025 56.5841 32.4535H57.8425C57.8496 32.067 57.7716 31.7804 57.6087 31.5929C57.4455 31.4059 57.2229 31.3122 56.9409 31.3122C56.6898 31.3122 56.482 31.4014 56.3179 31.5798C56.1536 31.7583 56.0714 32.0051 56.0714 32.3198C56.0714 32.5838 56.1338 32.8021 56.259 32.975C56.4172 33.191 56.6615 33.2991 56.9914 33.2991C57.1997 33.2991 57.3734 33.2514 57.5121 33.1558C57.6508 33.0604 57.7524 32.9212 57.8167 32.7388ZM59.3995 32.3446C59.3356 32.3662 59.2342 32.3917 59.0956 32.4216C58.9571 32.4513 58.8666 32.4807 58.824 32.5093C58.7587 32.5559 58.7264 32.615 58.7264 32.6865C58.7264 32.7571 58.7523 32.8178 58.8045 32.8693C58.8565 32.9206 58.9228 32.9463 59.0035 32.9463C59.0935 32.9463 59.1791 32.9165 59.261 32.8569C59.3213 32.8114 59.3611 32.7559 59.38 32.6902C59.3929 32.6472 59.3995 32.5654 59.3995 32.4447V32.3446ZM58.7263 31.9347L58.2758 31.8517C58.3268 31.6683 58.4146 31.5327 58.5392 31.4445C58.664 31.3564 58.8493 31.3122 59.0951 31.3122C59.3183 31.3122 59.4846 31.3388 59.5939 31.3916C59.7031 31.4449 59.7801 31.5121 59.8245 31.5936C59.8691 31.6751 59.8915 31.825 59.8915 32.043L59.8863 32.6289C59.8863 32.7956 59.8943 32.9188 59.9102 32.9978C59.9263 33.077 59.9563 33.1618 60 33.2522H59.503C59.4898 33.2195 59.474 33.1709 59.4548 33.1065C59.4467 33.0771 59.4406 33.0579 59.4373 33.0484C59.3517 33.1319 59.2606 33.1946 59.1633 33.2365C59.0661 33.2781 58.9623 33.2991 58.8519 33.2991C58.6574 33.2991 58.5039 33.2459 58.3919 33.14C58.2801 33.034 58.2241 32.8998 58.2241 32.7378C58.2241 32.6308 58.2494 32.5351 58.3004 32.4511C58.3515 32.3672 58.4231 32.3027 58.515 32.2581C58.6072 32.2136 58.7399 32.1743 58.9133 32.1409C59.1471 32.0969 59.3092 32.0559 59.3995 32.0177V31.9671C59.3995 31.8695 59.3756 31.7999 59.3279 31.7583C59.2802 31.7168 59.19 31.696 59.0574 31.696C58.9679 31.696 58.8982 31.7138 58.848 31.749C58.7979 31.7843 58.7572 31.8463 58.7263 31.9347ZM53.1067 18.7212L54.8292 24.6524H51.4351L53.1067 18.7212ZM50.6442 27.318H55.5594L56.2607 29.6828H59.9844L55.8299 16H50.2844L46.1803 29.6828H49.9838L50.6442 27.318Z" fill="#10298E"/>
<path fill-rule="evenodd" clip-rule="evenodd" d="M31.0708 17.925C32.5871 17.925 33.9404 18.6247 34.8299 19.7206L35.6224 18.0187C34.383 16.8452 32.6962 16.1218 30.8357 16.1218C27.939 16.1218 25.461 17.8742 24.4441 20.3549H22.8988L21.9863 22.3143H23.9742C23.9593 22.4961 23.9497 22.678 23.9497 22.8636C23.9497 23.0882 23.9613 23.3101 23.9835 23.5294H22.9844L22.0722 25.4895H24.4914C25.5374 27.9074 27.9844 29.6049 30.8357 29.6049C32.2726 29.6049 33.6059 29.1737 34.7099 28.437V26.0348C33.8209 27.0487 32.5205 27.6895 31.0708 27.6895C29.3762 27.6895 27.8856 26.8142 27.0176 25.4895H32.0837L32.9959 23.5294H26.2722C26.2376 23.2935 26.219 23.0525 26.219 22.807C26.219 22.641 26.2276 22.4767 26.2436 22.3143H33.5614L34.4736 20.3549H26.8764C27.7166 18.9024 29.2801 17.925 31.0708 17.925Z" fill="#FFBE00"/>
</svg>
