<svg width="70" height="48" viewBox="0 0 70 48" fill="none" xmlns="http://www.w3.org/2000/svg">
<rect x="0.5" y="0.5" width="69" height="47" rx="5.5" fill="#FEB4C7" stroke="#D9D9D9"/>
<path fill-rule="evenodd" clip-rule="evenodd" d="M10.8483 30.7592H8V18H10.8483V30.7592ZM17.9594 18H15.1729C15.1729 20.348 14.1228 22.5031 12.292 23.9131L11.188 24.7631L15.4656 30.7598H18.9826L15.0467 25.2419C16.9124 23.3319 17.9594 20.7623 17.9594 18ZM22.5025 30.7558H19.8126V18.0024H22.5025V30.7558ZM30.6297 21.9338V22.4981C29.9038 21.9891 29.0278 21.6899 28.0829 21.6899C25.5822 21.6899 23.555 23.774 23.555 26.345C23.555 28.9159 25.5822 31 28.0829 31C29.0278 31 29.9038 30.7008 30.6297 30.1919V30.7558H33.1989V21.9338H30.6297ZM30.6219 26.345C30.6219 27.5986 29.5795 28.6148 28.2938 28.6148C27.0082 28.6148 25.9658 27.5986 25.9658 26.345C25.9658 25.0914 27.0082 24.0754 28.2938 24.0754C29.5795 24.0754 30.6219 25.0914 30.6219 26.345ZM57.7342 22.4981V21.9338H60.3033V30.7558H57.7342V30.1919C57.0084 30.7008 56.1323 31 55.1873 31C52.6866 31 50.6594 28.9159 50.6594 26.345C50.6594 23.774 52.6866 21.6899 55.1873 21.6899C56.1323 21.6899 57.0084 21.9891 57.7342 22.4981ZM55.3983 28.6148C56.684 28.6148 57.7262 27.5986 57.7262 26.345C57.7262 25.0914 56.684 24.0754 55.3983 24.0754C54.1125 24.0754 53.0703 25.0914 53.0703 26.345C53.0703 27.5986 54.1125 28.6148 55.3983 28.6148ZM46.094 21.6965C45.0677 21.6965 44.0964 22.0241 43.447 22.9278V21.9343H40.8889V30.7558H43.4784V26.1198C43.4784 24.7782 44.3535 24.1213 45.4071 24.1213C46.5362 24.1213 47.1853 24.8148 47.1853 26.1015V30.7558H49.7515V25.1457C49.7515 23.0927 48.1637 21.6965 46.094 21.6965ZM37.1733 21.9339V23.0829C37.6883 22.3937 38.6479 21.9344 39.6912 21.9344V24.5015L39.683 24.5012L39.677 24.5009L39.6714 24.5006L39.6607 24.5003C38.6442 24.5003 37.1792 25.2473 37.1792 26.6369V30.7558H34.5429V21.9339H37.1733ZM61.4184 29.2843C61.4184 28.3688 62.1402 27.6267 63.0306 27.6267C63.9209 27.6267 64.6429 28.3688 64.6429 29.2843C64.6429 30.1995 63.9209 30.9417 63.0306 30.9417C62.1402 30.9417 61.4184 30.1995 61.4184 29.2843Z" fill="#17120F"/>
</svg>
