<svg width="70" height="48" viewBox="0 0 70 48" fill="none" xmlns="http://www.w3.org/2000/svg">
<rect x="0.5" y="0.5" width="69" height="47" rx="5.5" fill="white" stroke="#D9D9D9"/>
<path d="M31.2739 27.7117C31.134 27.7841 30.9765 27.8259 30.8091 27.8259C30.4215 27.8259 30.0846 27.6076 29.9077 27.2845L29.84 27.1328L27.0181 20.7936C26.9877 20.7247 26.9688 20.6467 26.9688 20.5708C26.9688 20.2786 27.2002 20.042 27.4856 20.042C27.6014 20.042 27.7086 20.0812 27.7947 20.1468L31.1247 22.5741C31.3679 22.7368 31.6586 22.8324 31.9711 22.8324C32.1576 22.8324 32.3354 22.7969 32.5012 22.7351L48.1608 15.6C45.3538 12.2134 40.731 10 35.4997 10C26.9391 10 20 15.9201 20 23.2235C20 27.2076 22.0877 30.7943 25.3556 33.2185C25.6177 33.4102 25.7894 33.7249 25.7894 34.0802C25.7894 34.1977 25.7648 34.3049 25.7347 34.417C25.4737 35.4136 25.056 37.0098 25.0366 37.0846C25.004 37.2096 24.9532 37.3403 24.9532 37.4712C24.9532 37.7633 25.1844 38 25.4702 38C25.5821 38 25.6738 37.9573 25.7684 37.9016L29.1617 35.8959C29.417 35.7453 29.6872 35.6516 29.985 35.6516C30.1434 35.6516 30.2964 35.6768 30.4403 35.7219C32.0233 36.188 33.7313 36.447 35.4998 36.447C44.0599 36.447 51 30.5265 51 23.2235C51 21.0114 50.3596 18.9281 49.2343 17.0955L31.3875 27.6447L31.2739 27.7117Z" fill="#1AAD19"/>
</svg>
