<svg width="70" height="48" viewBox="0 0 70 48" fill="none" xmlns="http://www.w3.org/2000/svg">
<rect x="0.5" y="0.5" width="69" height="47" rx="5.5" fill="white" stroke="#D9D9D9"/>
<path fill-rule="evenodd" clip-rule="evenodd" d="M37.6109 16.2839L34.055 17.047V14.1641L37.6109 13.4151V16.2839ZM23.1607 15.0544L19.704 15.7892L19.6899 27.109C19.6899 29.2006 21.2624 30.741 23.359 30.741C24.5207 30.741 25.3707 30.529 25.8382 30.2746V27.4058C25.3849 27.5895 23.1465 28.2396 23.1465 26.148V21.1312H25.8382V18.121H23.1465L23.1607 15.0544ZM61 24.3533C61 20.7355 59.2433 17.8808 55.8858 17.8808C52.5142 17.8808 50.4742 20.7355 50.4742 24.325C50.4742 28.5788 52.8825 30.7268 56.3392 30.7268C58.025 30.7268 59.3 30.3453 60.2633 29.8083V26.9818C59.3 27.4623 58.195 27.7591 56.7925 27.7591C55.4183 27.7591 54.2 27.2786 54.0442 25.611H60.9717C60.9717 25.5332 60.9768 25.3563 60.9826 25.1525V25.1524V25.1524V25.1523C60.9906 24.8753 61 24.5487 61 24.3533ZM54.0016 23.0107C54.0016 21.4138 54.9791 20.7496 55.8716 20.7496C56.7358 20.7496 57.6566 21.4138 57.6566 23.0107H54.0016ZM14.7884 20.9475C14.0375 20.9475 13.5842 21.1595 13.5842 21.7106C13.5842 22.3124 14.3644 22.5771 15.3323 22.9055C16.9102 23.4409 18.9871 24.1455 18.9959 26.7558C18.9959 29.2854 16.97 30.741 14.0234 30.741C12.805 30.741 11.4733 30.5008 10.1558 29.9355V26.5721C11.3458 27.2221 12.8475 27.7026 14.0234 27.7026C14.8167 27.7026 15.3834 27.4906 15.3834 26.8406C15.3834 26.174 14.5376 25.8693 13.5166 25.5015C11.9616 24.9413 10 24.2347 10 21.8802C10 19.3788 11.9125 17.8808 14.7884 17.8808C15.9642 17.8808 17.1259 18.0645 18.3017 18.5309V21.8519C17.225 21.2725 15.865 20.9475 14.7884 20.9475ZM30.2443 19.1668L30.0176 18.121H26.9576V30.4866H30.4993V22.1063C31.3351 21.0181 32.7518 21.216 33.1909 21.3714V18.121C32.7376 17.9515 31.0801 17.6406 30.2443 19.1668ZM34.0548 18.1211H37.6107V30.4866H34.0548V18.1211ZM42.229 18.9831C42.7248 18.5309 43.6173 17.8808 45.0057 17.8808C47.4848 17.8808 49.8223 20.1137 49.8365 24.212C49.8365 28.6918 47.5273 30.7269 44.9915 30.7269C43.7448 30.7269 42.994 30.204 42.484 29.8365L42.4698 33.8359L38.9281 34.5849V18.1069H42.0448L42.229 18.9831ZM42.4839 26.9536C42.8239 27.321 43.3198 27.6178 44.1556 27.6178C45.4589 27.6178 46.3373 26.2046 46.3373 24.3109C46.3373 22.4596 45.4448 21.0181 44.1556 21.0181C43.3481 21.0181 42.8381 21.3007 42.4698 21.7106L42.4839 26.9536Z" fill="#6461FC"/>
</svg>
