<svg width="70" height="48" viewBox="0 0 70 48" fill="none" xmlns="http://www.w3.org/2000/svg">
<rect x="0.5" y="0.5" width="69" height="47" rx="5.5" fill="white" stroke="#D9D9D9"/>
<path fill-rule="evenodd" clip-rule="evenodd" d="M30.2689 24.9383H28.051V24.0679C28.051 22.9359 28.6977 22.612 29.2556 22.612C29.8712 22.612 30.3507 22.8852 30.3507 22.8852L31.1058 21.1596C31.1058 21.1596 30.3403 20.6593 28.949 20.6593C27.3847 20.6593 25.6049 21.5411 25.6049 24.3089V24.9383H21.8919V24.0679C21.8919 22.9359 22.5386 22.612 23.0954 22.612C23.4124 22.612 23.8389 22.6858 24.1916 22.8852L24.9467 21.1596C24.4959 20.8944 23.772 20.6593 22.7899 20.6593C21.2256 20.6593 19.4458 21.5411 19.4458 24.3089V24.9383H18.0256V26.8264H19.4458V33.4974H21.8919V26.8264H25.6049V33.4974H28.051V26.8264H30.2689V24.9383ZM12.4098 31.9617C11.7666 31.9617 11.4461 31.6458 11.4461 31.1236C11.4461 30.1576 12.5274 29.8268 14.5009 29.6181C14.5009 30.9104 13.6271 31.9617 12.4098 31.9617ZM13.2605 24.6867C11.8507 24.6867 10.2277 25.3518 9.34697 26.0539L10.1516 27.7472C10.8582 27.1006 12.0006 26.5484 13.0311 26.5484C14.0098 26.5484 14.5504 26.8758 14.5504 27.534C14.5504 27.9789 14.1919 28.2026 13.5141 28.2902C10.985 28.6199 9 29.3173 9 31.2677C9 32.8135 10.1009 33.7496 11.8208 33.7496C13.0473 33.7496 14.1401 33.0671 14.66 32.1669V33.4971H16.947V27.9236C16.947 25.6216 15.347 24.6867 13.2605 24.6867ZM36.2278 24.9382V33.4973H38.6763V29.374C38.6763 27.4132 39.8624 26.838 40.6901 26.838C41.0129 26.838 41.4486 26.9313 41.7368 27.1469L42.1829 24.8841C41.8048 24.7227 41.4094 24.6869 41.0855 24.6869C39.8267 24.6869 39.0359 25.2449 38.5137 26.3769V24.9382H36.2278ZM50.7664 26.1903C51.2702 25.4526 52.2373 24.6872 53.5319 24.6872C55.0961 24.6872 56.3907 25.6578 56.3907 27.5817V33.4976H53.9445V28.3552C53.9445 27.222 53.2621 26.7517 52.6154 26.7517C51.8062 26.7517 50.997 27.4918 50.997 29.0918V33.4976H48.5509V28.3725C48.5509 27.2048 47.9076 26.7517 47.2079 26.7517C46.4344 26.7517 45.6068 27.5091 45.6068 29.0918V33.4976H43.1572V24.9385H45.5169V26.233C45.9307 25.4065 46.8264 24.6872 48.1209 24.6872C49.3071 24.6872 50.2984 25.237 50.7664 26.1903ZM34.1732 33.4977H31.7294V24.9386H34.1732V33.4977Z" fill="#060809"/>
<path fill-rule="evenodd" clip-rule="evenodd" d="M45.9867 13C39.3792 13 33.4898 17.5868 31.8184 23.4842H34.2138C35.6097 19.0922 40.3486 15.2375 45.9867 15.2375C52.8397 15.2375 58.7625 20.4548 58.7625 28.577C58.7625 30.4006 58.5262 32.0444 58.0789 33.4969H60.4029L60.4259 33.4173C60.8063 31.9188 61 30.2911 61 28.577C61 19.5187 54.3994 13 45.9867 13Z" fill="#0FA0EA"/>
</svg>
