<svg width="70" height="48" viewBox="0 0 70 48" fill="none" xmlns="http://www.w3.org/2000/svg">
<rect x="0.5" y="0.5" width="69" height="47" rx="5.5" fill="white" stroke="#D9D9D9"/>
<path d="M10.7435 20.6158C10.2829 20.6158 10.2375 20.4633 10.2375 19.3518V19.1622C10.2375 18.0469 10.2829 17.8959 10.7435 17.8959H21.2758C21.738 17.8959 21.7834 18.0469 21.7834 19.1606V19.3503C21.7834 20.4633 21.7372 20.6151 21.2758 20.6151H10.7435V20.6158ZM10.7435 15.7215C10.2829 15.7215 10.2375 15.5697 10.2375 14.4567V14.267C10.2375 13.1502 10.2829 13 10.7435 13H21.2758C21.738 13 21.7834 13.1517 21.7834 14.267V14.4567C21.7834 15.5697 21.7372 15.7215 21.2758 15.7215H10.7435ZM12.3213 30.2566C12.3213 28.4145 13.264 27.4016 14.6824 27.4016C15.2179 27.4016 15.6467 27.5503 16.183 27.8045C16.3774 27.8986 16.5384 27.8606 16.7934 27.2848L16.979 26.8933C17.1623 26.4214 17.1759 26.2264 16.9535 26.1217C16.2961 25.7552 15.2785 25.5238 14.3995 25.5238C11.895 25.5238 10 27.413 10 30.2566C10 33.0995 11.895 34.9886 14.3988 34.9886C15.2785 34.9886 16.3192 34.758 16.979 34.3892C17.199 34.2868 17.1846 34.0896 17.0029 33.6177L16.8197 33.2042C16.5647 32.6275 16.4029 32.5949 16.2069 32.6845C15.6706 32.9401 15.2187 33.0888 14.6824 33.0888C13.264 33.0888 12.3237 32.098 12.3237 30.2566H12.3221H12.3213ZM42.1643 34.5531C42.1643 34.8035 42.0655 34.8718 41.322 34.8718H41.2479C40.4645 34.8718 40.3554 34.8376 40.294 34.6548C40.2529 34.5307 40.2202 34.4042 40.196 34.2762C39.7816 34.7481 39.282 35 38.521 35C36.6754 35 35.5661 33.7102 35.5661 31.6359C35.5661 29.394 36.8005 28.0662 38.6309 28.0662C39.1465 28.0662 39.6214 28.218 39.988 28.4942V25.5807C39.988 25.3858 40.0119 25.3046 41.0399 25.3046H41.114C42.0655 25.3046 42.1635 25.3858 42.1635 25.5807V34.5531H42.1643ZM39.9888 30.1299C39.8631 29.9991 39.7102 29.8948 39.5398 29.8234C39.3694 29.7521 39.1852 29.7154 38.9991 29.7157C38.1799 29.7157 37.791 30.3932 37.791 31.6374C37.791 32.3506 37.9496 32.8036 38.1799 33.041C38.3871 33.2861 38.7058 33.365 39.0126 33.365C39.3911 33.365 39.6836 33.2762 39.8191 33.1116C39.9394 32.9857 39.988 32.7907 39.988 32.3415V30.1292L39.9896 30.1299H39.9888ZM53.2536 34.5986C53.2536 34.7921 53.1556 34.8718 52.2017 34.8718H52.1284C51.102 34.8718 51.0805 34.7921 51.0805 34.5986V25.5807C51.0805 25.3858 51.102 25.3046 52.1276 25.3046H52.2009C53.154 25.3046 53.2528 25.3858 53.2528 25.5807V34.5986H53.2536ZM45.6004 32.2012C45.7215 33.0183 46.2586 33.4113 47.1025 33.4113C47.7519 33.4113 48.36 33.2747 49.0708 32.9857C49.219 32.9288 49.3521 32.9857 49.5091 33.4432L49.6206 33.6996C49.7776 34.1715 49.7641 34.2762 49.5951 34.3665C48.7504 34.8149 47.8715 34.9985 46.8937 34.9985C44.7326 34.9985 43.3771 33.7466 43.3771 31.6033C43.3771 29.5192 44.6226 28.0662 46.7606 28.0662C48.8755 28.0662 49.9609 29.4956 49.9609 31.4758C49.9609 32.1329 49.9011 32.2012 49.6565 32.2012H45.6004ZM47.7854 30.9243C47.752 30.2354 47.4587 29.6345 46.7375 29.6345C46.112 29.6345 45.6594 30.0821 45.5741 30.9243H47.7854ZM56.6387 32.2012C56.7582 33.0183 57.2969 33.4113 58.1416 33.4113C58.7855 33.4113 59.3991 33.2747 60.1075 32.9857C60.2525 32.9288 60.3896 32.9857 60.5474 33.4432L60.6581 33.6996C60.8151 34.1715 60.8024 34.2762 60.6342 34.3665C59.7895 34.8149 58.909 34.9985 57.9304 34.9985C55.7685 34.9985 54.4146 33.7466 54.4146 31.6033C54.4146 29.5192 55.6578 28.0662 57.7966 28.0662C59.9131 28.0662 61 29.4956 61 31.4758C61 32.1329 60.9386 32.2012 60.694 32.2012H56.6379H56.6387ZM58.8261 30.9243C58.7863 30.2354 58.4954 29.6345 57.7743 29.6345C57.1511 29.6345 56.6969 30.0821 56.6124 30.9243H58.8261ZM32.0886 30.1754C31.9785 30.0371 31.8364 29.9248 31.6733 29.8471C31.5102 29.7695 31.3306 29.7287 31.1483 29.7278C30.3291 29.7278 29.9394 30.4068 29.9394 31.6147C29.9394 32.6389 30.2295 33.3999 31.122 33.3999C31.4535 33.3999 31.6957 33.3195 31.8686 33.1564C32.0264 32.997 32.0886 32.777 32.0886 32.296V30.1754ZM34.288 34.5531C34.288 34.8035 34.1915 34.8718 33.4465 34.8718H33.346C32.5651 34.8718 32.4551 34.8376 32.3946 34.6548C32.3526 34.5309 32.3199 34.4044 32.2966 34.2762C31.8822 34.7481 31.3802 35 30.6215 35C28.8501 35 27.7129 33.7315 27.7129 31.6617C27.7129 29.3591 29.1186 28.0662 30.7809 28.0662C31.4535 28.0662 32.0384 28.3333 32.3571 28.7127L32.3946 28.4244C32.4049 28.2878 32.444 28.1967 33.2472 28.1967H33.3341C34.166 28.1967 34.2864 28.2521 34.2864 28.4623V34.5531H34.288ZM24.0887 26.2507C24.9063 26.2507 24.9558 26.2605 24.9558 26.514V28.1952H26.3622C26.5567 28.1952 26.6172 28.2294 26.6172 28.8621V28.9554C26.6172 29.5867 26.5567 29.6231 26.3622 29.6231H24.9558V32.6404C24.9558 33.1457 25.0522 33.4113 25.5407 33.4113C25.7957 33.4113 26.0188 33.365 26.2387 33.2975C26.4698 33.2133 26.5575 33.3195 26.7153 33.8475L26.7519 33.9742C26.9224 34.5531 26.8722 34.5986 26.6547 34.7003C26.2148 34.8961 25.6267 35 25.0777 35C23.3429 35 22.8544 34.1715 22.8544 32.73V29.6231H22.0352C21.828 29.6231 21.7762 29.5852 21.7762 28.9554V28.8621C21.7762 28.2294 21.8272 28.1967 22.0352 28.1967H22.9516C23.0512 27.6558 23.2202 26.8941 23.3309 26.514C23.3923 26.2947 23.4289 26.2507 24.0887 26.2507ZM19.5434 28.1967C20.4972 28.1967 20.5817 28.2749 20.5817 28.4722V34.5986C20.5817 34.8035 20.4972 34.8718 19.5434 34.8718H19.4812C18.4317 34.8718 18.4078 34.8035 18.4078 34.5986V28.4722C18.4078 28.2749 18.4317 28.1967 19.4812 28.1967H19.5434ZM19.4812 25.2022C20.1697 25.2022 20.6686 25.7082 20.6686 26.2833C20.6655 26.4274 20.6323 26.5695 20.5711 26.7013C20.5098 26.8332 20.4216 26.9521 20.3116 27.0511C20.0884 27.2522 19.7896 27.3614 19.4812 27.3546C18.8007 27.3546 18.2963 26.8485 18.2963 26.2833C18.2963 25.7067 18.8007 25.2022 19.4812 25.2022Z" fill="#EE293D"/>
</svg>
