<svg width="70" height="48" viewBox="0 0 70 48" fill="none" xmlns="http://www.w3.org/2000/svg">
<rect x="0.5" y="0.5" width="69" height="47" rx="5.5" fill="white" stroke="#D9D9D9"/>
<path fill-rule="evenodd" clip-rule="evenodd" d="M14.2795 27.5335C13.8966 27.7459 13.489 27.8519 13.0569 27.8519H12.7235C12.6369 27.8519 12.5132 27.8447 12.1559 27.7814L13.3638 22.6422C13.586 22.4426 13.8257 22.3129 14.1036 22.2503C14.3815 22.1878 14.5605 22.171 14.7335 22.171C15.2643 22.171 15.675 22.3251 15.8727 22.6625C16.0701 22.9996 16.1691 23.468 16.1691 24.0674C16.1691 24.5547 16.0886 25.0231 15.9283 25.4727C15.7676 25.9222 15.5485 26.325 15.2707 26.681C14.9928 27.0369 14.6622 27.3212 14.2795 27.5335ZM17.0028 20.152C16.5702 19.9397 16.058 19.8335 15.4651 19.8335C15.1809 19.8335 14.9154 19.8647 14.6686 19.9271C14.4214 19.9898 14.1885 20.0706 13.9417 20.183L15.0762 15.3558L12.2048 15.8054L9 29.4257C9.35808 29.6007 9.7377 29.738 10.1393 29.8377C10.5405 29.9376 10.9202 30.0125 11.2784 30.0626C11.6365 30.1124 11.9547 30.1404 12.2326 30.1469C12.5105 30.153 12.705 30.1563 12.8161 30.1563C13.6804 30.1563 14.4834 29.9906 15.2243 29.6597C15.9653 29.329 16.6073 28.8794 17.1509 28.311C17.6943 27.7426 18.1234 27.0744 18.4384 26.3063C18.7534 25.5381 18.9108 24.7232 18.9108 23.8613C18.9108 23.2994 18.8427 22.7748 18.7069 22.2877C18.5709 21.8005 18.361 21.3761 18.0771 21.0137C17.7929 20.6515 17.4348 20.3644 17.0028 20.152ZM24.5973 18.6312L25.0192 16.8364H22.2685L21.8466 18.6312H24.5973ZM27.7424 27.6239C27.9446 27.7265 28.2232 27.7775 28.5776 27.7775C28.8814 27.7775 29.1756 27.7487 29.4604 27.6911C29.6466 27.6535 29.8399 27.6091 30.0323 27.5427L29.4594 29.9661C29.4144 29.9771 29.3448 29.9941 29.2991 30.0047C28.8559 30.1071 28.3308 30.1583 27.7233 30.1583C26.8499 30.1583 26.1727 30.027 25.6919 29.7647C25.2107 29.5025 24.869 29.1441 24.6666 28.6895C24.464 28.2353 24.3753 27.7136 24.4009 27.1247C24.4261 26.5361 24.5148 25.915 24.6666 25.2622L26.5272 17.3133L29.4699 16.8524L28.7484 19.8285H31.9L31.3305 22.171H28.198L27.3626 25.7039C27.2866 25.9985 27.2392 26.2736 27.2202 26.5295C27.2013 26.7856 27.2326 27.0065 27.3152 27.1919C27.3973 27.3775 27.5396 27.5216 27.7424 27.6239ZM62 19.8317H59.2494L57.6495 26.6391H57.6523L57.4325 27.5755C57.279 27.6191 57.1262 27.6583 56.9745 27.689C56.6897 27.7466 56.3955 27.7754 56.0917 27.7754C55.7371 27.7754 55.4587 27.7244 55.2563 27.6218C55.0537 27.5194 54.9114 27.3755 54.8291 27.1897C54.7467 27.0043 54.7152 26.7836 54.7342 26.5273C54.7533 26.2714 54.8007 25.9963 54.8767 25.7017L55.7119 22.1688L56.2625 19.8264L56.2627 19.8257H53.4526L52.1807 25.2602C52.0289 25.913 51.9402 26.5339 51.915 27.1226C51.8894 27.7115 51.9781 28.2332 52.1807 28.6874C52.383 29.1419 52.7247 29.5005 53.206 29.7627C53.6867 30.0248 54.364 30.1563 55.2373 30.1563C55.8449 30.1563 56.37 30.105 56.8132 30.0026C56.8311 29.9985 56.8483 29.9941 56.8658 29.9897L56.8645 29.9948C56.7414 30.5555 56.492 31.0102 56.0918 31.3651C55.6912 31.7203 55.0968 31.8979 54.3086 31.8979C53.9721 31.8979 53.6663 31.8776 53.3893 31.8389L52.8479 34.1424C53.2141 34.1904 53.62 34.2151 54.0683 34.2151C54.9059 34.2151 55.6392 34.1183 56.2674 33.9253C56.8957 33.7322 57.4344 33.4395 57.8842 33.047C58.3337 32.6545 58.7095 32.1622 59.0114 31.5708C59.3131 30.9789 59.5564 30.2784 59.7413 29.4684L61.6446 21.3765L61.6377 21.3735L62 19.8317ZM19.1334 30.1583L21.5617 19.8258H24.3124L21.8841 30.1583H19.1334ZM48.5085 22.171C47.2259 22.171 46.981 22.171 46.4555 22.4466C46.0824 22.6422 45.7736 22.9363 45.5024 23.2793C45.2309 23.6225 45.0183 24.0184 44.8642 24.4675C44.7097 24.9168 44.6328 25.3845 44.6328 25.871C44.6328 26.4697 44.7314 26.9441 44.929 27.2932C45.126 27.6426 45.4901 27.8171 46.0206 27.8171C46.3042 27.8171 46.5601 27.761 46.7885 27.6487C47.0166 27.5364 47.2603 27.3492 47.5193 27.0873C47.5439 26.7757 47.5841 26.4482 47.6397 26.1049C47.6903 25.7914 47.7535 25.4987 47.8112 25.2313L47.8273 25.1568L48.5085 22.171ZM50.4614 25.6464C50.2885 26.3576 50.2392 27.0717 50.3133 27.789C50.3874 28.5067 50.6587 29.6059 50.9233 30.1563H48.2615C48.0192 29.7418 47.9656 29.4914 47.9285 29.3184C47.9159 29.2592 47.9051 29.209 47.8894 29.1644C47.5439 29.4515 47.1615 29.6884 46.7423 29.8755C46.3228 30.0626 45.854 30.1563 45.3359 30.1563C44.7191 30.1563 44.1917 30.0469 43.754 29.8288C43.3159 29.6106 42.9582 29.3174 42.6808 28.9493C42.4031 28.5815 42.2025 28.151 42.0795 27.6581C41.9559 27.1654 41.8944 26.6383 41.8944 26.0769C41.8944 25.2161 42.0452 24.4052 42.3477 23.6443C42.6498 22.8833 43.0693 22.2189 43.606 21.6512C44.1424 21.0836 45.4375 19.8319 47.5626 19.8319L51.8299 19.8318L50.4614 25.6464ZM34.3675 27.7819C34.5786 27.8322 34.8393 27.8573 35.15 27.8573C35.6343 27.8573 36.0749 27.7663 36.4726 27.5842C36.8698 27.4022 37.2083 27.1479 37.4877 26.8211C37.7672 26.4947 37.9842 26.1024 38.1397 25.6437C38.2947 25.1854 38.3725 24.68 38.3725 24.1273C38.3725 23.5874 38.2544 23.1288 38.0186 22.7521C37.7826 22.3752 37.3688 22.175 36.7852 22.1726C36.3771 22.171 35.6995 22.171 35.6995 22.171L34.3675 27.7819ZM41.1294 23.92C41.1294 24.837 40.9804 25.6753 40.6823 26.4349C40.3844 27.195 39.9713 27.8512 39.4437 28.4035C38.9156 28.9564 38.2823 29.3865 37.5436 29.6941C36.8046 30.0016 36.0005 30.1556 35.1312 30.1556C34.7089 30.1556 34.2866 30.118 33.8646 30.0425L33.0263 33.4523H30.2694L33.4696 19.8321C33.8038 19.8319 35.1673 19.832 36.1857 19.832L37.1431 19.8321C37.8384 19.8321 38.4377 19.9389 38.9406 20.1523C39.4437 20.366 39.8563 20.6579 40.1794 21.0283C40.5021 21.3989 40.7411 21.8322 40.8965 22.3281C41.0516 22.8245 41.1294 23.3549 41.1294 23.92Z" fill="#002855"/>
</svg>
