<svg width="70" height="48" viewBox="0 0 70 48" fill="none" xmlns="http://www.w3.org/2000/svg">
<rect x="0.5" y="0.5" width="69" height="47" rx="5.5" fill="white" stroke="#D9D9D9"/>
<path fill-rule="evenodd" clip-rule="evenodd" d="M42.8513 32.2505H53.2375V27.5963H47.975V16.7213H42.8513V32.2505ZM11 16.813V32.3183L15.6291 32.3251V27.5928H16.6705C18.5155 27.5928 20.6209 27.2071 21.5755 26.2827C22.5301 25.3584 22.9241 23.9735 22.9241 22.2046C22.9464 21.2551 22.7692 20.3112 22.4034 19.4315C22.1041 18.7077 21.5793 18.0947 20.9038 17.6796C20.2315 17.3114 19.503 17.0515 18.7463 16.9099C18.144 16.8035 17.062 16.8072 15.8421 16.8113C15.5997 16.8122 15.3519 16.813 15.1014 16.813H11ZM15.8078 24.7551C15.7358 24.754 15.6639 24.7484 15.5926 24.7381L15.5874 19.9667V19.7068C16.5073 19.7068 17.3404 19.8308 17.6876 20.1944C18.1844 20.7214 18.1835 21.27 18.1823 21.9303L18.1822 22.0262C18.1822 22.8724 18.1718 23.7866 17.8351 24.1961C17.6164 24.4612 17.238 24.8078 15.8078 24.7551ZM59.0348 22.0772H54.1263V32.2724H59.0348V22.0772ZM54.0569 16.7893H59.0696V21.0051H54.0569V16.7893Z" fill="black"/>
<path fill-rule="evenodd" clip-rule="evenodd" d="M35.9627 31.1816C36.624 30.9488 37.2766 30.4577 37.839 29.9582C39.4236 28.5444 41.0934 26.1451 40.9632 23.2242C40.8278 20.1486 39.1425 18.1775 36.8982 16.949C37.5456 17.0883 38.0802 17.5097 38.5784 17.9057C40.019 19.0475 41.1125 20.8164 41.1593 23.3024C41.2218 26.609 39.4236 28.8639 37.6411 30.4187C38.2 30.1468 38.6304 29.6438 39.047 29.1561C40.2273 27.773 41.3138 25.8036 41.3138 23.3397C41.3138 19.8716 39.3108 17.8751 36.9746 16.5684C37.7273 16.8065 38.42 17.198 39.0071 17.717C39.8701 18.4521 40.5455 19.3746 40.9795 20.4108C41.4134 21.4469 41.5939 22.5681 41.5065 23.6847C41.3648 26.1182 40.2737 28.4054 38.4586 30.0737C36.6712 31.7457 34.3553 32.7717 31.8925 32.9828C31.5672 33.0057 31.2406 33.0057 30.9153 32.9828C26.8365 32.6514 23.8772 30.0941 23.5682 26.1723C23.5361 25.7646 23.5361 25.355 23.5682 24.9472C23.7418 22.4731 24.8839 20.5021 26.3817 18.9796C28.0115 17.3228 30.0718 16.0739 32.9461 15.8802C33.0172 15.5726 33.1006 15.2209 33.144 15C34.0899 15.9838 35.2389 17.056 36.4261 18.2132C34.9959 18.9303 33.6039 19.6847 32.205 20.4324C32.2362 20.152 32.3021 19.8326 32.3212 19.6287C29.9208 20.045 27.897 21.751 27.477 24.1435C26.9563 27.0627 28.9558 29.2938 31.8162 29.3091C34.7061 29.3244 37.1586 27.1392 37.5994 24.6413C37.9466 22.6227 37.044 21.2123 35.8794 20.2795C36.9659 20.9829 38.1358 22.2539 37.99 24.1435C37.7539 27.1035 34.9109 29.5555 31.9359 29.5776C31.1537 29.5806 30.3804 29.4147 29.6711 29.0916C28.9619 28.7685 28.3342 28.2962 27.8328 27.7084C28.8065 29.095 30.5092 29.8256 32.4445 29.6982C33.9649 29.5979 35.2511 28.8673 36.197 27.9769C37.143 27.0865 37.9153 25.8019 38.1063 24.4952C38.1835 23.9751 38.1835 23.4469 38.1063 22.9268C37.8685 21.3975 36.9208 20.6856 36.0529 19.6983C37.2888 20.6635 38.5836 21.9498 38.4985 24.0313C38.3701 27.0729 35.3951 29.7543 32.2831 29.9616C30.2419 30.0975 28.9853 29.4144 27.9057 28.4323C28.928 29.6999 30.8563 30.3507 32.8697 30.0397C35.7423 29.5962 38.3024 27.2496 38.6148 24.3389C38.896 21.7102 37.537 20.4902 36.2387 19.2022C37.6272 20.2217 38.8023 21.3619 38.8873 23.4587C38.9619 25.2802 38.0559 27.0627 36.8948 28.2029C35.0376 30.0261 31.4204 31.2224 28.6086 29.5419C31.0039 31.3311 34.7234 30.3065 36.6986 28.5478C38.1323 27.2734 39.1789 25.5742 39.0053 23.0373C38.8647 20.9982 37.6845 19.9549 36.348 18.8674C37.7227 19.5573 39.0487 20.9371 39.2397 22.9234C39.4948 25.5232 38.2711 27.4433 36.7819 28.7347C34.982 30.2895 32.4427 31.2156 29.591 30.4951C34.3155 31.9361 38.7328 28.502 39.3612 24.5275C39.8124 21.6711 38.3197 19.9872 36.9 18.7875C36.7542 18.6652 36.6709 18.5768 36.4712 18.4052C38.5003 19.4383 40.1856 21.7221 39.5191 24.9472C38.7433 28.7025 34.9005 31.7441 29.9434 30.9539C30.6637 31.236 31.5055 31.1748 32.231 31.1374C34.4874 31.0134 36.5285 29.9106 37.622 28.7228C38.9481 27.2785 39.9981 25.4587 39.7951 22.8368C39.6111 20.4579 38.2573 19.3279 36.6014 18.079C37.2953 18.3516 37.9124 18.7827 38.4013 19.3364C39.3456 20.3172 39.9189 21.5848 40.0259 22.9285C40.2273 25.632 38.9585 27.6405 37.5647 29.0457C36.079 30.5461 34.0656 31.5096 31.5072 31.5316C35.5201 31.6506 38.1861 29.2394 39.4792 26.5581C40.2203 25.0288 40.4355 22.8572 39.8263 21.163C39.2692 19.6032 37.9917 18.5327 36.7368 17.6644C38.929 18.8113 40.774 20.9642 40.3731 24.2998C40.2379 25.4516 39.8482 26.5609 39.231 27.5504C38.0351 29.5147 36.079 30.8961 33.8851 31.6472C35.5097 31.3074 37.051 30.3507 38.1844 29.1205C39.5729 27.6201 40.6386 25.722 40.5692 23.0764C40.4911 20.2285 38.6929 18.587 36.8566 17.299C36.8804 17.3023 36.9038 17.3086 36.926 17.3177C38.9307 18.2795 40.4477 19.9481 40.7636 22.5411C41.2669 26.6345 38.5141 29.6234 35.9627 31.1816Z" fill="#30469D"/>
</svg>
