<svg width="70" height="48" viewBox="0 0 70 48" fill="none" xmlns="http://www.w3.org/2000/svg">
<rect x="0.5" y="0.5" width="69" height="47" rx="5.5" fill="#F884A1" stroke="#D9D9D9"/>
<path fill-rule="evenodd" clip-rule="evenodd" d="M40.732 18.8712L42.6669 9.23625C42.8997 8.15535 42.2595 7.06612 41.1869 6.75017C39.9896 6.45084 38.784 7.14927 38.4763 8.32995L36.7231 14.3325L35.3411 8.42142C35.233 7.87265 34.9004 7.38208 34.4265 7.06613C33.9525 6.75017 33.3622 6.64208 32.8051 6.75848C31.7076 6.99129 30.9925 8.27175 31.2669 9.43581L32.0823 16.1315C31.3739 15.4254 30.5466 15.2079 29.5879 15.7633L29.4631 15.8464C28.5894 16.4414 28.4117 17.6573 28.9731 18.7648C28.5083 18.7909 28.0541 18.9847 27.7086 19.3386L27.6255 19.43C26.8189 20.2615 26.9769 21.6667 27.983 22.6728L28.8003 23.4874C28.8922 27.2527 31.9551 29.8899 35.5663 29.8899C35.6091 29.8899 35.6503 29.884 35.6894 29.8731C40.581 29.8241 42.7308 26.9107 43.0992 22.4898C43.2156 21.093 42.9579 20.1368 42.4174 19.5631C42.1181 19.2471 41.8022 19.0974 41.561 19.0642L40.732 18.8712ZM35.3923 28.9896C35.4163 28.9856 35.4411 28.9836 35.4664 28.9836C39.9729 29.0251 41.8687 26.4975 42.2096 22.4233C42.3094 21.2593 42.1098 20.5525 41.7606 20.1783C41.6691 20.0869 41.5777 20.0204 41.4945 19.9871L41.3947 19.9538L36.1565 18.7316C36.1411 18.7265 36.113 18.7213 36.0741 18.7142C36.0501 18.7098 36.022 18.7047 35.9902 18.6983C35.7075 18.6484 35.4165 18.6401 35.1504 18.6983C34.743 18.7898 34.4853 19.0143 34.3522 19.4467C34.1753 20.0365 34.1901 20.4868 34.565 20.8475C34.6594 20.8823 34.7359 20.9449 34.7873 21.0233C35.0493 21.1966 35.4174 21.3477 35.9154 21.4837L39.366 22.257C39.9397 22.39 39.7567 23.2465 39.183 23.1384L39.0749 23.1217C38.6426 23.0802 38.152 23.1134 37.703 23.2797C36.8632 23.5957 36.3394 24.319 36.2729 25.666C36.2563 25.9155 36.0484 26.0984 35.799 26.0901C35.5495 26.0734 35.3583 25.8656 35.3749 25.6161C35.4414 24.1278 36.0235 23.155 36.9547 22.6312L35.6992 22.3402C35.2662 22.2228 34.9012 22.0841 34.5977 21.9259C34.452 22.1543 34.2622 22.3526 34.0362 22.5065L33.9364 22.573C33.8791 22.6117 33.8205 22.6471 33.7609 22.6792C34.1641 23.4334 34.0577 24.3869 33.4374 25.0341L33.346 25.1256C32.5644 25.9238 31.2922 25.9404 30.4857 25.1672L29.8137 24.4973C30.3503 27.1333 32.6608 28.9167 35.3923 28.9896ZM33.8796 21.4097C33.7977 21.5524 33.6835 21.6763 33.5456 21.7665L33.4459 21.8247C32.9304 22.1739 32.2319 22.0408 31.8827 21.5253L29.9204 18.6069C29.3883 17.7921 29.4548 16.944 29.9703 16.5864L30.0618 16.5199C30.727 16.1374 31.2841 16.4284 31.8578 17.2682L32.3251 17.9657C32.3455 18.0111 32.3734 18.0524 32.4072 18.0882L33.3997 19.5694C33.2648 20.281 33.3867 20.905 33.8796 21.4097ZM39.8564 18.6674L36.381 17.8586C36.3756 17.8572 36.3688 17.8554 36.3608 17.8533C36.3198 17.8423 36.2456 17.8226 36.1482 17.8087C35.7574 17.7421 35.35 17.7338 34.9509 17.817C34.4743 17.9248 34.0751 18.1642 33.7983 18.5485L33.1643 17.6025L32.1566 9.29446L32.1482 9.24457C31.9736 8.54614 32.406 7.76456 32.988 7.63984C33.3123 7.57332 33.6532 7.63152 33.9276 7.81445C34.202 7.99737 34.3932 8.28007 34.4597 8.60434L36.2232 16.1361C36.2325 16.3239 36.3559 16.492 36.5473 16.5448C36.7885 16.6114 37.0379 16.4783 37.1044 16.2372L39.3411 8.57108C39.5323 7.86433 40.2474 7.44028 40.9458 7.61489C41.5444 7.79782 41.9186 8.42142 41.7856 9.05333L39.8564 18.6674ZM31.1344 22.0325C31.5363 22.6195 32.187 22.9307 32.8449 22.9191C33.2038 23.3545 33.1846 23.9987 32.7806 24.4105L32.6974 24.502C32.2651 24.9427 31.5583 24.951 31.1176 24.5186L28.6232 22.0492C27.9331 21.359 27.8417 20.5109 28.274 20.062L28.3572 19.9705C28.7023 19.6093 29.2643 19.5658 29.6693 19.8474L31.1344 22.0325ZM22.5369 40.6657C23.9504 40.6657 25.0313 39.7178 25.0313 38.3293C25.0313 37.0405 24.1167 36.4834 22.9942 36.1508C22.2791 35.9429 21.8302 35.785 21.8302 35.2778C21.8302 34.8537 22.1378 34.5211 22.6284 34.5211C23.0441 34.5211 23.3517 34.7623 23.5762 35.1281L24.7486 34.3881C24.3828 33.5816 23.5596 33.1658 22.6699 33.1658C21.2564 33.1658 20.3585 34.1802 20.3585 35.3609C20.3585 36.3005 20.9239 37.0239 22.3124 37.4313C23.069 37.6475 23.5513 37.7971 23.5513 38.3958C23.5513 38.9612 23.1439 39.3104 22.5535 39.3104C21.9216 39.3104 21.4394 38.903 21.1484 38.5288L20.1755 39.5016C20.6994 40.2167 21.5475 40.6657 22.5369 40.6657ZM34.4598 33.2573V34.5877C33.6699 34.5544 33.0962 34.9535 33.0962 35.8349V36.3753C33.4122 36.0428 33.8612 35.8765 34.4182 35.8765V37.2234C33.6367 37.2401 33.0962 37.739 33.0962 38.4374V40.5327H31.6827V35.7517C31.6827 34.4048 32.5308 33.2573 34.2519 33.2573H34.4598ZM46.0007 37.9635V36.7329C46.3166 37.0655 46.7573 37.2318 47.3227 37.2318V35.8931C46.5577 35.8765 46.0007 35.361 46.0007 34.6792V33.8893H44.5872V38.0466C44.5872 39.3936 45.4269 40.541 47.1564 40.541H47.3643V39.2107C46.5744 39.2356 46.0007 38.8448 46.0007 37.9635ZM25.5382 38.0133C25.5382 39.4684 26.7522 40.6657 28.2488 40.6657C29.7455 40.6657 30.9594 39.4684 30.9594 38.0133C30.9594 36.5583 29.7455 35.3609 28.2488 35.3609C26.7522 35.3609 25.5382 36.5583 25.5382 38.0133ZM50 39.668C50 40.1918 49.5677 40.6158 49.0521 40.6158C48.5283 40.6158 48.1043 40.1918 48.1043 39.668C48.1043 39.1441 48.5283 38.7201 49.0521 38.7201C49.576 38.7201 50 39.1525 50 39.668ZM28.2485 39.3353C28.9718 39.3353 29.5455 38.7616 29.5455 38.0133C29.5455 37.265 28.9718 36.6913 28.2485 36.6913C27.5168 36.6913 26.9514 37.265 26.9514 38.0133C26.9514 38.7699 27.5251 39.3353 28.2485 39.3353ZM34.834 38.0133C34.834 39.4684 36.048 40.6657 37.5446 40.6657C39.0412 40.6657 40.2552 39.4684 40.2552 38.0133C40.2552 36.5583 39.0412 35.3609 37.5446 35.3609C36.048 35.3609 34.834 36.5583 34.834 38.0133ZM37.5445 39.3353C38.2762 39.3353 38.8416 38.7616 38.8416 38.0133C38.8416 37.265 38.2679 36.6913 37.5445 36.6913C36.8211 36.6913 36.2474 37.265 36.2474 38.0133C36.2474 38.7699 36.8211 39.3353 37.5445 39.3353ZM42.392 35.5023V36.076C42.6747 35.6187 43.132 35.4025 43.7722 35.4274V36.9407C42.9241 36.9407 42.4336 37.4063 42.4336 38.2378V40.5326H41.0201V35.5023H42.392Z" fill="white"/>
</svg>
