<svg width="70" height="48" viewBox="0 0 70 48" fill="none" xmlns="http://www.w3.org/2000/svg">
<rect x="0.5" y="0.5" width="69" height="47" rx="5.5" fill="white" stroke="#D9D9D9"/>
<path fill-rule="evenodd" clip-rule="evenodd" d="M18.2243 35.1715C18.2243 34.882 18.1561 34.6314 18.0199 34.4199C17.8836 34.2083 17.7043 34.0468 17.4819 33.9355C17.7043 33.8242 17.8767 33.6597 17.9991 33.4426C18.1214 33.2255 18.1826 32.9806 18.1826 32.7078V32.5575C18.1826 32.2233 18.1187 31.9451 17.9908 31.7223C17.8628 31.4996 17.6834 31.3213 17.4526 31.1878C17.2219 31.0541 16.9451 30.9582 16.6228 30.8995C16.3001 30.8411 15.9415 30.812 15.5466 30.812C15.4132 30.812 15.2741 30.8147 15.1296 30.8203C14.9848 30.8258 14.8445 30.8328 14.7084 30.8411C14.572 30.8494 14.4468 30.8593 14.333 30.8704C14.2189 30.8817 14.1257 30.8928 14.0534 30.9037C13.8922 30.9318 13.7782 30.9817 13.7115 31.0541C13.6448 31.1266 13.6114 31.2575 13.6114 31.4467V36.5245C13.6114 36.7139 13.646 36.8447 13.7157 36.917C13.7851 36.9895 13.9033 37.0394 14.0702 37.0673C14.1536 37.084 14.2537 37.0979 14.3704 37.1091C14.4872 37.1202 14.6136 37.1299 14.7499 37.1383C14.8863 37.1466 15.0266 37.1535 15.1712 37.1593C15.3158 37.1646 15.4575 37.1676 15.5966 37.1676C15.9581 37.1676 16.2987 37.1397 16.6186 37.084C16.9382 37.0285 17.2162 36.9295 17.4526 36.7874C17.6891 36.6456 17.8767 36.4534 18.0158 36.2113C18.1547 35.969 18.2243 35.6642 18.2243 35.2967V35.1715ZM16.8063 32.7746C16.8063 32.8637 16.7925 32.9487 16.7646 33.0293C16.7367 33.11 16.691 33.1795 16.627 33.2383C16.5629 33.2966 16.4769 33.3439 16.3684 33.38C16.26 33.4162 16.1223 33.4343 15.9555 33.4343H15.0213V31.9895C15.049 31.9895 15.0922 31.9883 15.1505 31.9853C15.2089 31.9825 15.2701 31.9812 15.334 31.9812H15.6551C16.0833 31.9812 16.3823 32.0354 16.5519 32.144C16.7214 32.2526 16.8063 32.421 16.8063 32.6492V32.7746ZM16.5936 35.8062C16.7576 35.6782 16.8398 35.4971 16.8398 35.2634V35.1714C16.8398 34.971 16.7757 34.797 16.6478 34.6494C16.5198 34.502 16.2891 34.4282 15.9555 34.4282H15.0213V35.9898H15.1672C15.2311 35.9898 15.2978 35.9916 15.3674 35.9942C15.4369 35.9969 15.5036 35.9985 15.5676 35.9985H15.7052C16.1334 35.9985 16.4296 35.9343 16.5936 35.8062ZM22.7956 33.9438C22.7956 33.6377 22.7497 33.3772 22.6579 33.1629C22.5663 32.9487 22.4369 32.7732 22.2701 32.6367C22.1032 32.5004 21.8989 32.4003 21.6569 32.3362C21.4151 32.2722 21.144 32.2401 20.8436 32.2401C20.5654 32.2401 20.2943 32.2597 20.0304 32.2987C19.766 32.3375 19.5561 32.3766 19.4005 32.4154C19.2949 32.4435 19.2421 32.5046 19.2421 32.5991V33.2756C19.2421 33.3314 19.2559 33.3705 19.2838 33.3925C19.3115 33.4149 19.3475 33.4261 19.3922 33.4261H19.4338C19.5007 33.4204 19.584 33.4135 19.6841 33.4051C19.7842 33.3968 19.8968 33.3901 20.022 33.3842C20.1471 33.3788 20.2777 33.3746 20.414 33.3717C20.5502 33.3689 20.6851 33.3675 20.8187 33.3675C21.0132 33.3675 21.1661 33.4038 21.2774 33.4761C21.3886 33.5486 21.4442 33.7045 21.4442 33.9438V34.2445H20.9938C20.2763 34.2445 19.7549 34.3572 19.4296 34.5827C19.1043 34.8081 18.9417 35.1659 18.9417 35.6558V35.7313C18.9417 36.0039 18.9821 36.2321 19.0626 36.4158C19.1431 36.5996 19.2504 36.7472 19.3837 36.8587C19.5173 36.9699 19.6687 37.0493 19.8384 37.0964C20.008 37.1438 20.1847 37.1676 20.3681 37.1676C20.6184 37.1676 20.8339 37.1341 21.0146 37.0673C21.1952 37.0005 21.3662 36.9086 21.5276 36.7917V36.9253C21.5276 36.9699 21.5443 37.0089 21.5777 37.0422C21.6111 37.0756 21.6499 37.0923 21.6945 37.0923H22.6288C22.6731 37.0923 22.7121 37.0756 22.7455 37.0422C22.779 37.0089 22.7956 36.9699 22.7956 36.9253V33.9438ZM21.1481 36.0942C21.2619 36.0581 21.3692 36.015 21.4693 35.9648V35.0462H20.9938C20.8492 35.0462 20.7296 35.0587 20.6351 35.0837C20.5405 35.1088 20.4653 35.1465 20.4099 35.1966C20.3543 35.2465 20.3153 35.3107 20.2931 35.3886C20.2708 35.4666 20.2597 35.5556 20.2597 35.6558V35.7312C20.2597 35.9092 20.3027 36.0233 20.3889 36.0734C20.4752 36.1235 20.6072 36.1485 20.7852 36.1485C20.9131 36.1485 21.034 36.1306 21.1481 36.0942ZM27.9007 36.917V34.1358C27.9007 33.8744 27.8799 33.6278 27.8382 33.3968C27.7964 33.166 27.7214 32.9653 27.613 32.7954C27.5046 32.6256 27.3544 32.4905 27.1625 32.3904C26.9707 32.2902 26.7246 32.2401 26.4242 32.2401C26.1573 32.2401 25.9208 32.2723 25.7152 32.3369C25.5095 32.4014 25.2926 32.515 25.0646 32.6776V32.4752C25.0646 32.4305 25.0478 32.3911 25.0146 32.3575C24.9811 32.3238 24.9422 32.3068 24.8977 32.3068H23.9635C23.9188 32.3068 23.88 32.3235 23.8467 32.357C23.8133 32.3904 23.7967 32.4295 23.7967 32.4739V36.917C23.7967 36.9615 23.8145 37.0019 23.8509 37.038C23.8869 37.0743 23.9273 37.0923 23.9718 37.0923H24.9811C25.0257 37.0923 25.0646 37.0743 25.0979 37.0382C25.1313 37.0021 25.148 36.9619 25.148 36.9173V33.6341C25.2926 33.5564 25.4287 33.4925 25.5567 33.4426C25.6846 33.3925 25.8096 33.3675 25.9321 33.3675C26.0599 33.3675 26.1642 33.38 26.2449 33.4051C26.3255 33.4301 26.388 33.4731 26.4325 33.5345C26.477 33.5954 26.5077 33.6759 26.5243 33.7757C26.541 33.8758 26.5495 33.9981 26.5495 34.1425V36.9173C26.5495 36.9619 26.5661 37.0021 26.5995 37.0382C26.6328 37.0743 26.6716 37.0923 26.7163 37.0923H27.7256C27.7699 37.0923 27.8103 37.0743 27.8465 37.038C27.8827 37.0019 27.9007 36.9615 27.9007 36.917ZM32.0048 36.1071V36.8502C32.0048 36.9114 31.9907 36.9546 31.963 36.9796C31.9351 37.0047 31.8906 37.0255 31.8295 37.0422C31.7127 37.0701 31.5612 37.0978 31.3749 37.1259C31.1886 37.1535 30.9703 37.1676 30.72 37.1676C30.1306 37.1676 29.6592 36.9867 29.3062 36.6246C28.953 36.2628 28.7765 35.7394 28.7765 35.0546V34.3531C28.7765 33.6682 28.953 33.1448 29.3062 32.7831C29.6592 32.421 30.1306 32.2401 30.72 32.2401C30.9703 32.2401 31.1886 32.254 31.3749 32.2817C31.5612 32.3098 31.7127 32.3375 31.8295 32.3653C31.8906 32.3819 31.9351 32.4029 31.963 32.4279C31.9907 32.453 32.0048 32.4962 32.0048 32.5574V33.3007C32.0048 33.3453 31.9893 33.38 31.9589 33.4051C31.9282 33.4301 31.8906 33.4426 31.8463 33.4426H31.8295C31.6737 33.4261 31.5251 33.4121 31.3833 33.401C31.2414 33.3901 31.0509 33.3842 30.8118 33.3842C30.7172 33.3842 30.6284 33.3996 30.5449 33.4301C30.4614 33.4608 30.3892 33.5137 30.328 33.5888C30.2667 33.6641 30.2182 33.7641 30.182 33.8895C30.1458 34.0147 30.1278 34.1692 30.1278 34.3531V35.0546C30.1278 35.2382 30.1458 35.3927 30.182 35.5181C30.2182 35.6433 30.2667 35.7436 30.328 35.8187C30.3892 35.8939 30.4614 35.9468 30.5449 35.9774C30.6284 36.008 30.7172 36.0233 30.8118 36.0233C31.0509 36.0233 31.2414 36.0178 31.3833 36.0067C31.5251 35.9956 31.6737 35.9815 31.8295 35.9649H31.8463C31.8906 35.9649 31.9282 35.9774 31.9589 36.0025C31.9893 36.0276 32.0048 36.0623 32.0048 36.1071ZM36.6347 34.4115C36.6347 34.0773 36.5886 33.7768 36.4966 33.5095C36.4046 33.2423 36.2709 33.0155 36.0955 32.8289C35.92 32.6424 35.7026 32.4976 35.4436 32.3946C35.1845 32.2918 34.8848 32.2401 34.545 32.2401C34.2051 32.2401 33.9056 32.2918 33.6465 32.3946C33.3874 32.4976 33.1686 32.6424 32.9904 32.8289C32.812 33.0155 32.6768 33.2423 32.585 33.5095C32.4929 33.7768 32.447 34.0773 32.447 34.4115V34.9961C32.447 35.3301 32.4929 35.6309 32.585 35.8981C32.6768 36.1653 32.812 36.3922 32.9904 36.5788C33.1686 36.7654 33.3874 36.91 33.6465 37.013C33.9056 37.1159 34.2051 37.1676 34.545 37.1676C34.8848 37.1676 35.1845 37.1159 35.4436 37.013C35.7026 36.91 35.92 36.7654 36.0955 36.5788C36.2709 36.3922 36.4046 36.1653 36.4966 35.8981C36.5886 35.6309 36.6347 35.3301 36.6347 34.9961V34.4115ZM34.545 36.0233C35.0371 36.0233 35.2832 35.6809 35.2832 34.9961V34.4115C35.2832 33.7322 35.0371 33.3925 34.545 33.3925C34.3016 33.3925 34.1165 33.4774 33.9893 33.6472C33.862 33.8172 33.7984 34.0719 33.7984 34.4115V34.9961C33.7984 35.3357 33.862 35.5918 33.9893 35.7644C34.1165 35.9371 34.3016 36.0233 34.545 36.0233ZM41.5977 36.917V34.1358C41.5977 33.8744 41.5765 33.6278 41.5351 33.3968C41.4934 33.166 41.4182 32.9653 41.3096 32.7954C41.2012 32.6256 41.0512 32.4905 40.8594 32.3904C40.6675 32.2902 40.4213 32.2401 40.1211 32.2401C39.8542 32.2401 39.6178 32.2723 39.412 32.3369C39.2062 32.4014 38.9894 32.515 38.7614 32.6776V32.4752C38.7614 32.4305 38.7448 32.3911 38.7112 32.3575C38.6781 32.3238 38.6389 32.3068 38.5946 32.3068H37.6603C37.6157 32.3068 37.5769 32.3235 37.5435 32.357C37.5103 32.3904 37.4935 32.4295 37.4935 32.4739V36.917C37.4935 36.9615 37.5115 37.0019 37.5477 37.038C37.5839 37.0743 37.6241 37.0923 37.6687 37.0923H38.6781C38.7224 37.0923 38.7614 37.0743 38.7948 37.0382C38.8281 37.0021 38.8449 36.9619 38.8449 36.9173V33.6341C38.9894 33.5564 39.1257 33.4925 39.2535 33.4426C39.3815 33.3925 39.5066 33.3675 39.629 33.3675C39.7569 33.3675 39.8612 33.38 39.9417 33.4051C40.0222 33.4301 40.0849 33.4731 40.1295 33.5345C40.174 33.5954 40.2045 33.6759 40.2213 33.7757C40.2379 33.8758 40.2462 33.9981 40.2462 34.1425V36.9173C40.2462 36.9619 40.2628 37.0021 40.2963 37.0382C40.3297 37.0743 40.3685 37.0923 40.413 37.0923H41.4224C41.4669 37.0923 41.5072 37.0743 41.5434 37.038C41.5795 37.0019 41.5977 36.9615 41.5977 36.917ZM45.2349 36.2893V36.9357C45.2349 37.0295 45.182 37.0848 45.0764 37.1011C44.9484 37.1233 44.8372 37.1398 44.7428 37.1509C44.6482 37.162 44.5396 37.1675 44.4175 37.1675C44.1906 37.1675 43.9901 37.1493 43.8161 37.1133C43.642 37.077 43.4966 37.0061 43.3806 36.9003C43.2647 36.7945 43.1762 36.6483 43.1154 36.4617C43.0548 36.2753 43.0243 36.0347 43.0243 35.7394V33.3175L42.3571 33.2088C42.3124 33.1977 42.2722 33.1769 42.236 33.1462C42.1998 33.1157 42.1818 33.0781 42.1818 33.0335V32.4822C42.1818 32.4378 42.1998 32.3974 42.236 32.3611C42.2722 32.325 42.3124 32.3068 42.3571 32.3068H43.0243V31.622C43.0243 31.5774 43.0409 31.5414 43.074 31.5134C43.1069 31.4857 43.1459 31.4663 43.1902 31.455L44.2016 31.2798H44.2264C44.2706 31.2798 44.3066 31.2921 44.3343 31.3171C44.3619 31.3423 44.3757 31.3771 44.3757 31.4215V32.3068H45.0598C45.1041 32.3068 45.1431 32.3237 45.1765 32.3573C45.2099 32.3909 45.2266 32.4305 45.2266 32.4752V33.1573C45.2266 33.2024 45.2099 33.2416 45.1765 33.2752C45.1431 33.3089 45.1041 33.3257 45.0598 33.3257H44.3757V35.7561C44.3757 35.9231 44.3896 36.0304 44.4175 36.0776C44.4452 36.1249 44.523 36.1485 44.6508 36.1485H45.0598C45.1765 36.1485 45.2349 36.1955 45.2349 36.2893ZM49.6891 33.9438C49.6891 33.6377 49.6434 33.3772 49.5514 33.1629C49.4598 32.9487 49.3306 32.7732 49.1638 32.6367C48.997 32.5004 48.7926 32.4003 48.5506 32.3362C48.3088 32.2722 48.0377 32.2401 47.7373 32.2401C47.459 32.2401 47.188 32.2597 46.9241 32.2987C46.6597 32.3375 46.4498 32.3766 46.2942 32.4154C46.1882 32.4435 46.1358 32.5046 46.1358 32.5991V33.2756C46.1358 33.3314 46.1494 33.3705 46.1773 33.3925C46.2052 33.4149 46.2412 33.4261 46.2858 33.4261H46.3275C46.3944 33.4204 46.4777 33.4135 46.5778 33.4051C46.6779 33.3968 46.7905 33.3901 46.9156 33.3842C47.0408 33.3788 47.1714 33.3746 47.3077 33.3717C47.4439 33.3689 47.5788 33.3675 47.7122 33.3675C47.9069 33.3675 48.0598 33.4038 48.1711 33.4761C48.2823 33.5486 48.3379 33.7045 48.3379 33.9438V34.2445H47.8875C47.1699 34.2445 46.6486 34.3572 46.3233 34.5827C45.998 34.8081 45.8354 35.1659 45.8354 35.6558V35.7313C45.8354 36.0039 45.8756 36.2321 45.9563 36.4158C46.0367 36.5996 46.1441 36.7472 46.2774 36.8587C46.411 36.9699 46.5624 37.0493 46.7321 37.0964C46.9017 37.1438 47.0782 37.1676 47.2618 37.1676C47.5121 37.1676 47.7274 37.1341 47.9083 37.0673C48.0889 37.0005 48.2597 36.9086 48.4214 36.7917V36.9253C48.4214 36.9699 48.438 37.0089 48.4714 37.0422C48.5047 37.0756 48.5436 37.0923 48.5882 37.0923H49.5225C49.5668 37.0923 49.6058 37.0756 49.6392 37.0422C49.6725 37.0089 49.6891 36.9699 49.6891 36.9253V33.9438ZM48.0418 36.0942C48.1556 36.0581 48.2629 36.015 48.363 35.9648V35.0462H47.8875C47.7429 35.0462 47.6233 35.0587 47.5288 35.0837C47.4342 35.1088 47.359 35.1465 47.3036 35.1966C47.2478 35.2465 47.2088 35.3107 47.1868 35.3886C47.1645 35.4666 47.1534 35.5556 47.1534 35.6558V35.7312C47.1534 35.9092 47.1964 36.0233 47.2826 36.0734C47.3689 36.1235 47.5009 36.1485 47.6789 36.1485C47.8068 36.1485 47.9275 36.1306 48.0418 36.0942ZM53.7933 36.8502V36.1071C53.7933 36.0623 53.7779 36.0276 53.7474 36.0025C53.7168 35.9774 53.6794 35.9649 53.6348 35.9649H53.6182C53.4625 35.9815 53.3137 35.9956 53.1718 36.0067C53.0301 36.0178 52.8396 36.0233 52.6006 36.0233C52.5058 36.0233 52.4168 36.008 52.3336 35.9774C52.2501 35.9468 52.1777 35.8939 52.1166 35.8187C52.0554 35.7436 52.0068 35.6433 51.9707 35.5181C51.9344 35.3927 51.9165 35.2382 51.9165 35.0546V34.3531C51.9165 34.1692 51.9344 34.0147 51.9707 33.8895C52.0068 33.7641 52.0554 33.6641 52.1166 33.5888C52.1777 33.5137 52.2501 33.4608 52.3336 33.4301C52.4168 33.3996 52.5058 33.3842 52.6006 33.3842C52.8396 33.3842 53.0301 33.3901 53.1718 33.401C53.3137 33.4121 53.4625 33.4261 53.6182 33.4426H53.6348C53.6794 33.4426 53.7168 33.4301 53.7474 33.4051C53.7779 33.38 53.7933 33.3453 53.7933 33.3007V32.5574C53.7933 32.4962 53.7795 32.453 53.7516 32.4279C53.7235 32.4029 53.6794 32.3819 53.6182 32.3653C53.5015 32.3375 53.3497 32.3098 53.1635 32.2817C52.9771 32.254 52.7591 32.2401 52.5088 32.2401C51.919 32.2401 51.448 32.421 51.0948 32.7831C50.7416 33.1448 50.5651 33.6682 50.5651 34.3531V35.0546C50.5651 35.7394 50.7416 36.2628 51.0948 36.6246C51.448 36.9867 51.919 37.1676 52.5088 37.1676C52.7591 37.1676 52.9771 37.1535 53.1635 37.1259C53.3497 37.0978 53.5015 37.0701 53.6182 37.0422C53.6794 37.0255 53.7235 37.0047 53.7516 36.9796C53.7795 36.9546 53.7933 36.9114 53.7933 36.8502ZM57.3885 36.2893V36.9357C57.3885 37.0295 57.3355 37.0848 57.23 37.1011C57.102 37.1233 56.9908 37.1398 56.8964 37.1509C56.8016 37.162 56.6932 37.1675 56.5711 37.1675C56.3442 37.1675 56.1438 37.1493 55.9697 37.1133C55.7954 37.077 55.6503 37.0061 55.5344 36.9003C55.4183 36.7945 55.3298 36.6483 55.269 36.4617C55.2084 36.2753 55.1779 36.0347 55.1779 35.7394V33.3175L54.5107 33.2088C54.466 33.1977 54.4258 33.1769 54.3896 33.1462C54.3534 33.1157 54.3354 33.0781 54.3354 33.0335V32.4822C54.3354 32.4378 54.3534 32.3974 54.3896 32.3611C54.4258 32.325 54.466 32.3068 54.5107 32.3068H55.1779V31.622C55.1779 31.5774 55.1945 31.5414 55.2276 31.5134C55.2605 31.4857 55.2993 31.4663 55.3437 31.455L56.3551 31.2798H56.38C56.4242 31.2798 56.4602 31.2921 56.4876 31.3171C56.5155 31.3423 56.5293 31.3771 56.5293 31.4215V32.3068H57.2134C57.2577 32.3068 57.2967 32.3237 57.3301 32.3573C57.3634 32.3909 57.3802 32.4305 57.3802 32.4752V33.1573C57.3802 33.2024 57.3634 33.2416 57.3301 33.2752C57.2967 33.3089 57.2577 33.3257 57.2134 33.3257H56.5293V35.7561C56.5293 35.9231 56.5432 36.0304 56.5711 36.0776C56.5988 36.1249 56.6766 36.1485 56.8046 36.1485H57.2134C57.3301 36.1485 57.3885 36.1955 57.3885 36.2893Z" fill="#005697"/>
<path d="M52.6188 14.7398H39.0665L37.6882 16.2935L33.2155 21.3349V21.3351L31.8373 22.8886H18.4641L19.821 21.3153L20.4633 20.5706L21.8203 18.9973H15.6583C14.5326 18.9973 13.6114 19.943 13.6114 21.0987V25.5326C13.6114 26.6885 14.5326 27.6342 15.6583 27.6342H39.2492C40.3749 27.6342 41.9128 26.9318 42.6666 26.0733L46.235 22.0097L52.6188 14.7398Z" fill="#005697"/>
<path d="M55.3418 10C56.4676 10 57.3887 10.9457 57.3887 12.1015V16.5353C57.3887 17.691 56.4676 18.6368 55.3418 18.6368H49.1999L50.5697 17.0753H50.5699L51.2491 16.3012L52.6189 14.7398H39.0667L31.8375 22.8945H18.3813L28.0314 11.9701L28.3966 11.5566C29.153 10.7005 30.6929 10 31.8186 10H55.3418V10Z" fill="#FBD500"/>
</svg>
