<svg width="70" height="48" viewBox="0 0 70 48" fill="none" xmlns="http://www.w3.org/2000/svg">
<rect x="0.5" y="0.5" width="69" height="47" rx="5.5" fill="white" stroke="#D9D9D9"/>
<path d="M49 21.5582C48.8557 20.6922 48.0619 20.1148 46.9793 20.1148C46.6185 20.1148 46.3298 20.1148 45.9689 20.1148C45.3194 20.0427 45.1751 20.2592 45.1751 20.7644C45.1751 23.2903 45.1751 25.7441 45.1751 28.27C45.1751 29.569 43.876 30.9403 42.3605 31.2289C37.5973 32.3115 32.8341 33.3218 28.0709 34.4044C27.5657 34.5487 26.9884 34.5487 26.411 34.5487C26.1945 34.5487 25.8337 34.4044 25.7615 34.1879C25.6893 34.0435 25.9058 33.7549 26.0502 33.6105C26.2667 33.4662 26.5554 33.3218 26.844 33.1775C27.7101 32.8888 28.6483 32.6002 29.5143 32.3115C33.0506 31.1568 36.5869 30.002 40.1232 28.7752C41.7109 28.27 42.577 27.1874 42.577 25.8162C42.6491 21.4861 42.577 17.0837 42.577 12.7536C42.577 12.0319 42.2161 11.4545 41.4223 11.1658C40.4841 10.805 39.618 11.0937 38.8242 11.4545C33.7723 13.8361 28.7926 16.2177 23.7407 18.5993C22.2974 19.321 21.4313 20.3313 21.4313 21.7747C21.4313 25.8884 21.4313 30.0021 21.4313 34.1157C21.4313 34.3322 21.4313 34.5487 21.5035 34.6931C22.0087 36.0643 23.3077 36.9303 25.0398 36.9303C28.5761 36.9303 32.1124 36.9303 35.6487 36.9303C39.185 36.9303 42.6491 36.9303 46.1854 36.9303C46.9793 36.9303 47.6288 36.786 48.2062 36.2808C48.9279 35.7034 48.9279 34.9096 48.9279 34.1879C48.9279 30.6373 49 21.5582 49 21.5582ZM34.2775 20.2592C34.6383 19.321 35.4322 18.7436 36.5869 18.5993C37.3808 18.5271 38.0303 18.9601 38.1746 19.6818C38.319 20.7644 37.0199 22.0634 35.6487 22.0634C34.5662 22.0634 33.9166 21.2696 34.2775 20.2592Z" fill="#FD6727"/>
</svg>
