<svg width="70" height="48" viewBox="0 0 70 48" fill="none" xmlns="http://www.w3.org/2000/svg">
<rect x="0.5" y="0.5" width="69" height="47" rx="5.5" fill="white" stroke="#D9D9D9"/>
<path fill-rule="evenodd" clip-rule="evenodd" d="M51.4217 37.6847C51.4217 38.4098 51.1336 39.1052 50.6209 39.618C50.1081 40.1307 49.4127 40.4188 48.6876 40.4188H21.3186C20.9593 40.4192 20.6035 40.3487 20.2714 40.2115C19.9393 40.0743 19.6375 39.873 19.3833 39.6191C19.1291 39.3651 18.9274 39.0636 18.7898 38.7317C18.6522 38.3997 18.5814 38.044 18.5814 37.6847V10.3169C18.5814 9.95763 18.6522 9.60185 18.7898 9.26993C18.9274 8.93801 19.1291 8.63647 19.3833 8.38254C19.6375 8.12862 19.9393 7.92729 20.2714 7.79007C20.6035 7.65285 20.9593 7.58243 21.3186 7.58284H48.6857C49.4108 7.58284 50.1063 7.8709 50.619 8.38364C51.1318 8.89638 51.4198 9.59181 51.4198 10.3169L51.4217 37.6847Z" fill="#EDAA00"/>
<path d="M36.9179 24.3553V18.4751L38.4534 18.1116V18.8815C38.4534 18.8815 38.8504 17.868 39.7726 17.6325C40.0565 17.5611 40.1994 17.604 40.1994 17.604V19.104C39.9231 19.1078 39.6501 19.1647 39.3954 19.2718C38.8262 19.4961 38.5403 19.987 38.5403 20.7326V23.9794L36.9179 24.3553ZM28.8268 26.2673C28.8268 26.2673 28.5783 25.8945 28.5783 24.5697V21.6423L27.7879 21.8288V20.6239L28.5789 20.4375V19.1226L30.2113 18.7374V20.0491L31.3646 19.7757V20.9812L30.2113 21.2552V24.2379C30.2113 25.5931 30.5711 25.8535 30.5711 25.8535L28.8268 26.2673ZM31.5348 22.7695C31.5348 21.7237 31.684 20.9613 32.0034 20.376C32.383 19.6812 33.0075 19.2289 33.916 19.022C35.7062 18.6149 36.3518 19.675 36.3263 21.0955C36.3183 21.6032 36.3201 21.8511 36.3201 21.8511L33.166 22.5924V22.6434C33.166 23.6376 33.3748 24.108 34.0036 23.9738C34.5467 23.8594 34.6977 23.5189 34.7406 23.0989C34.748 23.0299 34.7505 22.8578 34.7505 22.8578L36.2288 22.5036C36.2288 22.5036 36.2325 22.6248 36.2288 22.7596C36.2151 23.3244 36.0511 24.725 33.9974 25.2097C32.0525 25.6714 31.533 24.4833 31.533 22.7695H31.5348ZM33.9794 20.1168C33.4568 20.2355 33.1828 20.7482 33.1716 21.5976L34.7586 21.2198C34.7617 21.1813 34.7617 21.0955 34.7617 20.9638C34.7586 20.3231 34.5604 19.9851 33.98 20.1168H33.9794ZM45.7211 19.3308C45.6589 17.54 46.1237 16.1182 48.1215 15.6646C49.3966 15.375 49.8794 15.7056 50.1242 16.0256C50.3597 16.3314 50.4505 16.7433 50.4505 17.3206V17.4275L48.8858 17.8003V17.5822C48.8858 16.8987 48.6994 16.6377 48.2023 16.762C47.6113 16.9105 47.3727 17.471 47.3727 18.587V19.1071C47.3727 20.2411 47.5281 20.7606 48.2085 20.6177C48.8001 20.4934 48.8808 19.9764 48.892 19.5216C48.892 19.4501 48.8964 19.2214 48.8964 19.2214L50.4585 18.8536V19.0965C50.4542 20.5829 49.6706 21.5199 48.2017 21.8617C46.1803 22.3364 45.7838 21.1664 45.7217 19.3308H45.7211ZM40.3169 21.8375C40.3169 20.4754 41.116 20.0448 42.3171 19.5483C43.3965 19.1015 43.4195 18.8797 43.4244 18.4919C43.43 18.1657 43.279 17.8854 42.7409 18.0228C42.2469 18.147 42.1158 18.5062 42.0897 18.792C42.0806 18.8924 42.0773 18.9933 42.0798 19.094L40.5654 19.4513C40.5553 19.1495 40.5904 18.8479 40.6698 18.5565C40.9122 17.7419 41.6311 17.1938 42.8702 16.9074C44.4808 16.5345 45.0183 17.2429 45.0208 18.3428V20.947C45.0208 22.2066 45.2544 22.3905 45.2544 22.3905L43.7675 22.7428C43.6853 22.5709 43.6183 22.3921 43.5674 22.2084C43.5674 22.2084 43.2424 23.028 42.1202 23.2927C40.9395 23.5699 40.3181 22.8404 40.3181 21.8381L40.3169 21.8375ZM43.4157 19.9783C43.165 20.154 42.9002 20.3088 42.6241 20.4412C42.127 20.6842 41.9039 20.9824 41.9039 21.4423C41.9039 21.8406 42.1525 22.1028 42.5999 21.9909C43.0814 21.8704 43.4157 21.4211 43.4157 20.7979V19.9783ZM20.294 30.389C20.1243 30.3886 19.9578 30.3425 19.8121 30.2556C19.6664 30.1686 19.5468 30.0439 19.466 29.8947C19.3852 29.7455 19.346 29.5773 19.3528 29.4077C19.3595 29.2382 19.4118 29.0735 19.5042 28.9312L19.5141 28.9182L19.5321 28.9138L21.7505 28.39V30.0758L21.7157 30.0839C21.2124 30.205 20.6109 30.3424 20.4866 30.3678C20.423 30.3821 20.3579 30.3892 20.2927 30.389H20.294ZM20.294 32.5458C20.0447 32.5458 19.8055 32.447 19.629 32.271C19.4524 32.095 19.3528 31.8562 19.3519 31.6069C19.3509 31.4249 19.4039 31.2467 19.5042 31.0949L19.5141 31.0781L19.5321 31.0744L21.7505 30.5505V32.2364L21.7157 32.2457C21.2124 32.3662 20.6109 32.506 20.4866 32.5303C20.4227 32.5428 20.3578 32.549 20.2927 32.5489L20.294 32.5458ZM20.294 34.7064C20.0441 34.7062 19.8045 34.6068 19.6278 34.4301C19.4512 34.2533 19.3519 34.0136 19.3519 33.7637C19.3509 33.5818 19.4039 33.4036 19.5042 33.2517L19.5141 33.2343L21.7511 32.7074V34.3932L21.7163 34.4019C21.185 34.5299 20.5941 34.6635 20.4872 34.6877C20.4233 34.6999 20.3584 34.7062 20.2933 34.7064" fill="#231F20"/>
<path d="M20.033 28.3229L20.0323 18.8908L21.7517 18.4845V27.9159L20.033 28.3229Z" fill="#231F20"/>
<path d="M24.3162 27.5206C24.3095 27.2437 24.1948 26.9803 23.9965 26.7868C23.7983 26.5933 23.5322 26.485 23.2552 26.485C22.9781 26.485 22.7121 26.5933 22.5138 26.7868C22.3156 26.9803 22.2009 27.2437 22.1942 27.5206V36.3369C22.1955 37.0982 22.4985 37.828 23.0368 38.3665C23.5751 38.9049 24.3048 39.2081 25.0662 39.2095C25.869 39.2095 28.0687 39.2058 28.0687 39.2058V31.4267C28.0691 31.198 28.013 30.9728 27.9054 30.771C27.7977 30.5693 27.6419 30.3973 27.4517 30.2703L24.7748 28.4521V32.5806C24.7764 32.6115 24.7717 32.6424 24.761 32.6714C24.7503 32.7005 24.7337 32.727 24.7124 32.7495C24.6911 32.7719 24.6655 32.7898 24.637 32.802C24.6086 32.8142 24.578 32.8205 24.547 32.8205C24.5161 32.8205 24.4855 32.8142 24.457 32.802C24.4286 32.7898 24.4029 32.7719 24.3816 32.7495C24.3603 32.727 24.3438 32.7005 24.3331 32.6714C24.3224 32.6424 24.3177 32.6115 24.3193 32.5806C24.3193 32.5365 24.3137 28.0656 24.3137 27.5206H24.3162ZM25.7491 20.9433C25.424 21.0184 25.119 21.1628 24.8547 21.3665C24.5905 21.5703 24.3733 21.8286 24.218 22.1239V21.4634L22.6701 21.83V26.0635C22.9416 25.9564 23.2374 25.9263 23.5249 25.9766C23.8124 26.027 24.0804 26.1557 24.2994 26.3487V23.6146C24.2994 22.9603 24.6263 22.4371 25.0911 22.3345C25.4421 22.2575 25.7342 22.383 25.7342 23.0063V26.9949L27.3641 26.6122V22.3936C27.3641 21.3702 26.9714 20.6537 25.7485 20.9433H25.7491ZM49.4457 14.9065C49.2462 14.9066 49.0512 14.8476 48.8853 14.7369C48.7193 14.6262 48.59 14.4687 48.5135 14.2845C48.4371 14.1003 48.417 13.8975 48.4558 13.7018C48.4946 13.5062 48.5905 13.3264 48.7315 13.1853C48.8724 13.0442 49.0521 12.948 49.2477 12.909C49.4433 12.8699 49.6461 12.8898 49.8304 12.966C50.0147 13.0422 50.1723 13.1714 50.2832 13.3372C50.3942 13.503 50.4534 13.6979 50.4536 13.8974C50.4531 14.1645 50.3467 14.4205 50.1578 14.6093C49.9688 14.7981 49.7128 14.9043 49.4457 14.9046V14.9065ZM49.4457 13.015C49.2713 13.015 49.1008 13.0667 48.9559 13.1636C48.8109 13.2604 48.6979 13.3981 48.6311 13.5592C48.5643 13.7203 48.5468 13.8975 48.5808 14.0685C48.6148 14.2396 48.6987 14.3967 48.822 14.52C48.9452 14.6434 49.1023 14.7274 49.2733 14.7615C49.4443 14.7956 49.6215 14.7782 49.7827 14.7116C49.9438 14.6449 50.0816 14.532 50.1785 14.3871C50.2755 14.2421 50.3273 14.0717 50.3274 13.8974C50.3271 13.6636 50.2341 13.4394 50.0688 13.274C49.9036 13.1086 49.6795 13.0155 49.4457 13.015Z" fill="#231F20"/>
<path d="M49.0784 13.2977H49.5134C49.6868 13.2977 49.8241 13.3841 49.8241 13.6134C49.8241 13.7731 49.7533 13.8961 49.619 13.9173C49.7433 13.9297 49.8055 13.9968 49.811 14.1702C49.811 14.2478 49.8148 14.3448 49.8185 14.4187C49.8185 14.4398 49.8238 14.4606 49.834 14.4791C49.8442 14.4976 49.859 14.5132 49.8769 14.5244H49.6557C49.6335 14.4925 49.6217 14.4545 49.6221 14.4156C49.6147 14.3417 49.6159 14.2727 49.6134 14.1832C49.6134 14.049 49.5693 13.99 49.4339 13.99H49.2779V14.5244H49.0809L49.0784 13.2977ZM49.432 13.8458C49.4587 13.8483 49.4857 13.8448 49.5109 13.8355C49.5361 13.8263 49.5589 13.8116 49.5777 13.7924C49.5965 13.7732 49.6108 13.7501 49.6196 13.7248C49.6283 13.6994 49.6313 13.6724 49.6284 13.6457C49.6284 13.5146 49.5724 13.4463 49.4419 13.4463H49.2779V13.8458H49.432Z" fill="#231F20"/>
</svg>
