<svg width="70" height="48" viewBox="0 0 70 48" fill="none" xmlns="http://www.w3.org/2000/svg">
<rect x="0.5" y="0.5" width="69" height="47" rx="5.5" fill="white" stroke="#D9D9D9"/>
<path fill-rule="evenodd" clip-rule="evenodd" d="M8 28.9204C8.03662 28.7236 8.07016 28.5331 8.10304 28.3462C8.15385 28.0574 8.20309 27.7776 8.25969 27.4978C8.49939 26.2322 8.74077 24.9683 8.98214 23.7043C9.22352 22.4403 9.46489 21.1764 9.7046 19.9107C9.73789 19.7504 9.7845 19.6436 9.94431 19.6169C11.1895 19.4299 12.4413 19.2963 13.6864 19.6102C14.7718 19.8773 15.5309 20.6454 15.6574 21.547C15.9171 23.3436 14.8717 24.7796 13.3202 25.2938C12.5012 25.561 11.6689 25.6278 10.8232 25.5476C10.6235 25.5276 10.5636 25.581 10.5303 25.7747C10.3505 26.7565 10.164 27.7316 9.97095 28.7067C9.95763 28.7868 9.88438 28.9137 9.83777 28.9137C9.38535 28.9237 8.94035 28.9225 8.47782 28.9213H8.47776H8.4777H8.47764H8.47757H8.47751H8.47719H8.47688H8.47656H8.47623H8.47591C8.3196 28.9209 8.16128 28.9204 8 28.9204ZM11.2422 23.9649L11.2423 23.9649H11.2423C11.5027 23.9719 11.7487 23.9786 11.9885 23.9514C12.681 23.8779 13.2336 23.564 13.5466 22.9028C13.8995 22.1548 13.6465 21.36 12.9806 21.1263C12.5079 20.9593 12.0218 20.9927 11.5357 21.0595C11.4758 21.0662 11.3959 21.1597 11.3826 21.2198C11.2894 21.7094 11.1963 22.2011 11.0996 22.7112C11.0235 23.1127 10.9453 23.5257 10.8632 23.9581C10.9934 23.9581 11.1194 23.9615 11.2422 23.9649ZM19.8057 27.6381C19.7003 27.748 19.6016 27.8586 19.5052 27.9666L19.5052 27.9666L19.5052 27.9667C19.2968 28.2001 19.0989 28.4218 18.8668 28.5998C18.1677 29.1408 17.3686 29.261 16.563 28.887C15.7639 28.5197 15.4377 27.805 15.4044 26.9635C15.3311 25.1936 15.9504 23.731 17.4352 22.7158C18.3674 22.0746 19.4395 21.881 20.5515 21.9411C20.9193 21.9628 21.2843 22.0268 21.6502 22.091C21.8473 22.1255 22.0446 22.1601 22.2427 22.1882C22.4691 22.2216 22.5024 22.3485 22.4625 22.5422C22.409 22.8214 22.355 23.1004 22.301 23.3791L22.301 23.3792L22.301 23.3792L22.301 23.3793L22.301 23.3793L22.301 23.3794L22.301 23.3794L22.301 23.3794L22.301 23.3794L22.301 23.3794L22.301 23.3795C22.0993 24.4208 21.8981 25.4596 21.73 26.5027C21.6336 27.0998 21.5952 27.7114 21.5571 28.317V28.317C21.5505 28.4226 21.5439 28.5281 21.5369 28.6332C21.5236 28.8469 21.4703 28.9338 21.2506 28.9271C20.8378 28.9137 20.4249 28.9137 20.0121 28.9271C19.799 28.9338 19.7258 28.8536 19.7458 28.6466C19.7648 28.4178 19.777 28.1821 19.7897 27.9373C19.7948 27.8391 19.8 27.7394 19.8057 27.6381ZM20.2718 23.5106C19.6259 23.3303 19.0866 23.4572 18.6338 23.8378C17.7815 24.5592 17.3953 25.4942 17.4685 26.6095C17.4885 26.9502 17.6217 27.2774 17.9813 27.4244C18.3408 27.5713 18.6671 27.4644 18.9467 27.224C19.1132 27.0771 19.273 26.9101 19.3929 26.7231C19.8625 26.0041 19.9908 25.193 20.1211 24.3692C20.1663 24.0834 20.2118 23.7961 20.2718 23.5106ZM29.707 27.2507C30.0733 28.4262 31.0787 29.0807 32.8432 29.0807C34.0551 29.0473 35.2603 28.3594 36.0127 26.9435C36.4122 26.1821 36.5587 25.3673 36.5055 24.5124C36.4589 23.6909 36.1326 22.9963 35.4667 22.5021C34.7676 21.9811 33.9685 21.8743 33.1162 21.9678C30.2664 22.2884 29.1011 25.3139 29.707 27.2507ZM31.6033 26.2699C31.604 26.2358 31.6047 26.2019 31.6047 26.1687C31.6247 25.4007 31.8112 24.6861 32.2706 24.0516C32.477 23.7711 32.7367 23.5573 33.0829 23.4772C33.7888 23.3169 34.3681 23.7243 34.4346 24.4924C34.5145 25.4341 34.2882 26.3023 33.6955 27.057C33.4691 27.3375 33.1828 27.5312 32.8166 27.5646C32.1574 27.6247 31.658 27.1772 31.6047 26.476C31.6003 26.4089 31.6018 26.3389 31.6033 26.2699ZM38.0902 22.108H39.7815C39.7549 22.4687 39.7283 22.816 39.695 23.17C39.7564 23.1126 39.8158 23.0559 39.874 23.0003L39.8746 22.9998L39.8747 22.9997C39.9993 22.8808 40.1186 22.7669 40.241 22.6624C40.9002 22.088 41.6526 21.8342 42.5249 21.9745C43.244 22.0947 43.7434 22.6223 43.8233 23.3637C43.9101 24.1351 43.7659 24.8833 43.6219 25.63L43.5902 25.7947C43.5319 26.0977 43.4742 26.4007 43.4166 26.7035L43.4163 26.7048L43.4162 26.7057C43.2897 27.3699 43.1635 28.0332 43.0309 28.6933C43.0109 28.7802 42.9111 28.907 42.8445 28.9137C42.2719 28.9271 41.6993 28.9204 41.1266 28.9137H41.1266C41.1074 28.9137 41.0882 28.9033 41.059 28.8875C41.0477 28.8814 41.0349 28.8744 41.02 28.867C41.1266 28.3126 41.2331 27.7516 41.333 27.1906C41.4861 26.329 41.6326 25.4742 41.7658 24.6126C41.7924 24.4657 41.7791 24.312 41.7591 24.1651C41.7059 23.6508 41.3263 23.4171 40.8336 23.5707C40.3542 23.7243 40.0678 24.0983 39.8348 24.5124C39.4885 25.1202 39.3687 25.7947 39.2488 26.4693C39.2188 26.6365 39.1891 26.8034 39.1594 26.97C39.0576 27.5424 38.9561 28.1125 38.8427 28.6866C38.8227 28.7735 38.7228 28.907 38.6562 28.9137C38.1893 28.9297 37.7181 28.9287 37.2158 28.9276C37.0877 28.9274 36.9577 28.9271 36.8251 28.9271C37.2646 26.6296 37.6774 24.3788 38.0902 22.108ZM47.6919 27.5246C46.9861 27.4377 46.5133 26.9435 46.5599 26.2489C46.7071 26.2489 46.8536 26.2511 46.9993 26.2534H46.9993L46.9994 26.2534C47.2887 26.2578 47.575 26.2622 47.8584 26.2489C48.5442 26.2088 49.2167 26.0953 49.8426 25.7814C50.6417 25.3807 51.0145 24.7195 50.9546 23.8579C50.8947 22.983 50.4219 22.3485 49.5763 22.0947C48.3111 21.714 47.1459 21.9812 46.1538 22.8294C44.9485 23.8579 44.4958 25.2204 44.6689 26.7765C44.7887 27.8785 45.388 28.6666 46.48 28.9471C47.6519 29.2477 48.8039 29.0874 49.9159 28.6332C49.9958 28.5998 50.089 28.4729 50.0823 28.3928C50.0663 28.0669 50.0333 27.741 50.0003 27.4151L50.0003 27.4149C49.992 27.3334 49.9838 27.252 49.9758 27.1706C49.9539 27.1706 49.9377 27.1694 49.9252 27.1686C49.9072 27.1673 49.8971 27.1666 49.8892 27.1706C49.816 27.1973 49.7427 27.224 49.6762 27.2507C49.0369 27.4978 48.3777 27.6047 47.6919 27.5246ZM48.7239 24.5658C48.3178 24.7796 47.2657 24.9065 46.753 24.7996C46.8595 23.9113 47.7984 23.2167 48.5908 23.4104C48.8571 23.4772 49.0502 23.6175 49.0968 23.9046C49.1434 24.1852 49.0036 24.4189 48.7239 24.5658ZM53.2119 26.2756C53.152 26.9301 53.6181 27.431 54.3305 27.5245C54.9964 27.6047 55.6356 27.5045 56.2615 27.2774C56.3191 27.2558 56.3748 27.2341 56.4359 27.2103L56.4362 27.2102C56.488 27.19 56.5437 27.1683 56.6078 27.1438C56.6208 27.2853 56.6352 27.424 56.6495 27.5607L56.6495 27.5608C56.6789 27.8436 56.7075 28.1182 56.721 28.3928C56.7276 28.4729 56.6344 28.5998 56.5612 28.6332C55.4292 29.1007 54.264 29.261 53.0721 28.9338C52 28.6399 51.4407 27.8585 51.3075 26.7899C51.1411 25.4207 51.494 24.1851 52.4462 23.17C53.4716 22.0813 54.7301 21.694 56.1816 22.0947C57.0672 22.3418 57.54 22.983 57.5933 23.8846C57.6465 24.7662 57.247 25.4274 56.4147 25.8148C55.5757 26.2021 54.6835 26.2622 53.7779 26.2823C53.5981 26.2756 53.4117 26.2756 53.2119 26.2756ZM53.7624 24.8336L53.7624 24.8336C54.0578 24.8187 54.3424 24.8044 54.6235 24.7662C54.8899 24.7328 55.1562 24.6527 55.3959 24.5391C55.6556 24.4256 55.7821 24.1851 55.7422 23.8913C55.7022 23.6108 55.5158 23.4772 55.2561 23.4104C54.4704 23.1967 53.4916 23.918 53.405 24.853C53.5261 24.8454 53.6451 24.8395 53.7624 24.8336ZM57.9594 27.5245C57.8729 27.9787 57.793 28.4262 57.7064 28.9204C57.8398 28.9204 57.9712 28.9207 58.1011 28.921C58.6135 28.922 59.1021 28.923 59.5908 28.9071C59.6374 28.9071 59.7106 28.7802 59.7239 28.7C59.7919 28.3664 59.8548 28.0312 59.9178 27.6961C60.0338 27.0784 60.1498 26.461 60.2966 25.8548C60.6229 24.5057 61.1755 24.0382 62.4873 23.8646C62.5405 23.8579 62.6271 23.7978 62.6404 23.751C62.724 23.3672 62.7988 22.9804 62.8765 22.5792C62.9164 22.3731 62.957 22.1631 63 21.9478C61.7348 21.8142 61.029 22.5488 60.4164 23.4505L60.4263 23.32C60.4564 22.9213 60.487 22.5155 60.523 22.088C60.3845 22.088 60.2487 22.0876 60.1147 22.0872C59.7204 22.0859 59.3426 22.0847 58.9649 22.0947C58.9116 22.1014 58.8117 22.2216 58.8051 22.2951C58.663 24.0116 58.3267 25.6905 57.9907 27.3683L57.9594 27.5245Z" fill="black"/>
<path fill-rule="evenodd" clip-rule="evenodd" d="M40.33 14.0507C40.2626 14.0329 40.1951 14.015 40.1277 14C39.9213 14 39.7149 14 39.4951 14.0067C39.4201 14.0217 39.345 14.0381 39.2694 14.0547C39.1772 14.0748 39.0842 14.0952 38.9891 14.1135C37.9703 14.3072 37.0115 14.6612 36.0859 15.1287C34.0817 16.1439 32.2839 17.4596 30.6725 19.0158C29.6005 20.0443 28.5617 21.1196 27.5563 22.2216C25.7918 24.1584 24.2802 26.289 23.075 28.6265C22.4558 29.8354 21.8965 31.071 21.6434 32.4134C21.5968 32.6605 21.6767 32.9477 21.7566 33.1948C21.7899 33.295 21.9764 33.3685 22.1029 33.4086C22.1362 33.4219 22.2361 33.2549 22.2827 33.1614C22.2992 33.1252 22.3162 33.0881 22.3335 33.0502C22.6226 32.4167 23.0137 31.56 23.3529 30.9929C24.0721 29.7907 24.6398 28.8603 25.4455 27.7182C26.7373 25.8816 28.2466 24.0795 29.8314 22.49C31.3296 20.9872 32.8299 19.6436 34.7143 18.6284C35.5799 18.1676 36.4655 17.7134 37.3711 17.3394C38.9358 16.6916 40.5672 16.2508 42.2451 16.0036C42.4249 15.9769 42.6646 15.8367 42.7246 15.6897C42.7778 15.5562 42.6513 15.3024 42.5248 15.1755C42.0121 14.6478 41.4128 14.2471 40.6671 14.1269C40.5547 14.1102 40.4423 14.0805 40.33 14.0507ZM25.086 23.1633C25.4056 22.2951 25.5654 21.3934 25.5854 20.4584C25.5765 20.3582 25.5691 20.258 25.5617 20.1579C25.5469 19.9575 25.5321 19.7571 25.5054 19.5568C25.3257 18.0073 24.6598 16.6916 23.6011 15.5629C23.4746 15.436 23.3015 15.3358 23.1283 15.2757C22.9552 15.2089 22.842 15.3091 22.8553 15.5094C22.8556 15.5137 22.856 15.5179 22.8563 15.5221C22.8693 15.6919 22.8828 15.8676 22.9153 16.037C22.962 16.3039 23.0085 16.5711 23.055 16.8385C23.2203 17.789 23.3859 18.7417 23.5678 19.6903C23.7476 20.6454 23.9473 21.5938 24.1604 22.5355C24.2337 22.8361 24.3535 23.1366 24.5 23.4171C24.6132 23.6308 24.773 23.6108 24.9195 23.4171C24.9861 23.337 25.0527 23.2568 25.086 23.1633Z" fill="#FC461E"/>
</svg>
