<svg width="70" height="48" viewBox="0 0 70 48" fill="none" xmlns="http://www.w3.org/2000/svg">
<rect x="0.5" y="0.5" width="69" height="47" rx="5.5" fill="white" stroke="#D9D9D9"/>
<path fill-rule="evenodd" clip-rule="evenodd" d="M19.0265 9.91185H35.6838C47.0029 9.91185 51.3526 16.0977 51.3526 23.9167C51.3526 33.2698 45.2729 37.9711 35.6838 37.9711H19.0265V9.91185ZM20.6081 11.5944V36.3875H35.6837C44.7785 36.3875 49.7213 32.1316 49.7213 23.9662C49.7213 15.5534 44.3831 11.5944 35.6837 11.5944H20.6081ZM25.0567 24.4115C26.7219 24.4115 28.0718 23.06 28.0718 21.3928C28.0718 19.7256 26.7219 18.3741 25.0567 18.3741C23.3915 18.3741 22.0416 19.7256 22.0416 21.3928C22.0416 23.06 23.3915 24.4115 25.0567 24.4115ZM22.6349 25.6982H27.4788V34.309H22.6349V25.6982Z" fill="black"/>
<path fill-rule="evenodd" clip-rule="evenodd" d="M44.235 18.6216H45.619V22.7785H47.6455C47.1018 15.207 41.121 13.5244 35.6839 13.5244H29.9008V18.6216H30.741C32.3227 18.6216 33.2619 19.6608 33.2619 21.3929C33.2619 23.1249 32.3227 24.1641 30.7905 24.1641H29.9008V34.309H35.6839C44.5315 34.309 47.5467 30.2016 47.695 24.1641H44.235V18.6216ZM37.5621 22.7785V24.1641H34.1022V18.6216H37.4633V20.0072H35.4862V20.6505H37.3644V22.0362H35.5356V22.7785H37.5621ZM39.8357 18.6216H41.8128L43.4934 24.1641H42.06L41.7634 23.1249H39.9346L39.638 24.1641H38.1552L39.8357 18.6216ZM40.3455 21.6898H40.3301V21.7393L40.3455 21.6898ZM40.3455 21.6898H41.3186L40.8738 20.1557H40.8244L40.3455 21.6898ZM29.9008 22.7785V20.0072H30.741C31.2847 20.0072 31.8779 20.1557 31.8779 21.3929C31.8779 22.63 31.3342 22.7785 30.741 22.7785H29.9008Z" fill="#D50072"/>
</svg>
