<svg width="70" height="48" viewBox="0 0 70 48" fill="none" xmlns="http://www.w3.org/2000/svg">
<rect x="0.5" y="0.5" width="69" height="47" rx="5.5" fill="white" stroke="#D9D9D9"/>
<path fill-rule="evenodd" clip-rule="evenodd" d="M26.3346 32.3173C26.6479 32.1545 27.1805 31.9409 27.7447 31.9409C29.0397 31.9409 29.7396 32.8154 29.7396 34.4426C29.7396 36.3434 28.7999 37.2688 27.2852 37.2688C26.7314 37.2688 25.8749 37.096 25.2481 36.7701V29.6737L26.3346 29.4195V32.3173ZM26.3243 36.3941C26.6583 36.5365 27.0241 36.5567 27.2853 36.5567C28.0582 36.5567 28.6431 36.0892 28.6431 34.4426C28.6431 33.1509 28.1626 32.7341 27.4628 32.7341C27.0448 32.7341 26.7421 32.8459 26.3243 33.0696V36.3941ZM15.1991 32.0729H15.2722L16.6925 37.1467H17.8205L19.5129 29.9377H18.2907L17.2253 35.3165H17.1525L15.7003 29.9377H14.7707L13.4129 35.3165H13.3397L12.1698 29.9377H11L12.6922 37.1467H13.82L15.1991 32.0729ZM24.1415 36.8007V36.028C23.567 36.3636 23.0449 36.5567 22.4809 36.5567C21.405 36.5567 20.8933 36.0176 20.8933 34.7977H24.2982V34.4217C24.2982 32.7646 23.4938 31.9409 22.1885 31.9409C20.6217 31.9409 19.8174 33.0594 19.8174 34.6046C19.8174 36.2112 20.538 37.2688 22.2927 37.2688C23.0449 37.2688 23.6715 37.0654 24.1415 36.8007ZM23.3059 34.1167H20.9144C21.029 33.1002 21.5196 32.6222 22.1572 32.6222C22.7212 32.6222 23.2541 33.0489 23.3059 34.1167ZM34.5446 35.6214H34.4922L32.1525 29.9377H30.8887V37.1467H31.8288V32.0427H31.9227L34.0538 37.1467H34.722L36.8529 31.9206H36.9472V37.1467H38.0752V29.9377H36.7798L34.5446 35.6214ZM39.2243 34.6046C39.2243 32.8252 40.2271 31.9409 41.6058 31.9409C42.9847 31.9409 43.9876 32.8252 43.9876 34.6046C43.9876 36.3434 43.037 37.2688 41.6058 37.2688C40.1746 37.2688 39.2243 36.3434 39.2243 34.6046ZM42.8905 34.6046C42.8905 33.2322 42.3158 32.6528 41.6057 32.6528C40.9163 32.6528 40.3208 33.2322 40.3208 34.6046C40.3208 35.998 40.8643 36.5567 41.6057 36.5567C42.3472 36.5567 42.8905 35.998 42.8905 34.6046ZM47.6426 31.9409C46.442 31.9409 45.4494 32.4187 44.9794 32.6933V37.1467H46.0659V33.1203C46.3895 32.9376 46.9223 32.7542 47.3404 32.7542C47.873 32.7542 48.2799 32.8966 48.2799 33.6999V37.1467H49.3662V33.4658C49.3662 32.4187 48.8966 31.9409 47.6426 31.9409ZM54.6617 36.028V36.8007C54.1919 37.0654 53.5655 37.2688 52.8131 37.2688C51.0586 37.2688 50.3378 36.2112 50.3378 34.6046C50.3378 33.0594 51.1423 31.9409 52.7089 31.9409C54.0148 31.9409 54.8193 32.7646 54.8193 34.4217V34.7977H51.414C51.414 36.0176 51.9258 36.5567 53.0015 36.5567C53.5655 36.5567 54.0878 36.3636 54.6617 36.028ZM51.4348 34.1167H53.8266C53.7747 33.0489 53.2416 32.6222 52.6776 32.6222C52.0402 32.6222 51.5499 33.1002 51.4348 34.1167ZM60 32.1137H58.8823L57.6911 35.855H57.6289L56.2919 32.1137H55.1429L57.1484 37.1974C56.8973 37.9496 56.4591 38.4991 55.7488 38.4991V39.3324C56.9494 39.3324 57.5868 38.6007 58.1092 37.1974L60 32.1137Z" fill="#0068A3"/>
<path fill-rule="evenodd" clip-rule="evenodd" d="M34.7997 8.62665C36.2371 8.62665 37.5984 8.95248 38.8109 9.53096C39.0013 9.61889 39.1912 9.71563 39.3817 9.82245L38.5389 10.5566L37.2727 9.28227L35.1357 11.1376L33.8664 9.78918L29.8855 13.282L32.4376 16.0197L31.4347 16.8784L33.9484 19.6203L32.9514 20.4769L36.5434 24.3688L38.6756 22.458L40.5191 24.5056C40.1524 24.7831 39.753 25.0442 39.313 25.2855C37.9799 26.0254 36.4392 26.4491 34.7997 26.4491C29.7574 26.4491 25.645 22.4456 25.645 17.5381C25.645 12.6296 29.7574 8.62665 34.7997 8.62665ZM33.1312 16.9748L35.3081 15.0665L37.2684 17.186L35.0916 19.0936L33.1312 16.9748ZM36.8564 18.7285L34.6793 20.6362L36.6399 22.7558L38.8168 20.8475L36.8564 18.7285ZM31.5736 13.3561L33.7505 11.4484L35.7102 13.5674L33.5333 15.4751L31.5736 13.3561ZM37.2011 10.8985L35.5684 12.3291L37.0384 13.9189L38.6711 12.4877L37.2011 10.8985ZM38.4693 18.8834L40.1026 17.4522L41.5725 19.0418L39.9398 20.4726L38.4693 18.8834ZM41.538 20.6621L39.9057 22.0935L41.3756 23.6822L43.0083 22.2514L41.538 20.6621ZM40.5632 14.7362L41.6517 13.7822L42.6315 14.8417L41.5436 15.7955L40.5632 14.7362ZM40.2611 10.6343L39.1726 11.5881L40.1524 12.6476L41.2411 11.6938L40.2611 10.6343ZM41.9547 17.8841L43.0432 16.9302L44.0233 17.9895L42.9348 18.9434L41.9547 17.8841ZM38.7058 14.0939L37.0733 15.5252L38.5436 17.1139L40.1758 15.6831L38.7058 14.0939Z" fill="#0068A3"/>
</svg>
