<svg width="70" height="48" viewBox="0 0 70 48" fill="none" xmlns="http://www.w3.org/2000/svg">
<rect x="0.5" y="0.5" width="69" height="47" rx="5.5" fill="white" stroke="#D9D9D9"/>
<path d="M29.4684 47L68.9684 35.5V42C68.9684 44.7614 66.7298 47 63.9684 47H29.4684Z" fill="#FD6020"/>
<path fill-rule="evenodd" clip-rule="evenodd" d="M61.4711 19.2217C63.6442 19.2217 64.8394 20.1888 64.8394 22.0155C64.948 23.4124 63.9701 24.5944 62.6663 24.8093L65.6 28.7851H63.3182L60.8191 24.9168H60.6018V28.7851H58.7547V19.2217H61.4711ZM60.6018 23.6273H61.1451C62.3403 23.6273 62.8836 23.09 62.8836 22.1229C62.8836 21.2633 62.3403 20.726 61.1451 20.726H60.6018V23.6273ZM52.344 28.7851H57.5595V27.1733H54.1911V24.5944H57.4508V22.9826H54.1911V20.8335H57.5595V19.2217H52.344V28.7851ZM46.9112 25.6689L44.4121 19.2217H42.4563L46.4766 29H47.4545L51.4747 19.2217H49.5189L46.9112 25.6689ZM24.8541 24.0571C24.8541 26.7435 27.0272 29 29.7436 29C30.6129 29 31.3735 28.7851 32.134 28.4627V26.3137C31.5908 26.9584 30.8302 27.3882 29.9609 27.3882C28.2224 27.3882 26.8099 26.0987 26.8099 24.3795V24.1646C26.7013 22.4453 28.1138 20.941 29.8523 20.8335C30.7215 20.8335 31.5908 21.2633 32.134 21.908V19.759C31.4821 19.3291 30.6129 19.2217 29.8523 19.2217C27.0272 19.0068 24.8541 21.2633 24.8541 24.0571ZM21.4858 22.8751C20.3992 22.4453 20.0733 22.2304 20.0733 21.6931C20.1819 21.0484 20.7252 20.5111 21.3771 20.6186C21.9204 20.6186 22.4637 20.941 22.8983 21.3708L23.8762 20.0813C23.1156 19.4366 22.1377 19.0068 21.1598 19.0068C19.6386 18.8993 18.3348 20.0813 18.2261 21.5857V21.6931C18.2261 22.9826 18.7694 23.7348 20.5079 24.272C20.9425 24.3795 21.3771 24.5944 21.8118 24.8093C22.1377 25.0242 22.355 25.3466 22.355 25.7764C22.355 26.5286 21.7031 27.1733 21.0512 27.1733H20.9425C20.0733 27.1733 19.3127 26.636 18.9867 25.8838L17.7915 27.0658C18.4434 28.2478 19.7473 28.8925 21.0512 28.8925C22.7897 29 24.2022 27.7106 24.3108 25.9913V25.6689C24.2022 24.3795 23.6589 23.7348 21.4858 22.8751ZM15.1838 28.7851H17.0309V19.2217H15.1838V28.7851ZM6.59998 19.2217H9.31637H9.85964C12.4674 19.3292 14.5318 21.4782 14.4232 24.0571C14.4232 25.454 13.7712 26.7435 12.6847 27.7106C11.7068 28.4627 10.5116 28.8926 9.31637 28.7851H6.59998V19.2217ZM8.99039 27.1733C9.85964 27.2807 10.8375 26.9584 11.4895 26.4211C12.1414 25.7764 12.4674 24.9168 12.4674 23.9497C12.4674 23.09 12.1414 22.2304 11.4895 21.5857C10.8375 21.0484 9.85964 20.7261 8.99039 20.8335H8.44711V27.1733H8.99039Z" fill="black"/>
<path fill-rule="evenodd" clip-rule="evenodd" d="M37.6755 19C34.9591 19 32.6774 21.1491 32.6774 23.9429C32.6774 26.6292 34.8505 28.8858 37.6755 28.9932C40.5006 29.1007 42.6737 26.8441 42.7823 24.0503C42.6737 21.2565 40.5006 19 37.6755 19V19Z" fill="#FD6020"/>
</svg>
