<svg width="70" height="48" viewBox="0 0 70 48" fill="none" xmlns="http://www.w3.org/2000/svg">
<rect x="0.5" y="0.5" width="69" height="47" rx="5.5" fill="white" stroke="#D9D9D9"/>
<path fill-rule="evenodd" clip-rule="evenodd" d="M21.2577 20.4776H30.146H30.3934C30.3934 20.4776 30.5411 14.2819 32.032 12.479C34.5538 9.43253 37.3101 9.26862 38.4031 9.20362C38.5132 9.19707 38.6064 9.19153 38.6808 9.18415C38.761 9.17544 38.8323 9.17298 38.9051 9.17052C37.9117 9.06883 36.8339 9.0143 35.6639 9.00089C35.5213 9 35.3834 9 35.2426 9H34.993C34.8526 9 34.7143 9 34.5722 9.00089C25.3348 9.10705 21.7887 11.7478 21.11 20.4776H21.2577ZM29.4883 31.1004C28.4461 32.4038 26.9459 32.3162 26.9249 32.3149V37.6122C23.2132 36.1137 21.5402 32.9891 21.1039 27.2279C21.0512 26.5337 21.0197 25.9236 21 25.4181L30.3936 25.4145L30.3873 25.9741C30.3763 26.9403 30.3548 28.8177 30.3572 28.8803C30.3643 29.1554 30.2948 30.093 29.4883 31.1004ZM41.8791 9.69392C46.5993 10.951 48.6438 14.0928 49.1319 20.5471C49.2839 22.5518 49.2664 23.8872 49.2664 23.8872C49.2664 23.8872 49.2841 25.2232 49.1321 27.2276C48.4677 36.0134 44.9257 38.6673 35.6641 38.7739C35.5215 38.7748 34.7145 38.7748 34.5724 38.7739C32.9659 38.7551 31.5367 38.6579 30.2597 38.4679C30.2653 38.4679 30.2708 38.4678 30.2762 38.4678C30.3154 38.4674 30.3538 38.4671 30.3936 38.4644C32.0693 38.3683 34.4023 37.0758 35.7908 34.0693C36.3974 32.7545 36.5603 30.4074 36.5603 30.4074V25.4156H36.5607V25.4143H41.6335H41.8795V20.4772H41.6335H36.5612C36.5612 20.4772 36.5612 20.4765 36.5607 20.4763C36.5607 20.4763 36.5585 20.4712 36.5567 20.4618C36.5565 20.4609 36.5562 20.4596 36.556 20.4583C36.5558 20.4572 36.5556 20.4561 36.5554 20.4553C36.5541 20.4513 36.553 20.447 36.5518 20.4423C36.5503 20.4365 36.5486 20.4299 36.546 20.4218C36.5458 20.4201 36.5455 20.4179 36.5451 20.4156C36.5446 20.4125 36.544 20.4091 36.5438 20.4061C36.54 20.3918 36.5366 20.378 36.5339 20.359C36.5326 20.3543 36.5318 20.3487 36.531 20.343C36.5305 20.3392 36.5299 20.3354 36.5292 20.3317C36.5257 20.3132 36.5227 20.2944 36.5198 20.2723C36.5177 20.2635 36.517 20.2528 36.5163 20.2426C36.5161 20.2402 36.516 20.2379 36.5158 20.2356C36.5122 20.2121 36.5098 20.1898 36.5069 20.163C36.5065 20.1575 36.5063 20.1517 36.5061 20.1458C36.5058 20.1373 36.5054 20.1286 36.5046 20.1205C36.5043 20.1149 36.5039 20.1093 36.5036 20.1037C36.502 20.0808 36.5005 20.0579 36.5002 20.0322C36.4997 20.017 36.5002 20 36.4997 19.9846C36.4997 19.9735 36.4995 19.9624 36.4993 19.9512C36.4988 19.9286 36.4984 19.9055 36.4997 19.8807C36.4997 19.8721 36.5003 19.8628 36.5009 19.8534C36.5013 19.8462 36.5018 19.8389 36.502 19.8318C36.5029 19.7922 36.5044 19.7529 36.5087 19.7091C36.5091 19.7027 36.5098 19.696 36.5106 19.6892C36.5114 19.6817 36.5122 19.6742 36.5127 19.6668C36.5169 19.619 36.5225 19.5707 36.5299 19.5193C36.5304 19.5145 36.5313 19.5094 36.5323 19.5044C36.5332 19.4995 36.5342 19.4947 36.5346 19.49C36.5435 19.4319 36.5531 19.3729 36.5659 19.3108C36.5659 19.3095 36.5663 19.3075 36.5668 19.3054C36.6566 18.8739 36.8493 18.3427 37.2352 17.7408C38.2731 16.1259 41.2205 16.2019 41.7857 16.2318C41.8449 16.2354 41.8782 16.2379 41.8791 16.2379V9.69392Z" fill="#659AD2"/>
</svg>
